<svg width="541" height="439" viewBox="0 0 541 439" fill="none" xmlns="http://www.w3.org/2000/svg">
<path opacity="0.1" d="M120.751 46.3984C125.183 46.3984 128.775 42.806 128.775 38.3745C128.775 33.943 125.183 30.3506 120.751 30.3506C116.32 30.3506 112.727 33.943 112.727 38.3745C112.727 42.806 116.32 46.3984 120.751 46.3984Z" fill="white"/>
<path opacity="0.1" d="M366.014 401.58C373.027 401.58 378.713 395.894 378.713 388.881C378.713 381.867 373.027 376.182 366.014 376.182C359 376.182 353.315 381.867 353.315 388.881C353.315 395.894 359 401.58 366.014 401.58Z" fill="white"/>
<path opacity="0.1" d="M526.363 208.733C530.613 208.733 534.057 205.288 534.057 201.038C534.057 196.789 530.613 193.344 526.363 193.344C522.113 193.344 518.668 196.789 518.668 201.038C518.668 205.288 522.113 208.733 526.363 208.733Z" fill="white"/>
<g style="mix-blend-mode:overlay">
<path d="M144.419 54.9333C242.096 73.3507 215.975 -43.2926 350.843 25.848C423.772 63.2317 621.431 217.808 440.615 309.638C322.902 369.419 321.365 429.493 214.694 422.521C80.164 413.729 20.4196 284.13 13.3931 224.889C5.53388 158.548 12.5605 30.0749 144.419 54.9333Z" fill="url(#paint0_linear_4105_298)" fill-opacity="0.25"/>
</g>
<g opacity="0.8">
<path opacity="0.2" d="M132.032 42.2538C139.91 43.6993 147.888 44.7058 155.893 44.8704C163.899 45.0351 171.941 44.3672 179.736 42.5191C187.531 40.6893 195.015 37.6426 202.024 33.7633C209.041 29.8932 215.61 25.282 222.252 20.7897C228.886 16.2975 235.683 11.9699 243.012 8.64873C250.313 5.30012 258.108 3.03112 266.059 1.90576C274.019 0.79871 282.097 0.752964 290.094 1.4483C298.09 2.15279 306.023 3.49773 313.836 5.33672C329.472 8.98725 344.696 14.184 359.6 20.1127C374.55 25.959 388.96 33.1137 402.931 41.0095C416.893 48.9144 430.397 57.6427 443.38 67.0756C456.344 76.5267 468.796 86.7189 480.461 97.7529C492.108 108.805 503.005 120.69 512.502 133.663C521.962 146.628 530.096 160.727 535.283 175.997C537.863 183.618 539.657 191.532 540.407 199.565C541.166 207.589 540.828 215.741 539.3 223.664C537.781 231.597 535.091 239.291 531.441 246.473C527.79 253.674 523.206 260.371 518.028 266.537C507.653 278.898 494.999 289.127 481.587 297.947C474.862 302.347 467.918 306.41 460.827 310.197C453.727 313.976 446.472 317.38 439.418 321.158C425.264 328.642 411.495 336.858 398.247 345.843C384.98 354.809 372.281 364.589 359.985 374.855C347.651 385.075 335.767 395.852 323.086 405.761C316.745 410.692 310.176 415.386 303.232 419.485C296.297 423.584 289.014 427.143 281.42 429.897C266.251 435.496 250.121 437.994 234.073 438.735C226.031 439.119 217.98 439.082 209.956 438.725C201.923 438.414 193.899 437.673 185.921 436.612C169.983 434.453 154.219 430.711 139.114 425.084C124.017 419.476 109.617 411.955 96.4417 402.668C89.8543 398.03 83.5596 392.97 77.6309 387.527C71.7114 382.064 66.1304 376.227 60.9153 370.097C50.4944 357.81 41.5648 344.297 34.0807 330.051C26.5967 315.797 20.5673 300.819 15.7549 285.476C10.9515 270.133 7.39249 254.406 5.05944 238.504C2.89108 222.585 1.28082 206.61 0.484836 190.572C-0.283697 174.542 -0.210504 158.43 1.37231 142.438C2.99172 126.472 6.08415 110.534 12.022 95.5662C14.9955 88.1004 18.7009 80.9 23.303 74.3034C27.8959 67.7069 33.4311 61.7416 39.7624 56.7827C46.0936 51.8147 53.2117 47.8805 60.7415 45.0809C68.2713 42.2538 76.1762 40.5246 84.1452 39.6279C100.12 37.8438 116.286 39.2986 132.032 42.2538ZM131.996 42.4368C116.259 39.5273 100.111 38.1275 84.1726 39.9299C76.222 40.8448 68.3537 42.6014 60.8696 45.4285C53.3855 48.2374 46.3132 52.1807 40.0369 57.1304C33.7513 62.0709 28.3076 68.0454 23.7696 74.6237C19.2316 81.2019 15.5902 88.3749 12.6716 95.8224C6.85268 110.736 3.86089 126.619 2.34213 142.529C0.841655 158.467 0.832506 174.524 1.67423 190.508C2.54341 206.491 4.21771 222.447 6.45012 238.294C8.83806 254.113 12.452 269.74 17.2919 284.982C22.141 300.216 28.2161 315.074 35.6818 329.191C43.111 343.327 51.9674 356.73 62.2877 368.908C67.457 374.992 72.974 380.765 78.8386 386.182C84.7124 391.58 90.943 396.593 97.4664 401.177C110.513 410.372 124.768 417.82 139.727 423.382C154.686 428.963 170.322 432.66 186.141 434.819C194.055 435.889 202.014 436.639 210.002 436.96C217.989 437.326 225.985 437.371 233.963 437.005C249.901 436.301 265.858 433.858 280.835 428.35C288.328 425.651 295.528 422.147 302.399 418.112C309.28 414.068 315.794 409.43 322.116 404.535C334.742 394.709 346.654 383.949 359.024 373.73C371.366 363.464 384.12 353.665 397.441 344.69C410.744 335.696 424.569 327.471 438.778 319.987C445.868 316.208 453.142 312.796 460.196 309.054C467.259 305.293 474.176 301.268 480.873 296.895C494.231 288.139 506.802 277.992 517.095 265.778C522.227 259.676 526.775 253.061 530.389 245.961C534.003 238.861 536.674 231.276 538.184 223.454C539.702 215.64 540.05 207.598 539.309 199.666C538.577 191.724 536.82 183.893 534.268 176.335C529.144 161.193 521.093 147.159 511.688 134.249C502.246 121.321 491.404 109.464 479.812 98.4208C468.211 87.3868 455.813 77.1854 442.895 67.716C429.967 58.2557 416.508 49.5182 402.592 41.5767C388.667 33.6627 374.303 26.4805 359.39 20.5976C344.522 14.6323 329.326 9.39896 313.726 5.71183C305.931 3.87284 298.017 2.51876 290.039 1.81427C282.07 1.10978 274.009 1.14638 266.086 2.24428C258.163 3.35134 250.405 5.61119 243.122 8.93235C235.821 12.2352 229.032 16.5353 222.39 21.0276C215.747 25.5016 209.169 30.1219 202.124 33.992C195.098 37.8713 187.586 40.918 179.764 42.7478C171.941 44.596 163.881 45.2456 155.866 45.0809C147.86 44.907 139.882 43.8915 131.996 42.4368Z" fill="white"/>
</g>
<path opacity="0.2" d="M158.208 75.1086C164.393 76.5816 170.669 77.6978 177.01 78.1552C183.341 78.6035 189.736 78.448 196.003 77.3867C202.271 76.362 208.382 74.4681 214.219 71.9612C220.066 69.4635 225.647 66.3985 231.228 63.3335C236.8 60.2777 242.408 57.2219 248.282 54.7333C254.147 52.2447 260.286 50.3599 266.58 49.3169C279.206 47.2401 292.161 48.4569 304.55 51.3481C316.983 54.2209 329.005 58.6034 340.707 63.6263C346.554 66.1423 352.354 68.7956 358.027 71.7142C363.699 74.6328 369.253 77.7527 374.706 81.0464C385.621 87.6338 396.133 94.88 406.216 102.675C416.289 110.479 425.95 118.851 434.999 127.845C444.048 136.829 452.474 146.482 459.912 156.875C467.314 167.269 473.737 178.476 478.083 190.553C482.401 202.584 484.505 215.659 482.694 228.468C481.806 234.854 479.976 241.103 477.305 246.967C474.633 252.832 471.147 258.303 467.113 263.308C459.006 273.317 448.906 281.487 438.119 288.34C432.712 291.753 427.131 294.9 421.412 297.755C418.567 299.2 415.667 300.554 412.766 301.881L404.029 305.733C392.437 310.902 381.092 316.629 370.113 322.988C359.134 329.356 348.548 336.373 338.301 343.867C328.026 351.332 318.154 359.347 307.862 366.913C297.596 374.461 286.635 381.442 274.522 385.916C262.445 390.482 249.535 392.44 236.736 392.815C223.908 393.117 211.109 392.165 198.455 390.171C185.811 388.158 173.322 384.919 161.374 380.207C149.434 375.514 138.034 369.365 127.659 361.781C117.274 354.214 107.887 345.285 99.8086 335.312C91.6841 325.367 84.8405 314.415 79.168 302.924C73.4863 291.423 69.0672 279.346 65.6271 267.022C62.2145 254.689 59.7899 242.091 58.3718 229.382C57.6399 223.015 57.2922 216.647 56.8622 210.306C56.4505 203.948 56.0845 197.589 55.8558 191.212C55.3892 178.476 55.3709 165.686 56.4322 152.959C57.5118 140.251 59.5704 127.524 63.8247 115.438C64.8952 112.419 66.1212 109.464 67.4844 106.564C68.8568 103.672 70.4305 100.873 72.1505 98.1737C75.6272 92.8031 79.8633 87.8808 84.8771 83.8826C87.3657 81.8698 90.0281 80.0583 92.846 78.5487C95.6457 77.0116 98.5826 75.6941 101.611 74.6694C107.64 72.5193 114.008 71.4672 120.367 71.0189C126.735 70.5797 133.13 70.9091 139.461 71.641C145.756 72.4004 152.023 73.6081 158.208 75.1086ZM158.144 75.383C151.959 73.91 145.701 72.7389 139.379 72.0253C133.066 71.3299 126.698 71.028 120.367 71.5038C114.045 71.9887 107.741 73.0683 101.776 75.2275C98.7839 76.2522 95.8927 77.5788 93.1297 79.1159C90.3483 80.6255 87.7316 82.4279 85.2888 84.4316C82.8368 86.417 80.5586 88.6311 78.5092 91.0373C76.4598 93.4344 74.5476 95.9687 72.8825 98.6586C71.2173 101.339 69.6985 104.121 68.3719 106.994C67.0636 109.876 65.8742 112.812 64.8586 115.804C60.7872 127.808 58.8659 140.443 57.9418 153.078C57.0269 165.731 57.1916 178.449 57.7954 191.13C58.0973 197.47 58.5365 203.81 59.0123 210.151C59.5246 216.5 59.8997 222.841 60.6683 229.117C63.6692 254.25 70.4396 279.035 81.62 301.716C87.2101 313.043 93.9439 323.811 101.922 333.592C109.864 343.391 119.077 352.156 129.26 359.585C139.434 367.032 150.623 373.071 162.362 377.691C174.1 382.339 186.406 385.505 198.876 387.536C211.347 389.549 224.046 390.537 236.662 390.28C249.27 389.951 261.878 388.076 273.671 383.666C285.51 379.338 296.279 372.549 306.507 365.084C316.745 357.609 326.681 349.612 337.02 342.137C347.331 334.635 358.008 327.599 369.079 321.222C380.14 314.854 391.568 309.118 403.233 303.958L411.97 300.133C414.852 298.825 417.734 297.489 420.561 296.062C426.234 293.244 431.769 290.152 437.131 286.785C447.808 280.032 457.79 272.009 465.749 262.219C469.711 257.324 473.133 251.99 475.759 246.272C478.384 240.563 480.178 234.479 481.065 228.257C482.877 215.778 480.864 202.969 476.637 191.102C472.392 179.19 466.07 168.074 458.75 157.744C451.403 147.406 443.032 137.817 434.075 128.814C425.118 119.821 415.539 111.431 405.538 103.599C395.529 95.7766 385.09 88.4938 374.239 81.8698C368.814 78.5578 363.287 75.4105 357.661 72.4736C352.034 69.5367 346.261 66.8651 340.433 64.3216C328.777 59.2621 316.819 54.8248 304.44 51.9062C292.107 48.9784 279.225 47.7158 266.654 49.7286C260.386 50.7442 254.266 52.5924 248.41 55.0535C242.545 57.4963 236.937 60.5339 231.365 63.5988C225.793 66.6638 220.203 69.738 214.338 72.2357C208.483 74.7517 202.353 76.6456 196.058 77.6795C189.764 78.7408 183.35 78.9055 177 78.448C170.633 77.9723 164.338 76.8561 158.144 75.383Z" fill="url(#paint1_linear_4105_298)"/>
<path fill-rule="evenodd" clip-rule="evenodd" d="M421.568 163.792C409.848 157.772 361.284 128.522 346.819 51.0919C346.618 50.0306 345.886 49.134 344.879 48.7497L262.994 17.5784L290.67 413.465C290.67 413.465 389.463 377.636 423.663 167.936C423.938 166.244 423.087 164.579 421.568 163.792Z" fill="url(#paint2_radial_4105_298)"/>
<path fill-rule="evenodd" clip-rule="evenodd" d="M82.3611 165.796C147.796 376.73 265.318 412.412 275.629 415.166C276.105 415.294 276.58 415.34 277.075 415.313C280.03 415.139 291.137 414.416 291.402 413.08C315.465 289.273 304.257 131.916 264.988 20.9727C264.202 18.7495 261.859 17.4869 259.563 18.0175L148.903 43.7634C146.863 44.2392 145.39 46.0233 145.326 48.1184C142.435 135.859 84.2641 164.871 82.416 165.768L82.3611 165.796Z" fill="url(#paint3_linear_4105_298)"/>
<path fill-rule="evenodd" clip-rule="evenodd" d="M95.6916 161.788C104.658 156.967 151.191 128.055 153.048 46.1422C153.066 45.2273 153.698 44.4313 154.585 44.2026L261.795 17.5143C262.811 17.2582 263.854 17.8163 264.211 18.7952C304.586 131.138 316.48 287.7 291.411 412.97C291.402 413.025 291.347 413.062 291.292 413.053C287.248 412.065 162.225 379.85 94.7126 164.194C94.4198 163.261 94.8315 162.255 95.6916 161.788Z" fill="url(#paint4_radial_4105_298)"/>
<path fill-rule="evenodd" clip-rule="evenodd" d="M140.98 163.215C141.337 164.377 141.712 165.567 142.069 166.701C197.376 340.875 299.435 364.507 299.435 364.507C299.435 364.507 314.952 358.871 334.678 338.011C359.701 311.497 391.476 260.353 406.673 164.899C406.673 164.899 357.176 144.02 344.312 71.9704L273.836 46.316L188.291 68.4388C188.236 71.0189 188.163 73.5166 188.016 75.9686C185.665 115.429 170.12 138.513 157.531 150.891C148.492 159.803 140.98 163.215 140.98 163.215Z" fill="url(#paint5_radial_4105_298)"/>
<path fill-rule="evenodd" clip-rule="evenodd" d="M142.334 166.701C197.641 340.875 299.701 364.507 299.701 364.507C299.701 364.507 315.218 358.871 334.943 338.011C358.274 309.374 384.944 259.52 398.466 174.56C398.466 174.56 348.969 153.682 336.105 81.632L265.629 55.9776L188.272 75.9778C185.921 115.438 170.377 138.522 157.787 150.901C152.343 158.11 146.808 163.234 142.334 166.701Z" fill="url(#paint6_radial_4105_298)"/>
<path opacity="0.86" fill-rule="evenodd" clip-rule="evenodd" d="M82.3611 165.796L94.1453 162.584C156.708 128.357 153.048 44.6051 153.048 44.6051H148.858C146.927 44.6051 145.344 46.133 145.28 48.0544C142.416 135.859 84.2092 164.89 82.3611 165.796Z" fill="url(#paint7_radial_4105_298)"/>
<g style="mix-blend-mode:screen" opacity="0.86">
<path fill-rule="evenodd" clip-rule="evenodd" d="M299.426 364.507C299.426 364.507 379.537 335.458 406.664 164.908C406.664 164.908 357.167 144.03 344.303 71.9796L273.827 46.3252C327.67 174.588 299.426 364.507 299.426 364.507Z" fill="url(#paint8_radial_4105_298)"/>
</g>
<path fill-rule="evenodd" clip-rule="evenodd" d="M345.895 241.99L355.648 222.832C356.124 221.889 355.877 220.737 355.053 220.078L313.049 186.335L257.907 143.398C257.01 142.703 255.729 142.785 254.933 143.6L247.202 151.514C246.324 152.41 246.361 153.865 247.285 154.716L317.688 219.73L342.372 242.612C343.47 243.628 345.218 243.317 345.895 241.99Z" fill="white"/>
<path fill-rule="evenodd" clip-rule="evenodd" d="M246.763 246.986L259.188 259.41C260.908 261.13 263.735 260.966 265.245 259.063L304.906 209.144L345.511 157.186C346.746 155.612 346.645 153.371 345.282 151.916L340.131 146.39C338.521 144.661 335.785 144.661 334.175 146.39L271.503 213.792L246.608 241.386C245.171 242.996 245.235 245.458 246.763 246.986Z" fill="white"/>
<defs>
<linearGradient id="paint0_linear_4105_298" x1="39.9521" y1="303.356" x2="468.652" y2="97.2817" gradientUnits="userSpaceOnUse">
<stop offset="0.00571309" stop-color="white"/>
<stop offset="1" stop-color="#DEFFFF"/>
</linearGradient>
<linearGradient id="paint1_linear_4105_298" x1="68.7131" y1="278.451" x2="451.889" y2="123.757" gradientUnits="userSpaceOnUse">
<stop offset="8.09824e-07" stop-color="#DBFAFA"/>
<stop offset="0.9898" stop-color="#D1FAFA"/>
</linearGradient>
<radialGradient id="paint2_radial_4105_298" cx="0" cy="0" r="1" gradientUnits="userSpaceOnUse" gradientTransform="translate(405.859 144.415) rotate(180) scale(172.705 172.705)">
<stop stop-color="#40DBFF"/>
<stop offset="0.9829" stop-color="#028EB5"/>
</radialGradient>
<linearGradient id="paint3_linear_4105_298" x1="304.006" y1="216.602" x2="82.3588" y2="216.602" gradientUnits="userSpaceOnUse">
<stop stop-color="#40DBFF"/>
<stop offset="0.9944" stop-color="#02819E"/>
</linearGradient>
<radialGradient id="paint4_radial_4105_298" cx="0" cy="0" r="1" gradientUnits="userSpaceOnUse" gradientTransform="translate(283.718 207.831) scale(151.648 151.648)">
<stop stop-color="#40DBFF"/>
<stop offset="0.9829" stop-color="#028EB5"/>
</radialGradient>
<radialGradient id="paint5_radial_4105_298" cx="0" cy="0" r="1" gradientUnits="userSpaceOnUse" gradientTransform="translate(364.482 141.303) rotate(180) scale(122.887 122.887)">
<stop offset="0.0112" stop-color="#40DBFF"/>
<stop offset="1" stop-color="#0BC2E0"/>
</radialGradient>
<radialGradient id="paint6_radial_4105_298" cx="0" cy="0" r="1" gradientUnits="userSpaceOnUse" gradientTransform="translate(277.379 295.965) rotate(180) scale(118.607 118.607)">
<stop stop-color="#40DBFF"/>
<stop offset="0.9888" stop-color="#0BC2E0"/>
</radialGradient>
<radialGradient id="paint7_radial_4105_298" cx="0" cy="0" r="1" gradientUnits="userSpaceOnUse" gradientTransform="translate(86.7522 156.387) rotate(180) scale(113.311 113.311)">
<stop stop-color="#40DBFF"/>
<stop offset="0.2148" stop-color="#38D1F5"/>
<stop offset="0.5858" stop-color="#21B5DA"/>
<stop offset="1" stop-color="#028EB5"/>
</radialGradient>
<radialGradient id="paint8_radial_4105_298" cx="0" cy="0" r="1" gradientUnits="userSpaceOnUse" gradientTransform="translate(282.075 339.819) rotate(180) scale(284.197)">
<stop stop-color="#C0A9B1"/>
<stop offset="0.1064" stop-color="#B6A0A7"/>
<stop offset="0.2905" stop-color="#99878D"/>
<stop offset="0.53" stop-color="#6C5F63"/>
<stop offset="0.8126" stop-color="#2D282A"/>
<stop offset="1"/>
</radialGradient>
</defs>
</svg>
