<svg width="541" height="439" viewBox="0 0 541 439" fill="none" xmlns="http://www.w3.org/2000/svg">
<path d="M120.742 46.3984C125.173 46.3984 128.766 42.806 128.766 38.3745C128.766 33.943 125.173 30.3506 120.742 30.3506C116.31 30.3506 112.718 33.943 112.718 38.3745C112.718 42.806 116.31 46.3984 120.742 46.3984Z" fill="url(#paint0_linear_4308_236)"/>
<path d="M120.743 46.3988C125.174 46.3988 128.766 42.8064 128.766 38.375C128.766 33.9435 125.174 30.3511 120.743 30.3511C116.311 30.3511 112.719 33.9435 112.719 38.375C112.719 42.8064 116.311 46.3988 120.743 46.3988Z" fill="white"/>
<path d="M366.005 401.58C373.018 401.58 378.704 395.894 378.704 388.881C378.704 381.867 373.018 376.182 366.005 376.182C358.991 376.182 353.306 381.867 353.306 388.881C353.306 395.894 358.991 401.58 366.005 401.58Z" fill="url(#paint1_linear_4308_236)"/>
<path d="M366.004 401.579C373.017 401.579 378.703 395.894 378.703 388.88C378.703 381.867 373.017 376.181 366.004 376.181C358.99 376.181 353.305 381.867 353.305 388.88C353.305 395.894 358.99 401.579 366.004 401.579Z" fill="white"/>
<path d="M526.354 208.733C530.603 208.733 534.048 205.288 534.048 201.038C534.048 196.789 530.603 193.344 526.354 193.344C522.104 193.344 518.659 196.789 518.659 201.038C518.659 205.288 522.104 208.733 526.354 208.733Z" fill="url(#paint2_linear_4308_236)"/>
<path d="M526.355 208.732C530.604 208.732 534.049 205.287 534.049 201.038C534.049 196.788 530.604 193.343 526.355 193.343C522.105 193.343 518.66 196.788 518.66 201.038C518.66 205.287 522.105 208.732 526.355 208.732Z" fill="white"/>
<g opacity="0.8">
<path d="M132.023 42.2538C139.9 43.6993 147.878 44.7058 155.884 44.8704C163.89 45.0351 171.932 44.3672 179.727 42.5191C187.522 40.6893 195.006 37.6426 202.014 33.7633C209.032 29.8932 215.601 25.282 222.243 20.7897C228.876 16.2975 235.674 11.9699 243.003 8.64873C250.304 5.30012 258.099 3.03112 266.05 1.90576C274.009 0.79871 282.088 0.752964 290.085 1.4483C298.081 2.15279 306.013 3.49773 313.827 5.33672C329.463 8.98725 344.687 14.184 359.591 20.1127C374.541 25.959 388.951 33.1137 402.922 41.0095C416.883 48.9144 430.388 57.6427 443.37 67.0756C456.335 76.5267 468.787 86.7189 480.452 97.7529C492.099 108.805 502.996 120.69 512.493 133.663C521.953 146.628 530.087 160.727 535.274 175.997C537.854 183.618 539.647 191.532 540.398 199.565C541.157 207.589 540.819 215.741 539.291 223.664C537.772 231.597 535.082 239.291 531.431 246.473C527.781 253.674 523.197 260.371 518.019 266.537C507.644 278.898 494.99 289.127 481.577 297.947C474.853 302.347 467.908 306.41 460.818 310.197C453.718 313.976 446.463 317.38 439.409 321.158C425.255 328.642 411.485 336.858 398.237 345.843C384.971 354.809 372.272 364.589 359.975 374.855C347.642 385.075 335.757 395.852 323.077 405.761C316.736 410.692 310.167 415.386 303.223 419.485C296.288 423.584 289.005 427.143 281.411 429.897C266.242 435.496 250.112 437.994 234.064 438.735C226.022 439.119 217.97 439.082 209.947 438.725C201.914 438.414 193.89 437.673 185.912 436.612C169.974 434.453 154.21 430.711 139.104 425.084C124.008 419.476 109.607 411.955 96.4324 402.668C89.845 398.03 83.5504 392.97 77.6217 387.527C71.7021 382.064 66.1211 376.227 60.9061 370.097C50.4851 357.81 41.5555 344.297 34.0714 330.051C26.5874 315.797 20.5581 300.82 15.7456 285.476C10.9423 270.133 7.38321 254.406 5.05016 238.504C2.8818 222.585 1.27154 206.61 0.475559 190.572C-0.292975 174.542 -0.219781 158.43 1.36303 142.438C2.98244 126.472 6.07487 110.534 12.0127 95.5662C14.9862 88.1004 18.6916 80.9 23.2937 74.3034C27.8866 67.7069 33.4218 61.7416 39.7531 56.7827C46.0844 51.8147 53.2024 47.8805 60.7322 45.0809C68.262 42.2538 76.1669 40.5246 84.1359 39.6279C100.11 37.8438 116.277 39.2986 132.023 42.2538ZM131.986 42.4368C116.25 39.5273 100.101 38.1275 84.1634 39.9299C76.2127 40.8448 68.3444 42.6014 60.8603 45.4285C53.3763 48.2373 46.3039 52.1807 40.0276 57.1304C33.7421 62.0709 28.2983 68.0454 23.7603 74.6237C19.2223 81.2019 15.5809 88.3749 12.6623 95.8224C6.84341 110.736 3.85162 126.619 2.33285 142.529C0.832378 158.467 0.823229 174.524 1.66496 190.508C2.53413 206.491 4.20843 222.447 6.44084 238.294C8.82878 254.113 12.4427 269.74 17.2827 284.982C22.1317 300.216 28.2068 315.074 35.6726 329.191C43.1017 343.327 51.9581 356.73 62.2785 368.908C67.4478 374.992 72.9647 380.765 78.8294 386.182C84.7032 391.58 90.9338 396.593 97.4571 401.177C110.504 410.372 124.758 417.82 139.717 423.382C154.676 428.963 170.312 432.66 186.131 434.819C194.045 435.889 202.005 436.639 209.992 436.96C217.98 437.326 225.976 437.371 233.954 437.005C249.892 436.301 265.848 433.858 280.826 428.35C288.319 425.651 295.519 422.147 302.39 418.112C309.27 414.068 315.785 409.43 322.107 404.535C334.733 394.709 346.645 383.949 359.015 373.73C371.357 363.464 384.111 353.665 397.432 344.69C410.735 335.696 424.56 327.471 438.768 319.987C445.859 316.208 453.133 312.796 460.187 309.054C467.25 305.293 474.167 301.268 480.864 296.895C494.222 288.139 506.793 277.992 517.086 265.778C522.218 259.676 526.765 253.061 530.379 245.961C533.993 238.861 536.665 231.276 538.174 223.454C539.693 215.64 540.041 207.598 539.3 199.666C538.568 191.724 536.811 183.893 534.259 176.335C529.135 161.193 521.084 147.159 511.678 134.249C502.236 121.321 491.395 109.464 479.802 98.4208C468.201 87.3868 455.804 77.1854 442.885 67.716C429.958 58.2557 416.499 49.5182 402.583 41.5767C388.658 33.6627 374.294 26.4805 359.381 20.5976C344.513 14.6323 329.316 9.39896 313.717 5.71183C305.922 3.87284 298.008 2.51876 290.03 1.81427C282.061 1.10978 274 1.14638 266.077 2.24428C258.154 3.35134 250.395 5.61119 243.113 8.93235C235.811 12.2352 229.023 16.5353 222.38 21.0276C215.738 25.5016 209.16 30.1219 202.115 33.992C195.088 37.8713 187.577 40.918 179.754 42.7478C171.932 44.596 163.871 45.2456 155.857 45.0809C147.851 44.907 139.873 43.8915 131.986 42.4368Z" fill="white"/>
</g>
<g style="mix-blend-mode:multiply">
<path d="M158.199 75.1086C164.384 76.5816 170.66 77.6978 177 78.1552C183.332 78.6035 189.727 78.448 195.994 77.3867C202.261 76.362 208.373 74.4681 214.21 71.9612C220.057 69.4635 225.638 66.3985 231.219 63.3335C236.79 60.2777 242.399 57.2219 248.273 54.7333C254.137 52.2447 260.276 50.3599 266.571 49.3169C279.197 47.2401 292.152 48.4569 304.54 51.3481C316.974 54.2209 328.996 58.6034 340.698 63.6263C346.544 66.1423 352.345 68.7956 358.017 71.7142C363.69 74.6328 369.243 77.7527 374.696 81.0464C385.611 87.6338 396.124 94.88 406.206 102.675C416.28 110.479 425.941 118.851 434.99 127.845C444.038 136.829 452.465 146.482 459.903 156.875C467.305 167.269 473.727 178.476 478.073 190.553C482.392 202.584 484.496 215.659 482.685 228.468C481.797 234.854 479.967 241.103 477.296 246.967C474.624 252.832 471.138 258.303 467.103 263.308C458.997 273.317 448.896 281.487 438.11 288.34C432.702 291.753 427.121 294.9 421.403 297.755C418.558 299.2 415.657 300.554 412.757 301.881L404.02 305.733C392.428 310.902 381.083 316.629 370.104 322.988C359.124 329.356 348.539 336.373 338.292 343.867C328.017 351.332 318.145 359.347 307.852 366.913C297.587 374.461 286.626 381.442 274.513 385.916C262.436 390.482 249.526 392.44 236.726 392.815C223.899 393.117 211.099 392.165 198.446 390.171C185.802 388.158 173.313 384.919 161.364 380.207C149.425 375.514 138.025 369.365 127.65 361.781C117.265 354.214 107.878 345.285 99.7994 335.312C91.6749 325.367 84.8313 314.415 79.1587 302.924C73.4771 291.423 69.058 279.346 65.6179 267.022C62.2053 254.689 59.7807 242.091 58.3626 229.382C57.6307 223.015 57.283 216.647 56.853 210.306C56.4413 203.948 56.0753 197.589 55.8466 191.212C55.38 178.476 55.3617 165.686 56.423 152.959C57.5026 140.251 59.5611 127.524 63.8155 115.438C64.886 112.419 66.112 109.464 67.4752 106.564C68.8476 103.672 70.4213 100.873 72.1413 98.1737C75.618 92.8031 79.8541 87.8808 84.8678 83.8826C87.3564 81.8698 90.0189 80.0583 92.8368 78.5487C95.6365 77.0116 98.5734 75.6941 101.602 74.6694C107.631 72.5193 113.999 71.4672 120.358 71.0189C126.725 70.5797 133.121 70.9091 139.452 71.641C145.747 72.4004 152.014 73.6081 158.199 75.1086ZM158.135 75.383C151.95 73.91 145.692 72.7389 139.37 72.0253C133.057 71.3299 126.689 71.028 120.358 71.5038C114.036 71.9887 107.732 73.0683 101.766 75.2275C98.7746 76.2522 95.8835 77.5788 93.1204 79.1159C90.3391 80.6255 87.7224 82.4279 85.2796 84.4316C82.8276 86.417 80.5494 88.6311 78.5 91.0373C76.4506 93.4344 74.5384 95.9687 72.8732 98.6586C71.2081 101.339 69.6893 104.121 68.3627 106.994C67.0543 109.876 65.8649 112.812 64.8494 115.804C60.778 127.808 58.8567 140.443 57.9326 153.078C57.0177 165.731 57.1823 178.449 57.7862 191.13C58.0881 197.47 58.5273 203.81 59.003 210.151C59.5154 216.5 59.8905 222.841 60.659 229.117C63.66 254.25 70.4304 279.035 81.6107 301.716C87.2009 313.043 93.9347 323.811 101.913 333.592C109.854 343.391 119.068 352.156 129.251 359.585C139.425 367.032 150.614 373.071 162.352 377.691C174.091 382.339 186.397 385.505 198.867 387.536C211.337 389.549 224.036 390.537 236.653 390.28C249.261 389.951 261.868 388.075 273.662 383.666C285.501 379.338 296.269 372.549 306.498 365.084C316.736 357.609 326.672 349.612 337.011 342.137C347.322 334.635 357.999 327.599 369.07 321.222C380.131 314.854 391.558 309.118 403.224 303.958L411.961 300.133C414.843 298.825 417.725 297.489 420.552 296.062C426.225 293.244 431.76 290.152 437.121 286.785C447.799 280.032 457.78 272.009 465.74 262.219C469.702 257.324 473.124 251.99 475.749 246.272C478.375 240.563 480.168 234.479 481.056 228.257C482.868 215.778 480.855 202.969 476.628 191.102C472.383 179.19 466.06 168.074 458.741 157.744C451.394 147.406 443.023 137.817 434.066 128.814C425.109 119.821 415.529 111.431 405.529 103.599C395.52 95.7766 385.081 88.4938 374.23 81.8698C368.804 78.5578 363.278 75.4105 357.651 72.4736C352.025 69.5367 346.252 66.8651 340.424 64.3216C328.767 59.2621 316.809 54.8248 304.431 51.9062C292.097 48.9784 279.215 47.7158 266.644 49.7286C260.377 50.7442 254.256 52.5924 248.401 55.0535C242.536 57.4963 236.928 60.5339 231.356 63.5988C225.784 66.6638 220.194 69.738 214.329 72.2357C208.474 74.7517 202.344 76.6456 196.049 77.6795C189.754 78.7408 183.341 78.9055 176.991 78.448C170.623 77.9723 164.329 76.8561 158.135 75.383Z" fill="url(#paint3_linear_4308_236)"/>
</g>
<path fill-rule="evenodd" clip-rule="evenodd" d="M421.559 163.792C409.839 157.772 361.275 128.522 346.81 51.0919C346.608 50.0306 345.876 49.134 344.87 48.7497L262.985 17.5784L290.661 413.465C290.661 413.465 389.454 377.636 423.654 167.936C423.928 166.244 423.077 164.579 421.559 163.792Z" fill="url(#paint4_radial_4308_236)"/>
<path fill-rule="evenodd" clip-rule="evenodd" d="M82.3518 165.796C147.787 376.731 265.309 412.412 275.62 415.166C276.095 415.294 276.571 415.34 277.065 415.313C280.02 415.139 291.128 414.416 291.393 413.08C315.455 289.273 304.248 131.916 264.979 20.9727C264.192 18.7495 261.85 17.4869 259.554 18.0175L148.894 43.7634C146.854 44.2392 145.381 46.0233 145.317 48.1184C142.426 135.859 84.2548 164.871 82.4067 165.768L82.3518 165.796Z" fill="url(#paint5_linear_4308_236)"/>
<path fill-rule="evenodd" clip-rule="evenodd" d="M95.6823 161.788C104.648 156.967 151.181 128.055 153.039 46.1422C153.057 45.2273 153.688 44.4313 154.576 44.2026L261.786 17.5143C262.802 17.2582 263.845 17.8163 264.202 18.7952C304.577 131.138 316.471 287.7 291.402 412.97C291.393 413.025 291.338 413.062 291.283 413.053C287.239 412.065 162.215 379.85 94.7033 164.194C94.4105 163.261 94.8223 162.255 95.6823 161.788Z" fill="url(#paint6_radial_4308_236)"/>
<path fill-rule="evenodd" clip-rule="evenodd" d="M140.971 163.215C141.328 164.377 141.703 165.567 142.06 166.701C197.367 340.875 299.426 364.507 299.426 364.507C299.426 364.507 314.943 358.871 334.669 338.011C359.692 311.497 391.467 260.353 406.664 164.899C406.664 164.899 357.167 144.02 344.303 71.9704L273.827 46.316L188.282 68.4388C188.227 71.0189 188.153 73.5166 188.007 75.9686C185.656 115.429 170.111 138.513 157.522 150.891C148.482 159.803 140.971 163.215 140.971 163.215Z" fill="url(#paint7_radial_4308_236)"/>
<path fill-rule="evenodd" clip-rule="evenodd" d="M142.325 166.701C197.632 340.875 299.691 364.507 299.691 364.507C299.691 364.507 315.208 358.871 334.934 338.011C358.265 309.374 384.934 259.52 398.457 174.56C398.457 174.56 348.96 153.682 336.096 81.632L265.62 55.9776L188.263 75.9778C185.912 115.438 170.367 138.522 157.778 150.901C152.334 158.11 146.799 163.234 142.325 166.701Z" fill="url(#paint8_radial_4308_236)"/>
<path opacity="0.86" fill-rule="evenodd" clip-rule="evenodd" d="M82.3518 165.796L94.136 162.584C156.698 128.357 153.039 44.6051 153.039 44.6051H148.848C146.918 44.6051 145.335 46.133 145.271 48.0544C142.407 135.859 84.1999 164.89 82.3518 165.796Z" fill="url(#paint9_radial_4308_236)"/>
<g style="mix-blend-mode:screen" opacity="0.86">
<path fill-rule="evenodd" clip-rule="evenodd" d="M299.417 364.507C299.417 364.507 379.527 335.458 406.655 164.908C406.655 164.908 357.158 144.03 344.294 71.9796L273.817 46.3252C327.66 174.588 299.417 364.507 299.417 364.507Z" fill="url(#paint10_radial_4308_236)"/>
</g>
<path fill-rule="evenodd" clip-rule="evenodd" d="M345.886 241.99L355.639 222.832C356.114 221.889 355.867 220.737 355.044 220.078L313.04 186.335L257.898 143.398C257.001 142.703 255.72 142.785 254.924 143.6L247.193 151.514C246.315 152.41 246.351 153.865 247.275 154.716L317.679 219.73L342.363 242.612C343.461 243.628 345.209 243.317 345.886 241.99Z" fill="white"/>
<path fill-rule="evenodd" clip-rule="evenodd" d="M246.754 246.986L259.179 259.41C260.899 261.13 263.726 260.966 265.235 259.063L304.897 209.144L345.501 157.186C346.736 155.612 346.636 153.371 345.273 151.916L340.122 146.39C338.511 144.661 335.776 144.661 334.165 146.39L271.493 213.792L246.598 241.386C245.162 242.996 245.226 245.458 246.754 246.986Z" fill="white"/>
<defs>
<linearGradient id="paint0_linear_4308_236" x1="113.577" y1="28.3463" x2="126.415" y2="46.3117" gradientUnits="userSpaceOnUse">
<stop offset="8.79085e-07" stop-color="#E6FAFA"/>
<stop offset="0.9943" stop-color="#E4FAFA"/>
</linearGradient>
<linearGradient id="paint1_linear_4308_236" x1="354.661" y1="373.014" x2="374.978" y2="401.447" gradientUnits="userSpaceOnUse">
<stop offset="8.79085e-07" stop-color="#E6FAFA"/>
<stop offset="0.9943" stop-color="#E4FAFA"/>
</linearGradient>
<linearGradient id="paint2_linear_4308_236" x1="519.484" y1="191.431" x2="531.791" y2="208.653" gradientUnits="userSpaceOnUse">
<stop offset="8.79085e-07" stop-color="#E6FAFA"/>
<stop offset="0.9943" stop-color="#E4FAFA"/>
</linearGradient>
<linearGradient id="paint3_linear_4308_236" x1="68.7039" y1="278.451" x2="451.88" y2="123.757" gradientUnits="userSpaceOnUse">
<stop offset="8.09824e-07" stop-color="#DBFAFA"/>
<stop offset="0.9898" stop-color="#D1FAFA"/>
</linearGradient>
<radialGradient id="paint4_radial_4308_236" cx="0" cy="0" r="1" gradientUnits="userSpaceOnUse" gradientTransform="translate(405.85 144.415) rotate(180) scale(172.705 172.705)">
<stop stop-color="#40DBFF"/>
<stop offset="0.9829" stop-color="#028EB5"/>
</radialGradient>
<linearGradient id="paint5_linear_4308_236" x1="303.996" y1="216.602" x2="82.3495" y2="216.602" gradientUnits="userSpaceOnUse">
<stop stop-color="#40DBFF"/>
<stop offset="0.9944" stop-color="#02819E"/>
</linearGradient>
<radialGradient id="paint6_radial_4308_236" cx="0" cy="0" r="1" gradientUnits="userSpaceOnUse" gradientTransform="translate(283.709 207.831) scale(151.648 151.648)">
<stop stop-color="#40DBFF"/>
<stop offset="0.9829" stop-color="#028EB5"/>
</radialGradient>
<radialGradient id="paint7_radial_4308_236" cx="0" cy="0" r="1" gradientUnits="userSpaceOnUse" gradientTransform="translate(364.473 141.303) rotate(180) scale(122.887 122.887)">
<stop offset="0.0112" stop-color="#40DBFF"/>
<stop offset="1" stop-color="#0BC2E0"/>
</radialGradient>
<radialGradient id="paint8_radial_4308_236" cx="0" cy="0" r="1" gradientUnits="userSpaceOnUse" gradientTransform="translate(277.37 295.965) rotate(180) scale(118.607 118.607)">
<stop stop-color="#40DBFF"/>
<stop offset="0.9888" stop-color="#0BC2E0"/>
</radialGradient>
<radialGradient id="paint9_radial_4308_236" cx="0" cy="0" r="1" gradientUnits="userSpaceOnUse" gradientTransform="translate(86.7429 156.387) rotate(180) scale(113.311 113.311)">
<stop stop-color="#40DBFF"/>
<stop offset="0.2148" stop-color="#38D1F5"/>
<stop offset="0.5858" stop-color="#21B5DA"/>
<stop offset="1" stop-color="#028EB5"/>
</radialGradient>
<radialGradient id="paint10_radial_4308_236" cx="0" cy="0" r="1" gradientUnits="userSpaceOnUse" gradientTransform="translate(282.066 339.819) rotate(180) scale(284.197)">
<stop stop-color="#C0A9B1"/>
<stop offset="0.1064" stop-color="#B6A0A7"/>
<stop offset="0.2905" stop-color="#99878D"/>
<stop offset="0.53" stop-color="#6C5F63"/>
<stop offset="0.8126" stop-color="#2D282A"/>
<stop offset="1"/>
</radialGradient>
</defs>
</svg>
