<svg width="541" height="439" viewBox="0 0 541 439" fill="none" xmlns="http://www.w3.org/2000/svg">
<g style="mix-blend-mode:soft-light">
<path d="M120.742 45.4105C125.174 45.4105 128.766 41.8181 128.766 37.3866C128.766 32.9552 125.174 29.3628 120.742 29.3628C116.311 29.3628 112.718 32.9552 112.718 37.3866C112.718 41.8181 116.311 45.4105 120.742 45.4105Z" fill="url(#paint0_linear_2045_72203)"/>
</g>
<g style="mix-blend-mode:soft-light">
<path d="M366.005 400.592C373.018 400.592 378.704 394.906 378.704 387.893C378.704 380.879 373.018 375.194 366.005 375.194C358.991 375.194 353.306 380.879 353.306 387.893C353.306 394.906 358.991 400.592 366.005 400.592Z" fill="url(#paint1_linear_2045_72203)"/>
</g>
<g style="mix-blend-mode:soft-light">
<path d="M526.354 207.745C530.603 207.745 534.048 204.3 534.048 200.05C534.048 195.801 530.603 192.356 526.354 192.356C522.104 192.356 518.659 195.801 518.659 200.05C518.659 204.3 522.104 207.745 526.354 207.745Z" fill="url(#paint2_linear_2045_72203)"/>
</g>
<g style="mix-blend-mode:soft-light" opacity="0.6">
<path d="M144.41 53.9455C242.087 72.3628 215.966 -44.2804 350.834 24.8601C423.762 62.2438 621.422 216.82 440.606 308.65C322.892 368.431 321.355 428.505 214.685 421.533C80.1547 412.741 20.4104 283.142 13.3838 223.901C5.52461 157.56 12.5512 29.0871 144.41 53.9455Z" fill="url(#paint3_linear_2045_72203)"/>
</g>
<g opacity="0.8">
<g style="mix-blend-mode:overlay" opacity="0.8">
<path d="M132.023 41.2659C139.9 42.7115 147.878 43.7179 155.884 43.8826C163.89 44.0473 171.932 43.3794 179.727 41.5312C187.522 39.7014 195.006 36.6547 202.014 32.7754C209.032 28.9053 215.601 24.2941 222.243 19.8019C228.876 15.3096 235.674 10.982 243.003 7.66087C250.304 4.31226 258.099 2.04326 266.05 0.91791C274.009 -0.189144 282.088 -0.23489 290.085 0.460449C298.081 1.16494 306.013 2.50987 313.827 4.34886C329.463 7.9994 344.687 13.1961 359.591 19.1248C374.541 24.9712 388.951 32.1259 402.922 40.0216C416.883 47.9265 430.388 56.6549 443.37 66.0877C456.335 75.5388 468.787 85.7311 480.452 96.765C492.099 107.817 502.996 119.702 512.493 132.676C521.953 145.64 530.087 159.739 535.274 175.009C537.854 182.63 539.647 190.544 540.398 198.577C541.157 206.601 540.819 214.753 539.291 222.676C537.772 230.609 535.082 238.303 531.431 245.485C527.781 252.686 523.197 259.383 518.019 265.55C507.644 277.91 494.99 288.139 481.577 296.959C474.853 301.36 467.908 305.422 460.818 309.21C453.718 312.988 446.463 316.392 439.409 320.17C425.255 327.654 411.485 335.87 398.237 344.855C384.971 353.821 372.272 363.602 359.975 373.867C347.642 384.087 335.757 394.864 323.077 404.773C316.736 409.704 310.167 414.398 303.223 418.497C296.288 422.596 289.005 426.155 281.411 428.909C266.242 434.508 250.112 437.006 234.064 437.747C226.022 438.131 217.97 438.094 209.947 437.738C201.914 437.427 193.89 436.685 185.912 435.624C169.974 433.465 154.21 429.723 139.104 424.096C124.008 418.488 109.607 410.967 96.4324 401.681C89.845 397.042 83.5504 391.982 77.6217 386.539C71.7021 381.077 66.1211 375.239 60.9061 369.109C50.4851 356.822 41.5555 343.309 34.0714 329.063C26.5874 314.809 20.5581 299.832 15.7456 284.488C10.9423 269.145 7.38321 253.418 5.05016 237.516C2.8818 221.597 1.27154 205.622 0.475559 189.584C-0.292975 173.554 -0.219781 157.443 1.36303 141.45C2.98244 125.484 6.07487 109.546 12.0127 94.5783C14.9862 87.1126 18.6916 79.9122 23.2937 73.3156C27.8866 66.719 33.4218 60.7537 39.7531 55.7949C46.0844 50.8268 53.2024 46.8927 60.7322 44.093C68.262 41.2659 76.1669 39.5367 84.1359 38.6401C100.11 36.856 116.277 38.3107 132.023 41.2659ZM131.986 41.4489C116.25 38.5394 100.101 37.1396 84.1634 38.942C76.2127 39.8569 68.3444 41.6136 60.8603 44.4407C53.3763 47.2495 46.3039 51.1928 40.0276 56.1425C33.7421 61.0831 28.2983 67.0575 23.7603 73.6358C19.2223 80.2141 15.5809 87.3871 12.6623 94.8345C6.84341 109.748 3.85162 125.631 2.33285 141.541C0.832378 157.479 0.823229 173.536 1.66496 189.52C2.53413 205.503 4.20843 221.46 6.44084 237.306C8.82878 253.125 12.4427 268.752 17.2827 283.994C22.1317 299.228 28.2068 314.086 35.6726 328.203C43.1017 342.339 51.9581 355.742 62.2785 367.92C67.4478 374.004 72.9647 379.777 78.8294 385.194C84.7032 390.592 90.9338 395.606 97.4571 400.189C110.504 409.384 124.758 416.832 139.717 422.394C154.676 427.975 170.312 431.672 186.131 433.831C194.045 434.901 202.005 435.652 209.992 435.972C217.98 436.338 225.976 436.384 233.954 436.018C249.892 435.313 265.848 432.87 280.826 427.362C288.319 424.663 295.519 421.159 302.39 417.124C309.27 413.081 315.785 408.442 322.107 403.547C334.733 393.721 346.645 382.961 359.015 372.742C371.357 362.476 384.111 352.677 397.432 343.702C410.735 334.708 424.56 326.483 438.768 318.999C445.859 315.221 453.133 311.808 460.187 308.066C467.25 304.306 474.167 300.28 480.864 295.907C494.222 287.151 506.793 277.004 517.086 264.79C522.218 258.688 526.765 252.073 530.379 244.973C533.993 237.873 536.665 230.289 538.174 222.466C539.693 214.653 540.041 206.61 539.3 198.678C538.568 190.736 536.811 182.905 534.259 175.348C529.135 160.206 521.084 146.171 511.678 133.261C502.236 120.333 491.395 108.476 479.802 97.4329C468.201 86.399 455.804 76.1976 442.885 66.7282C429.958 57.2679 416.499 48.5304 402.583 40.5889C388.658 32.6748 374.294 25.4927 359.381 19.6097C344.513 13.6445 329.316 8.41111 313.717 4.72398C305.922 2.88499 298.008 1.53091 290.03 0.826418C282.061 0.121929 274 0.158525 266.077 1.25643C258.154 2.36348 250.395 4.62334 243.113 7.9445C235.811 11.2474 229.023 15.5475 222.38 20.0398C215.738 24.5137 209.16 29.1341 202.115 33.0042C195.088 36.8834 187.577 39.9301 179.754 41.76C171.932 43.6081 163.871 44.2577 155.857 44.093C147.851 43.9192 139.873 42.9036 131.986 41.4489Z" fill="url(#paint4_linear_2045_72203)"/>
</g>
</g>
<g style="mix-blend-mode:overlay" opacity="0.5">
<path d="M158.199 74.1208C164.383 75.5938 170.66 76.71 177 77.1674C183.331 77.6158 189.727 77.4602 195.994 76.3989C202.261 75.3742 208.373 73.4803 214.21 70.9734C220.056 68.4757 225.637 65.4107 231.218 62.3457C236.79 59.2899 242.399 56.2341 248.273 53.7455C254.137 51.2569 260.276 49.3722 266.571 48.3291C279.197 46.2523 292.152 47.4691 304.54 50.3603C316.974 53.2331 328.996 57.6156 340.698 62.6385C346.544 65.1545 352.345 67.8078 358.017 70.7264C363.69 73.645 369.243 76.7649 374.696 80.0586C385.611 86.646 396.124 93.8922 406.206 101.687C416.279 109.492 425.941 117.863 434.99 126.857C444.038 135.841 452.465 145.494 459.903 155.887C467.305 166.281 473.727 177.488 478.073 189.565C482.392 201.597 484.496 214.671 482.684 227.48C481.797 233.866 479.967 240.115 477.295 245.979C474.624 251.844 471.138 257.315 467.103 262.32C458.997 272.329 448.896 280.499 438.109 287.352C432.702 290.765 427.121 293.912 421.403 296.767C418.558 298.212 415.657 299.566 412.757 300.893L404.019 304.745C392.427 309.914 381.082 315.642 370.103 322C359.124 328.368 348.539 335.386 338.292 342.879C328.017 350.344 318.145 358.359 307.852 365.926C297.587 373.474 286.626 380.455 274.512 384.928C262.435 389.494 249.526 391.452 236.726 391.827C223.899 392.129 211.099 391.177 198.446 389.183C185.802 387.17 173.313 383.931 161.364 379.219C149.424 374.526 138.025 368.378 127.649 360.793C117.265 353.226 107.878 344.297 99.7992 334.324C91.6747 324.379 84.8311 313.427 79.1586 301.936C73.4769 290.435 69.0578 278.359 65.6177 266.035C62.2051 253.701 59.7805 241.103 58.3624 228.395C57.6305 222.027 57.2828 215.659 56.8528 209.319C56.4411 202.96 56.0751 196.601 55.8464 190.224C55.3798 177.488 55.3615 164.698 56.4228 151.971C57.5024 139.263 59.561 126.537 63.8153 114.45C64.8858 111.431 66.1118 108.476 67.475 105.576C68.8474 102.685 70.4211 99.8849 72.1411 97.1859C75.6178 91.8153 79.8539 86.893 84.8677 82.8948C87.3562 80.882 90.0187 79.0705 92.8366 77.5609C95.6363 76.0238 98.5732 74.7063 101.602 73.6816C107.631 71.5315 113.999 70.4794 120.357 70.0311C126.725 69.5919 133.121 69.9213 139.452 70.6532C145.746 71.4126 152.014 72.6203 158.199 74.1208ZM158.135 74.3952C151.95 72.9222 145.692 71.7511 139.369 71.0375C133.057 70.3421 126.689 70.0402 120.357 70.516C114.035 71.0009 107.732 72.0805 101.766 74.2397C98.7745 75.2644 95.8833 76.591 93.1203 78.1281C90.3389 79.6377 87.7222 81.4401 85.2794 83.4438C82.8274 85.4292 80.5492 87.6433 78.4998 90.0495C76.4504 92.4466 74.5382 94.9809 72.8731 97.6708C71.2079 100.352 69.6891 103.133 68.3625 106.006C67.0542 108.888 65.8648 111.825 64.8492 114.816C60.7778 126.82 58.8565 139.455 57.9324 152.09C57.0175 164.744 57.1822 177.461 57.786 190.142C58.0879 196.482 58.5271 202.823 59.0029 209.163C59.5152 215.513 59.8903 221.853 60.6589 228.129C63.6598 253.262 70.4302 278.047 81.6106 300.728C87.2007 312.055 93.9345 322.824 101.913 332.604C109.854 342.403 119.067 351.168 129.25 358.597C139.424 366.045 150.614 372.083 162.352 376.703C174.091 381.351 186.396 384.517 198.867 386.548C211.337 388.561 224.036 389.549 236.653 389.293C249.261 388.963 261.868 387.088 273.662 382.678C285.501 378.35 296.269 371.561 306.498 364.096C316.736 356.621 326.672 348.624 337.011 341.15C347.322 333.647 357.999 326.611 369.069 320.234C380.131 313.867 391.558 308.13 403.223 302.97L411.961 299.146C414.843 297.837 417.725 296.501 420.552 295.074C426.225 292.256 431.76 289.164 437.121 285.797C447.798 279.045 457.78 271.021 465.74 261.231C469.702 256.336 473.123 251.002 475.749 245.284C478.375 239.575 480.168 233.491 481.056 227.269C482.867 214.79 480.855 201.981 476.628 190.114C472.382 178.202 466.06 167.086 458.741 156.756C451.394 146.418 443.023 136.829 434.065 127.827C425.108 118.833 415.529 110.443 405.529 102.611C395.52 94.7888 385.081 87.506 374.23 80.882C368.804 77.57 363.278 74.4227 357.651 71.4858C352.025 68.5489 346.251 65.8773 340.423 63.3338C328.767 58.2743 316.809 53.837 304.43 50.9184C292.097 47.9906 279.215 46.728 266.644 48.7409C260.377 49.7564 254.256 51.6046 248.401 54.0657C242.536 56.5085 236.928 59.5461 231.356 62.6111C225.784 65.676 220.194 68.7502 214.329 71.2479C208.473 73.7639 202.343 75.6578 196.049 76.6917C189.754 77.753 183.341 77.9177 176.991 77.4602C170.623 76.9845 164.329 75.8683 158.135 74.3952Z" fill="url(#paint5_linear_2045_72203)"/>
</g>
<path fill-rule="evenodd" clip-rule="evenodd" d="M421.559 162.804C409.839 156.784 361.275 127.534 346.81 50.1041C346.609 49.0428 345.877 48.1462 344.87 47.7619L262.985 16.5906L290.661 412.477C290.661 412.477 389.454 376.648 423.654 166.949C423.929 165.256 423.078 163.591 421.559 162.804Z" fill="url(#paint6_radial_2045_72203)"/>
<path fill-rule="evenodd" clip-rule="evenodd" d="M82.3521 164.808C147.787 375.743 265.309 411.425 275.62 414.178C276.096 414.307 276.571 414.352 277.065 414.325C280.021 414.151 291.128 413.428 291.393 412.092C315.456 288.285 304.248 130.928 264.979 19.9849C264.193 17.7616 261.85 16.499 259.554 17.0297L148.894 42.7755C146.854 43.2513 145.381 45.0354 145.317 47.1306C142.426 134.871 84.2551 163.884 82.407 164.78L82.3521 164.808Z" fill="url(#paint7_linear_2045_72203)"/>
<path fill-rule="evenodd" clip-rule="evenodd" d="M95.682 160.8C104.648 155.979 151.181 127.067 153.038 45.1543C153.057 44.2394 153.688 43.4434 154.575 43.2147L261.786 16.5264C262.801 16.2702 263.844 16.8284 264.201 17.8073C304.577 130.15 316.471 286.712 291.402 411.983C291.393 412.037 291.338 412.074 291.283 412.065C287.239 411.077 162.215 378.862 94.7031 163.207C94.4103 162.273 94.822 161.267 95.682 160.8Z" fill="url(#paint8_radial_2045_72203)"/>
<path fill-rule="evenodd" clip-rule="evenodd" d="M140.971 162.228C141.328 163.39 141.703 164.579 142.059 165.713C197.366 339.887 299.426 363.519 299.426 363.519C299.426 363.519 314.943 357.883 334.669 337.023C359.692 310.509 391.467 259.365 406.664 163.911C406.664 163.911 357.166 143.033 344.303 70.9825L273.826 45.3281L188.281 67.4509C188.226 70.031 188.153 72.5287 188.007 74.9807C185.655 114.441 170.111 137.525 157.522 149.904C148.482 158.815 140.971 162.228 140.971 162.228Z" fill="url(#paint9_radial_2045_72203)"/>
<path fill-rule="evenodd" clip-rule="evenodd" d="M142.325 165.713C197.632 339.887 299.691 363.519 299.691 363.519C299.691 363.519 315.208 357.883 334.934 337.023C358.264 308.386 384.934 258.532 398.457 173.573C398.457 173.573 348.96 152.694 336.096 80.6441L265.619 54.9897L188.263 74.9899C185.912 114.45 170.367 137.534 157.778 149.913C152.334 157.122 146.799 162.246 142.325 165.713Z" fill="url(#paint10_radial_2045_72203)"/>
<path opacity="0.86" fill-rule="evenodd" clip-rule="evenodd" d="M299.417 363.519C299.417 363.519 379.527 334.471 406.655 163.92C406.655 163.92 357.158 143.042 344.294 70.9918L273.817 45.3374C327.66 173.6 299.417 363.519 299.417 363.519Z" fill="url(#paint11_radial_2045_72203)"/>
<path opacity="0.86" fill-rule="evenodd" clip-rule="evenodd" d="M82.3521 164.808L94.1362 161.596C156.699 127.369 153.039 43.6172 153.039 43.6172H148.848C146.918 43.6172 145.335 45.1451 145.271 47.0664C142.407 134.871 84.2002 163.902 82.3521 164.808Z" fill="url(#paint12_radial_2045_72203)"/>
<path fill-rule="evenodd" clip-rule="evenodd" d="M345.886 241.002L355.639 221.844C356.114 220.901 355.867 219.749 355.044 219.09L313.04 185.348L257.898 142.41C257.001 141.715 255.72 141.797 254.924 142.612L247.193 150.526C246.315 151.422 246.351 152.877 247.275 153.728L317.679 218.742L342.363 241.624C343.461 242.64 345.209 242.329 345.886 241.002Z" fill="white"/>
<path fill-rule="evenodd" clip-rule="evenodd" d="M246.754 245.998L259.179 258.422C260.899 260.142 263.726 259.978 265.235 258.075L304.897 208.157L345.501 156.198C346.736 154.625 346.636 152.383 345.273 150.928L340.122 145.402C338.511 143.673 335.776 143.673 334.165 145.402L271.493 212.804L246.598 240.398C245.162 242.009 245.226 244.47 246.754 245.998Z" fill="white"/>
<defs>
<linearGradient id="paint0_linear_2045_72203" x1="113.577" y1="27.3585" x2="126.415" y2="45.3239" gradientUnits="userSpaceOnUse">
<stop offset="8.79085e-07" stop-color="#E6FAFA"/>
<stop offset="0.9943" stop-color="#E4FAFA"/>
</linearGradient>
<linearGradient id="paint1_linear_2045_72203" x1="354.661" y1="372.026" x2="374.978" y2="400.459" gradientUnits="userSpaceOnUse">
<stop offset="8.79085e-07" stop-color="#E6FAFA"/>
<stop offset="0.9943" stop-color="#E4FAFA"/>
</linearGradient>
<linearGradient id="paint2_linear_2045_72203" x1="519.484" y1="190.443" x2="531.791" y2="207.665" gradientUnits="userSpaceOnUse">
<stop offset="8.79085e-07" stop-color="#E6FAFA"/>
<stop offset="0.9943" stop-color="#E4FAFA"/>
</linearGradient>
<linearGradient id="paint3_linear_2045_72203" x1="39.9428" y1="302.368" x2="468.643" y2="96.2938" gradientUnits="userSpaceOnUse">
<stop offset="0.00571309" stop-color="#DFFFFF"/>
<stop offset="1" stop-color="#DEFFFF"/>
</linearGradient>
<linearGradient id="paint4_linear_2045_72203" x1="22.8537" y1="305.649" x2="494.569" y2="85.8768" gradientUnits="userSpaceOnUse">
<stop offset="8.79085e-07" stop-color="#E6FAFA"/>
<stop offset="0.9943" stop-color="#E4FAFA"/>
</linearGradient>
<linearGradient id="paint5_linear_2045_72203" x1="68.7037" y1="277.463" x2="451.88" y2="122.769" gradientUnits="userSpaceOnUse">
<stop offset="8.09824e-07" stop-color="#DBFAFA"/>
<stop offset="0.9898" stop-color="#D1FAFA"/>
</linearGradient>
<radialGradient id="paint6_radial_2045_72203" cx="0" cy="0" r="1" gradientUnits="userSpaceOnUse" gradientTransform="translate(405.85 143.427) rotate(180) scale(172.705)">
<stop stop-color="#40DBFF"/>
<stop offset="0.9829" stop-color="#028EB5"/>
</radialGradient>
<linearGradient id="paint7_linear_2045_72203" x1="303.997" y1="215.614" x2="82.3498" y2="215.614" gradientUnits="userSpaceOnUse">
<stop stop-color="#40DBFF"/>
<stop offset="0.9944" stop-color="#02819E"/>
</linearGradient>
<radialGradient id="paint8_radial_2045_72203" cx="0" cy="0" r="1" gradientUnits="userSpaceOnUse" gradientTransform="translate(283.709 206.843) scale(151.648)">
<stop stop-color="#40DBFF"/>
<stop offset="0.9829" stop-color="#028EB5"/>
</radialGradient>
<radialGradient id="paint9_radial_2045_72203" cx="0" cy="0" r="1" gradientUnits="userSpaceOnUse" gradientTransform="translate(364.473 140.315) rotate(180) scale(122.887)">
<stop offset="0.0112" stop-color="#40DBFF"/>
<stop offset="1" stop-color="#0BC2E0"/>
</radialGradient>
<radialGradient id="paint10_radial_2045_72203" cx="0" cy="0" r="1" gradientUnits="userSpaceOnUse" gradientTransform="translate(277.37 294.977) rotate(180) scale(118.607)">
<stop stop-color="#40DBFF"/>
<stop offset="0.9888" stop-color="#0BC2E0"/>
</radialGradient>
<radialGradient id="paint11_radial_2045_72203" cx="0" cy="0" r="1" gradientUnits="userSpaceOnUse" gradientTransform="translate(282.066 338.831) rotate(180) scale(284.197)">
<stop stop-color="#6EE4FF"/>
<stop offset="1" stop-color="#31D9F4"/>
</radialGradient>
<radialGradient id="paint12_radial_2045_72203" cx="0" cy="0" r="1" gradientUnits="userSpaceOnUse" gradientTransform="translate(86.7431 155.399) rotate(180) scale(113.311)">
<stop stop-color="#40DBFF"/>
<stop offset="0.2148" stop-color="#38D1F5"/>
<stop offset="0.5858" stop-color="#21B5DA"/>
<stop offset="1" stop-color="#028EB5"/>
</radialGradient>
</defs>
</svg>
