<svg width="505" height="421" viewBox="0 0 505 421" fill="none" xmlns="http://www.w3.org/2000/svg">
<g style="mix-blend-mode:soft-light">
<path d="M383.439 46.7287C387.871 46.7287 391.465 43.1363 391.465 38.7048C391.465 34.2734 387.871 30.681 383.439 30.681C379.006 30.681 375.412 34.2734 375.412 38.7048C375.412 43.1363 379.006 46.7287 383.439 46.7287Z" fill="url(#paint0_linear_1825_51498)"/>
</g>
<g style="mix-blend-mode:soft-light">
<path d="M159.703 412.398C166.719 412.398 172.406 406.713 172.406 399.699C172.406 392.686 166.719 387 159.703 387C152.687 387 147 392.686 147 399.699C147 406.713 152.687 412.398 159.703 412.398Z" fill="url(#paint1_linear_1825_51498)"/>
</g>
<g style="mix-blend-mode:soft-light">
<path d="M476.012 373.182C480.263 373.182 483.709 369.737 483.709 365.487C483.709 361.238 480.263 357.793 476.012 357.793C471.761 357.793 468.315 361.238 468.315 365.487C468.315 369.737 471.761 373.182 476.012 373.182Z" fill="url(#paint2_linear_1825_51498)"/>
</g>
<g style="mix-blend-mode:soft-light" opacity="0.6">
<path d="M371.44 51.9346C273.731 70.3519 299.861 -46.2913 164.948 22.8492C92.0056 60.2421 -105.727 214.818 75.1473 306.649C192.899 366.429 194.437 426.503 301.142 419.531C435.716 410.739 495.489 281.141 502.508 221.899C510.37 155.549 503.341 27.0762 371.44 51.9346Z" fill="url(#paint3_linear_1825_51498)"/>
</g>
<g style="mix-blend-mode:overlay" opacity="0.5">
<path d="M357.712 72.3831C351.516 73.8652 345.219 74.9814 338.858 75.4389C332.507 75.8872 326.082 75.7317 319.794 74.6704C313.498 73.6365 307.366 71.7426 301.508 69.2266C295.642 66.7288 290.05 63.6547 284.476 60.5897C278.902 57.5248 273.301 54.4872 267.426 52.0444C261.568 49.5832 255.445 47.7351 249.176 46.7195C236.601 44.6976 223.715 45.9602 211.378 48.897C199.004 51.8065 187.033 56.253 175.373 61.3125C169.543 63.856 163.777 66.5276 158.139 69.4645C152.502 72.4014 146.974 75.5487 141.556 78.8607C130.71 85.4847 120.259 92.7675 110.246 100.59C100.243 108.422 90.6604 116.812 81.7004 125.805C72.7404 134.799 64.3662 144.396 57.017 154.735C49.6952 165.065 43.3711 176.181 39.1245 188.093C34.8962 199.96 32.8827 212.778 34.6948 225.248C35.5826 231.469 37.3764 237.554 40.0031 243.263C42.6297 248.972 46.0435 254.315 50.0156 259.21C57.9871 268.999 67.963 277.023 78.6436 283.775C84.0067 287.142 89.5347 290.235 95.2182 293.053C98.0462 294.48 100.92 295.816 103.812 297.124L112.552 300.948C124.221 306.109 135.652 311.836 146.717 318.213C157.782 324.59 168.463 331.626 178.787 339.128C189.129 346.603 199.068 354.599 209.309 362.074C219.541 369.54 230.313 376.338 242.156 380.656C253.954 385.075 266.574 386.951 279.177 387.271C291.798 387.527 304.501 386.539 316.975 384.526C329.45 382.495 341.759 379.33 353.502 374.682C365.244 370.062 376.437 364.023 386.614 356.576C396.801 349.147 406.017 340.382 413.961 330.583C421.942 320.802 428.678 310.034 434.27 298.707C445.454 276.026 452.226 251.25 455.228 226.108C455.988 219.832 456.372 213.491 456.885 207.142C457.37 200.801 457.8 194.461 458.102 188.12C458.706 175.44 458.862 162.722 457.956 150.069C457.031 137.434 455.109 124.799 451.036 112.795C450.011 109.803 448.831 106.866 447.522 103.984C446.195 101.112 444.676 98.3302 443.01 95.6495C441.344 92.9596 439.432 90.4344 437.381 88.0282C435.331 85.622 433.052 83.4079 430.6 81.4225C428.156 79.4188 425.539 77.6256 422.756 76.1068C419.992 74.5697 417.1 73.2522 414.107 72.2184C408.149 70.0592 401.834 68.9796 395.51 68.4946C389.177 68.0189 382.798 68.3117 376.492 69.0162C370.159 69.7389 363.899 70.91 357.712 72.3831ZM357.648 72.1086C363.835 70.599 370.104 69.3913 376.437 68.641C382.761 67.9091 389.168 67.5706 395.538 68.0189C401.898 68.4672 408.259 69.5194 414.3 71.6694C417.329 72.6941 420.258 74.0116 423.067 75.5487C425.886 77.0675 428.55 78.8698 431.039 80.8827C436.054 84.8809 440.292 89.8031 443.77 95.1737C445.49 97.8727 447.055 100.672 448.437 103.564C449.801 106.464 451.027 109.419 452.098 112.438C456.354 124.524 458.413 137.251 459.493 149.959C460.555 162.686 460.536 175.476 460.07 188.212C459.832 194.58 459.475 200.948 459.063 207.306C458.633 213.647 458.285 220.015 457.553 226.382C456.134 239.091 453.718 251.689 450.295 264.022C446.854 276.346 442.433 288.423 436.75 299.924C431.076 311.415 424.221 322.367 416.103 332.312C408.012 342.285 398.622 351.214 388.243 358.781C377.865 366.365 366.47 372.514 354.518 377.207C342.574 381.919 330.081 385.167 317.424 387.171C304.766 389.165 291.962 390.117 279.131 389.815C266.327 389.44 253.414 387.482 241.333 382.916C229.206 378.442 218.251 371.461 207.982 363.913C197.686 356.347 187.811 348.332 177.533 340.866C167.282 333.373 156.693 326.356 145.711 319.988C134.728 313.629 123.379 307.893 111.784 302.733L103.043 298.881C100.133 297.554 97.2408 296.2 94.3945 294.754C88.6743 291.9 83.0915 288.753 77.6826 285.34C66.9013 278.478 56.7882 270.317 48.6793 260.308C44.6432 255.303 41.1654 249.832 38.4838 243.967C35.8114 238.103 33.9809 231.854 33.0932 225.468C31.2719 212.668 33.3769 199.584 37.7059 187.553C42.0532 175.476 48.4688 164.269 55.8821 153.875C63.3228 143.482 71.752 133.838 80.8035 124.854C89.855 115.86 99.5105 107.498 109.596 99.6843C119.682 91.8892 130.198 84.643 141.116 78.0556C146.571 74.7619 152.136 71.6328 157.801 68.7234C163.475 65.8048 169.268 63.1515 175.126 60.6355C186.831 55.6217 198.857 51.2301 211.295 48.3572C223.687 45.4661 236.647 44.2493 249.277 46.3261C255.573 47.3691 261.715 49.2539 267.581 51.7425C273.457 54.231 279.058 57.2777 284.641 60.3427C290.214 63.4077 295.806 66.4727 301.655 68.9704C307.494 71.4773 313.607 73.3712 319.877 74.3959C326.146 75.4572 332.543 75.6127 338.877 75.1644C345.182 74.707 351.47 73.5908 357.648 72.1086Z" fill="url(#paint4_linear_1825_51498)"/>
</g>
<path d="M446.103 342.306L380.726 347.701C334.166 351.539 287.815 357.618 241.833 365.916L126.531 386.718C107.936 390.073 90.1616 377.642 86.9433 359.027L45.8307 121.549C42.1075 100.063 57.2316 79.8712 78.908 77.3997L190.003 64.7481C228.371 61.2671 266.833 58.8272 305.337 57.4495L437.384 54.2734C448.174 54.0105 457.188 62.4554 457.63 73.2456L467.716 317.854C468.242 330.474 458.702 341.275 446.103 342.306Z" fill="#40DBFF" stroke="#028EB5" stroke-width="0.5" stroke-miterlimit="10"/>
<path d="M457.777 76.6635L457.64 73.2351C457.64 73.2035 457.63 73.172 457.63 73.1404L457.777 76.6635Z" fill="#028EB5"/>
<path d="M97.5027 76.0536C76.8991 78.4409 60.3026 89.1154 66.1819 119.824L106.001 355.904C109.124 374.413 126.058 386.812 143.727 383.542L144.452 383.489L126.531 386.728C107.936 390.083 90.1616 377.652 86.9433 359.038L45.8307 121.549C42.1075 100.063 57.2316 79.8712 78.908 77.3997L88.3736 76.653" fill="#028EB5"/>
<path d="M444.241 324.606L377.855 330.085C337.637 333.409 297.607 338.667 257.894 345.85L136.565 367.798C131.716 368.671 127.068 365.432 126.237 360.573L83.4939 113.094C82.053 104.754 87.9007 96.9083 96.2725 95.9618L212.259 82.7317C245.651 79.7029 279.118 77.5785 312.616 76.3796L429.938 73.5822C437.994 73.3929 444.725 79.7239 445.062 87.8008L454.38 313.132C454.622 319.064 450.152 324.122 444.241 324.606Z" fill="#B6F1FF"/>
<path d="M444.252 87.8008C444.073 83.5415 442.117 79.7765 439.13 77.1894L439.992 80.8808C439.992 80.8808 432.556 98.2649 432.314 92.67C432.199 89.8305 360.007 89.8726 291.318 93.9531C223.375 97.981 161.196 106.731 159.734 106.731C158.63 106.731 157.705 106.279 156.989 105.7C155.843 104.796 155.17 103.429 154.97 101.977C154.686 99.8424 154.118 95.9407 153.55 93.6796C153.235 92.4281 152.393 91.5763 151.489 91.0084C150.153 90.1776 148.554 89.8936 146.998 90.0724L95.473 95.9618C87.0906 96.9188 81.2535 104.754 82.6944 113.094L125.437 360.573C126.279 365.432 130.917 368.682 135.765 367.798L257.094 345.85C296.808 338.667 336.837 333.409 377.056 330.085L443.442 324.606C449.353 324.122 453.822 319.053 453.57 313.132L444.252 87.8008Z" fill="#CCFAFF"/>
<path d="M103.467 112.315C106.801 112.315 109.504 109.613 109.504 106.279C109.504 102.945 106.801 100.242 103.467 100.242C100.133 100.242 97.4297 102.945 97.4297 106.279C97.4297 109.613 100.133 112.315 103.467 112.315Z" fill="#40DBFF" stroke="#028EB5" stroke-width="0.5" stroke-miterlimit="10"/>
<path d="M120.39 109.392C123.294 109.392 125.648 107.037 125.648 104.133C125.648 101.229 123.294 98.8749 120.39 98.8749C117.485 98.8749 115.131 101.229 115.131 104.133C115.131 107.037 117.485 109.392 120.39 109.392Z" fill="#40DBFF" stroke="#028EB5" stroke-width="0.5" stroke-miterlimit="10"/>
<path d="M135.324 106.847C137.938 106.847 140.056 104.728 140.056 102.114C140.056 99.5004 137.938 97.3815 135.324 97.3815C132.71 97.3815 130.591 99.5004 130.591 102.114C130.591 104.728 132.71 106.847 135.324 106.847Z" fill="#40DBFF" stroke="#028EB5" stroke-width="0.5" stroke-miterlimit="10"/>
<path d="M432.767 325.553C438.478 325.079 442.738 319.895 442.496 313.974L432.956 88.6526C432.609 80.5653 426.099 73.6768 418.306 73.8556L429.938 73.5822C437.994 73.3929 444.725 79.7239 445.062 87.8008L454.38 313.132C454.622 319.053 450.152 324.112 444.252 324.606L432.767 325.553Z" fill="#02819E"/>
<path d="M205.317 271.276L201.52 247.308L153.581 254.891L151.089 239.116L181.221 172.05L213.079 167.013L222.323 225.465L235.007 223.456L237.868 241.555L225.184 243.564L228.97 267.532L205.317 271.276ZM198.659 229.209L195.062 206.482C194.063 200.141 193.369 193.757 192.601 186.9L191.981 186.995C189.498 194.367 187.563 201.171 185.039 208.228L174.175 232.774L174.069 233.11L198.659 229.209Z" fill="#028EB5"/>
<path d="M295.461 248.602C311.501 241.44 316.801 223.141 314.277 202.223C311.301 177.593 298.343 159.262 274.374 162.154L276.141 177.53C284.923 176.604 290.939 185.806 293.253 205.02" fill="#028EB5"/>
<path d="M365.56 241.093L363.173 221.269L323.533 226.054L321.955 213.013L348.753 158.799L375.1 155.623L380.926 203.958L391.412 202.696L393.221 217.661L382.735 218.923L385.123 238.747L365.56 241.093ZM361.364 206.314L359.092 187.52C358.461 182.283 358.082 177.004 357.662 171.346L357.146 171.409C354.885 177.393 353.087 182.925 350.794 188.646L341.118 208.491L341.023 208.764L361.364 206.314Z" fill="#028EB5"/>
<path d="M286.396 237.275C284.871 238.4 283.125 239.105 281.137 239.347L280.99 239.368C271.861 240.472 264.362 230.324 261.88 208.522C259.272 186.889 264.152 175.395 273.281 174.29C274.627 174.133 275.921 174.185 277.151 174.448L274.574 156.917C273.575 156.969 272.555 157.043 271.514 157.169C245.168 160.345 235.134 183.661 238.489 211.478C242.013 239.431 256.842 259.592 282.894 256.447L283.041 256.426C285.155 256.174 287.143 255.774 289.046 255.28L286.396 237.275Z" fill="#028EB5"/>
<path d="M278.957 270.137L267.95 281.143L277.99 291.182L288.997 280.176L278.957 270.137Z" fill="#40DBFF" stroke="#028EB5" stroke-width="0.5" stroke-miterlimit="10"/>
<path d="M273.554 298.335C272.808 297.547 272.639 296.379 273.134 295.412C274.312 293.098 276.941 288.66 281.653 284.032C286.428 279.342 291.213 276.545 293.674 275.283C294.663 274.778 295.851 274.957 296.651 275.724L388.646 358.428C389.172 358.943 389.456 359.648 389.425 360.384C389.299 363.56 388.247 372.499 380.559 380.05C372.87 387.612 363.804 388.632 360.575 388.737C359.829 388.758 359.114 388.474 358.598 387.927L273.554 298.335Z" fill="#40DBFF" stroke="#028EB5" stroke-width="0.5" stroke-miterlimit="10"/>
<path d="M281.074 289.428L277.845 288.25C275.426 291.268 273.922 293.897 273.113 295.485C272.639 296.411 272.808 297.536 273.523 298.293L358.63 387.948C359.113 388.464 359.787 388.748 360.491 388.727C363.173 388.642 370.199 387.917 377.004 383.026C377.014 383.016 377.014 382.995 377.004 382.984L286.396 292.877C284.913 291.342 283.083 290.164 281.074 289.428Z" fill="#02819E"/>
<path d="M213.426 306.339C161.449 306.339 119.158 264.051 119.158 212.088C119.158 160.124 161.449 117.837 213.426 117.837C265.403 117.837 307.693 160.124 307.693 212.088C307.693 264.051 265.403 306.339 213.426 306.339ZM213.426 146.221C177.109 146.221 147.555 175.763 147.555 212.077C147.555 248.391 177.099 277.933 213.426 277.933C249.753 277.933 279.296 248.391 279.296 212.077C279.296 175.763 249.742 146.221 213.426 146.221Z" fill="#028EB5"/>
<path d="M213.426 305.287C162.027 305.287 120.21 263.472 120.21 212.088C120.21 160.703 162.027 118.888 213.426 118.888C264.824 118.888 306.642 160.703 306.642 212.088C306.642 263.472 264.824 305.287 213.426 305.287ZM213.426 145.17C176.531 145.17 146.504 175.184 146.504 212.077C146.504 248.97 176.52 278.984 213.426 278.984C250.331 278.984 280.348 248.97 280.348 212.077C280.348 175.184 250.321 145.17 213.426 145.17Z" fill="#40DBFF"/>
<path opacity="0.15" d="M213.425 278.984C250.38 278.984 280.337 249.029 280.337 212.077C280.337 175.125 250.38 145.17 213.425 145.17C176.471 145.17 146.514 175.125 146.514 212.077C146.514 249.029 176.471 278.984 213.425 278.984Z" fill="white"/>
<g opacity="0.2">
<g opacity="0.2">
<path opacity="0.2" d="M219.789 299.082H213.478C165.855 299.082 127.099 260.338 127.099 212.719C127.099 196.197 131.779 180.127 140.645 166.266L144.042 160.945L154.675 167.738L151.278 173.06C143.716 184.891 139.72 198.605 139.72 212.719C139.72 253.387 172.807 286.462 213.478 286.462H219.789V299.082Z" fill="#CCFAFF"/>
</g>
</g>
<defs>
<linearGradient id="paint0_linear_1825_51498" x1="390.601" y1="28.675" x2="377.765" y2="46.6443" gradientUnits="userSpaceOnUse">
<stop offset="8.79085e-07" stop-color="#E6FAFA"/>
<stop offset="0.9943" stop-color="#E4FAFA"/>
</linearGradient>
<linearGradient id="paint1_linear_1825_51498" x1="171.042" y1="383.833" x2="150.727" y2="412.272" gradientUnits="userSpaceOnUse">
<stop offset="8.79085e-07" stop-color="#E6FAFA"/>
<stop offset="0.9943" stop-color="#E4FAFA"/>
</linearGradient>
<linearGradient id="paint2_linear_1825_51498" x1="482.878" y1="355.873" x2="470.573" y2="373.099" gradientUnits="userSpaceOnUse">
<stop offset="8.79085e-07" stop-color="#E6FAFA"/>
<stop offset="0.9943" stop-color="#E4FAFA"/>
</linearGradient>
<linearGradient id="paint3_linear_1825_51498" x1="475.883" y1="300.345" x2="47.0953" y2="94.1624" gradientUnits="userSpaceOnUse">
<stop offset="0.00571309" stop-color="#DFFFFF"/>
<stop offset="1" stop-color="#DEFFFF"/>
</linearGradient>
<linearGradient id="paint4_linear_1825_51498" x1="447.172" y1="275.451" x2="63.9066" y2="120.67" gradientUnits="userSpaceOnUse">
<stop offset="8.09824e-07" stop-color="#DBFAFA"/>
<stop offset="0.9898" stop-color="#D1FAFA"/>
</linearGradient>
</defs>
</svg>
