<svg width="542" height="439" viewBox="0 0 542 439" fill="none" xmlns="http://www.w3.org/2000/svg">
<path d="M409.439 49.7286C413.871 49.7286 417.465 46.1362 417.465 41.7048C417.465 37.2733 413.871 33.6809 409.439 33.6809C405.006 33.6809 401.412 37.2733 401.412 41.7048C401.412 46.1362 405.006 49.7286 409.439 49.7286Z" fill="url(#paint0_linear_1825_51496)"/>
<g style="mix-blend-mode:multiply" opacity="0.5">
<path d="M409.437 49.7291C413.869 49.7291 417.463 46.1367 417.463 41.7052C417.463 37.2738 413.869 33.6814 409.437 33.6814C405.004 33.6814 401.41 37.2738 401.41 41.7052C401.41 46.1367 405.004 49.7291 409.437 49.7291Z" fill="url(#paint1_linear_1825_51496)"/>
</g>
<path d="M185.704 415.398C192.72 415.398 198.407 409.713 198.407 402.699C198.407 395.686 192.72 390 185.704 390C178.688 390 173.001 395.686 173.001 402.699C173.001 409.713 178.688 415.398 185.704 415.398Z" fill="url(#paint2_linear_1825_51496)"/>
<g style="mix-blend-mode:multiply" opacity="0.5">
<path d="M185.703 415.398C192.719 415.398 198.406 409.713 198.406 402.699C198.406 395.686 192.719 390 185.703 390C178.687 390 173 395.686 173 402.699C173 409.713 178.687 415.398 185.703 415.398Z" fill="url(#paint3_linear_1825_51496)"/>
</g>
<path d="M502.012 376.182C506.263 376.182 509.709 372.737 509.709 368.487C509.709 364.238 506.263 360.793 502.012 360.793C497.761 360.793 494.315 364.238 494.315 368.487C494.315 372.737 497.761 376.182 502.012 376.182Z" fill="url(#paint4_linear_1825_51496)"/>
<g style="mix-blend-mode:multiply" opacity="0.5">
<path d="M502.012 376.181C506.263 376.181 509.709 372.737 509.709 368.487C509.709 364.237 506.263 360.792 502.012 360.792C497.761 360.792 494.315 364.237 494.315 368.487C494.315 372.737 497.761 376.181 502.012 376.181Z" fill="url(#paint5_linear_1825_51496)"/>
</g>
<path d="M397.439 54.9338C299.73 73.3511 325.86 -43.2921 190.947 25.8484C118.005 63.2412 -79.7283 217.817 101.146 309.648C218.898 369.429 220.436 429.502 327.141 422.531C461.715 413.738 521.488 284.14 528.507 224.899C536.369 158.549 529.34 30.0754 397.439 54.9338Z" fill="url(#paint6_linear_1825_51496)"/>
<g style="mix-blend-mode:multiply" opacity="0.3">
<path d="M397.439 54.9377C299.73 73.355 325.86 -43.2882 190.947 25.8523C118.005 63.2451 -79.7282 217.821 101.146 309.652C218.898 369.432 220.436 429.506 327.141 422.534C461.715 413.742 521.488 284.144 528.507 224.902C536.369 158.552 529.34 30.0793 397.439 54.9377Z" fill="url(#paint7_linear_1825_51496)"/>
</g>
<g opacity="0.8">
<path opacity="0.8" d="M409.868 42.4367C401.979 43.8915 393.989 44.907 385.963 45.0809C377.946 45.2547 369.873 44.5959 362.057 42.7478C354.232 40.918 346.718 37.8713 339.689 33.992C332.651 30.1219 326.062 25.5016 319.417 21.0276C312.782 16.5445 305.982 12.2352 298.679 8.93234C291.393 5.60203 283.632 3.35132 275.707 2.24427C267.772 1.15551 259.718 1.10976 251.746 1.81425C243.765 2.52789 235.849 3.88197 228.051 5.71182C212.447 9.39895 197.245 14.6323 182.373 20.5976C167.464 26.4805 153.086 33.6626 139.156 41.5767C125.236 49.5091 111.773 58.2557 98.8407 67.716C85.9178 77.1854 73.5257 87.3868 61.9116 98.4207C50.3158 109.455 39.4705 121.321 30.0254 134.249C20.617 147.168 12.5631 161.193 7.43785 176.335C4.8844 183.893 3.12718 191.733 2.395 199.666C1.65368 207.598 2.00146 215.64 3.52072 223.454C5.03083 231.276 7.69411 238.861 11.3184 245.961C14.9335 253.07 19.4821 259.685 24.6165 265.778C34.9127 278.001 47.4969 288.148 60.85 296.894C67.5494 301.259 74.4684 305.293 81.5339 309.054C88.5994 312.796 95.8754 316.199 102.959 319.987C117.172 327.471 131.001 335.696 144.309 344.69C157.634 353.665 170.392 363.464 182.739 373.73C195.112 383.949 207.038 394.709 219.659 404.535C225.983 409.43 232.499 414.068 239.382 418.112C246.255 422.156 253.448 425.651 260.953 428.35C275.935 433.849 291.897 436.301 307.84 437.005C315.821 437.371 323.829 437.326 331.809 436.96C339.799 436.639 347.762 435.889 355.678 434.819C371.502 432.66 387.144 428.963 402.107 423.382C417.071 417.82 431.33 410.372 444.381 401.177C450.907 396.584 457.139 391.57 463.015 386.182C468.882 380.774 474.41 374.992 479.571 368.908C489.895 356.73 498.754 343.327 506.186 329.191C513.663 315.065 519.74 300.216 524.582 284.982C529.423 269.74 533.038 254.113 535.427 238.294C537.66 222.447 539.335 206.491 540.205 190.507C541.047 174.524 541.047 158.467 539.536 142.529C538.008 126.619 535.015 110.745 529.204 95.8224C526.293 88.384 522.651 81.2111 518.102 74.6236C513.563 68.0454 508.117 62.0801 501.83 57.1304C495.551 52.1806 488.486 48.2373 480.99 45.4285C473.504 42.5923 465.633 40.8448 457.679 39.9298C441.764 38.1183 425.61 39.5273 409.868 42.4367ZM409.841 42.2537C425.583 39.2986 441.755 37.8438 457.753 39.6096C465.733 40.5063 473.641 42.2446 481.164 45.0626C488.696 47.8622 495.817 51.8055 502.15 56.7644C508.483 61.7233 514.011 67.6885 518.615 74.2851C523.227 80.8817 526.934 88.0821 529.899 95.5479C535.839 110.516 538.932 126.454 540.552 142.419C542.136 158.412 542.209 174.515 541.44 190.553C540.644 206.592 539.033 222.566 536.864 238.486C534.53 254.387 530.97 270.115 526.165 285.458C521.351 300.792 515.32 315.778 507.833 330.033C500.347 344.278 491.414 357.792 480.99 370.079C475.773 376.218 470.2 382.046 464.269 387.508C458.329 392.952 452.042 398.021 445.452 402.65C432.273 411.937 417.867 419.448 402.766 425.066C387.665 430.692 371.896 434.425 355.944 436.594C347.963 437.655 339.946 438.396 331.901 438.707C323.865 439.064 315.811 439.101 307.776 438.716C291.714 437.984 275.578 435.487 260.413 429.878C252.826 427.124 245.541 423.565 238.594 419.466C231.648 415.368 225.077 410.674 218.734 405.743C206.058 395.843 194.17 385.065 181.823 374.837C169.523 364.58 156.82 354.8 143.549 345.824C130.297 336.84 116.523 328.624 102.364 321.14C95.3079 317.361 88.0503 313.958 80.9482 310.179C73.8644 306.391 66.9087 302.338 60.1819 297.928C46.7648 289.109 34.1073 278.88 23.7287 266.519C18.5486 260.353 13.9634 253.655 10.3116 246.455C6.65992 239.264 3.96002 231.569 2.44992 223.646C0.921501 215.723 0.58287 207.571 1.3425 199.547C2.09298 191.514 3.88681 183.6 6.46772 175.979C11.657 160.709 19.7933 146.61 29.2567 133.645C38.7566 120.672 49.6569 108.787 61.3076 97.7345C72.9766 86.7006 85.4327 76.5084 98.4014 67.0572C111.388 57.6153 124.888 48.8961 138.863 40.9912C152.839 33.1045 167.253 25.9407 182.208 20.0944C197.117 14.1657 212.346 8.96893 227.987 5.3184C235.803 3.48856 243.738 2.13448 251.737 1.42999C259.736 0.725498 267.817 0.780393 275.78 1.88745C283.733 3.0128 291.531 5.2818 298.834 8.63041C306.156 11.9516 312.965 16.27 319.6 20.7714C326.245 25.2545 332.816 29.8749 339.836 33.745C346.846 37.6243 354.324 40.6618 362.131 42.5008C369.928 44.3489 377.973 45.0168 385.981 44.8521C393.98 44.7057 401.952 43.6993 409.841 42.2537Z" fill="url(#paint8_linear_1825_51496)"/>
<g style="mix-blend-mode:multiply" opacity="0.5">
<path d="M409.868 42.4367C401.979 43.8915 393.989 44.907 385.963 45.0809C377.946 45.2547 369.873 44.5959 362.057 42.7478C354.232 40.918 346.718 37.8713 339.689 33.992C332.651 30.1219 326.062 25.5016 319.417 21.0276C312.782 16.5445 305.982 12.2352 298.679 8.93234C291.393 5.60203 283.632 3.35132 275.707 2.24427C267.772 1.15551 259.718 1.10976 251.746 1.81425C243.765 2.52789 235.849 3.88197 228.051 5.71182C212.447 9.39895 197.245 14.6323 182.373 20.5976C167.464 26.4805 153.086 33.6626 139.156 41.5767C125.236 49.5091 111.773 58.2557 98.8407 67.716C85.9178 77.1854 73.5257 87.3868 61.9116 98.4207C50.3158 109.455 39.4705 121.321 30.0254 134.249C20.617 147.168 12.5631 161.193 7.43785 176.335C4.8844 183.893 3.12718 191.733 2.395 199.666C1.65368 207.598 2.00146 215.64 3.52072 223.454C5.03083 231.276 7.69411 238.861 11.3184 245.961C14.9335 253.07 19.4821 259.685 24.6165 265.778C34.9127 278.001 47.4969 288.148 60.85 296.894C67.5494 301.259 74.4684 305.293 81.5339 309.054C88.5994 312.796 95.8754 316.199 102.959 319.987C117.172 327.471 131.001 335.696 144.309 344.69C157.634 353.665 170.392 363.464 182.739 373.73C195.112 383.949 207.038 394.709 219.659 404.535C225.983 409.43 232.499 414.068 239.382 418.112C246.255 422.156 253.448 425.651 260.953 428.35C275.935 433.849 291.897 436.301 307.84 437.005C315.821 437.371 323.829 437.326 331.809 436.96C339.799 436.639 347.762 435.889 355.678 434.819C371.502 432.66 387.144 428.963 402.107 423.382C417.071 417.82 431.33 410.372 444.381 401.177C450.907 396.584 457.139 391.57 463.015 386.182C468.882 380.774 474.41 374.992 479.571 368.908C489.895 356.73 498.754 343.327 506.186 329.191C513.663 315.065 519.74 300.216 524.582 284.982C529.423 269.74 533.038 254.113 535.427 238.294C537.66 222.447 539.335 206.491 540.205 190.507C541.047 174.524 541.047 158.467 539.536 142.529C538.008 126.619 535.015 110.745 529.204 95.8224C526.293 88.384 522.651 81.2111 518.102 74.6236C513.563 68.0454 508.117 62.0801 501.83 57.1304C495.551 52.1806 488.486 48.2373 480.99 45.4285C473.504 42.5923 465.633 40.8448 457.679 39.9298C441.764 38.1183 425.61 39.5273 409.868 42.4367ZM409.841 42.2537C425.583 39.2986 441.755 37.8438 457.753 39.6096C465.733 40.5063 473.641 42.2446 481.164 45.0626C488.696 47.8622 495.817 51.8055 502.15 56.7644C508.483 61.7233 514.011 67.6885 518.615 74.2851C523.227 80.8817 526.934 88.0821 529.899 95.5479C535.839 110.516 538.932 126.454 540.552 142.419C542.136 158.412 542.209 174.515 541.44 190.553C540.644 206.592 539.033 222.566 536.864 238.486C534.53 254.387 530.97 270.115 526.165 285.458C521.351 300.792 515.32 315.778 507.833 330.033C500.347 344.278 491.414 357.792 480.99 370.079C475.773 376.218 470.2 382.046 464.269 387.508C458.329 392.952 452.042 398.021 445.452 402.65C432.273 411.937 417.867 419.448 402.766 425.066C387.665 430.692 371.896 434.425 355.944 436.594C347.963 437.655 339.946 438.396 331.901 438.707C323.865 439.064 315.811 439.101 307.776 438.716C291.714 437.984 275.578 435.487 260.413 429.878C252.826 427.124 245.541 423.565 238.594 419.466C231.648 415.368 225.077 410.674 218.734 405.743C206.058 395.843 194.17 385.065 181.823 374.837C169.523 364.58 156.82 354.8 143.549 345.824C130.297 336.84 116.523 328.624 102.364 321.14C95.3079 317.361 88.0503 313.958 80.9482 310.179C73.8644 306.391 66.9087 302.338 60.1819 297.928C46.7648 289.109 34.1073 278.88 23.7287 266.519C18.5486 260.353 13.9634 253.655 10.3116 246.455C6.65992 239.264 3.96002 231.569 2.44992 223.646C0.921501 215.723 0.58287 207.571 1.3425 199.547C2.09298 191.514 3.88681 183.6 6.46772 175.979C11.657 160.709 19.7933 146.61 29.2567 133.645C38.7566 120.672 49.6569 108.787 61.3076 97.7345C72.9766 86.7006 85.4327 76.5084 98.4014 67.0572C111.388 57.6153 124.888 48.8961 138.863 40.9912C152.839 33.1045 167.253 25.9407 182.208 20.0944C197.117 14.1657 212.346 8.96893 227.987 5.3184C235.803 3.48856 243.738 2.13448 251.737 1.42999C259.736 0.725498 267.817 0.780393 275.78 1.88745C283.733 3.0128 291.531 5.2818 298.834 8.63041C306.156 11.9516 312.965 16.27 319.6 20.7714C326.245 25.2545 332.816 29.8749 339.836 33.745C346.846 37.6243 354.324 40.6618 362.131 42.5008C369.928 44.3489 377.973 45.0168 385.981 44.8521C393.98 44.7057 401.952 43.6993 409.841 42.2537Z" fill="url(#paint9_linear_1825_51496)"/>
</g>
</g>
<path d="M383.712 75.383C377.516 76.8652 371.219 77.9814 364.858 78.4389C358.507 78.8872 352.082 78.7316 345.794 77.6703C339.498 76.6365 333.366 74.7426 327.508 72.2266C321.642 69.7288 316.05 66.6547 310.476 63.5897C304.902 60.5247 299.301 57.4872 293.426 55.0443C287.568 52.5832 281.445 50.7351 275.176 49.7195C262.601 47.6975 249.715 48.9601 237.378 51.897C225.004 54.8065 213.033 59.253 201.373 64.3125C195.543 66.856 189.777 69.5275 184.139 72.4644C178.502 75.4013 172.974 78.5487 167.556 81.8607C156.71 88.4847 146.259 95.7675 136.246 103.59C126.243 111.422 116.66 119.812 107.7 128.805C98.7404 137.799 90.3662 147.396 83.017 157.735C75.6952 168.064 69.3711 179.181 65.1245 191.093C60.8962 202.96 58.8827 215.778 60.6948 228.248C61.5826 234.469 63.3764 240.554 66.0031 246.263C68.6297 251.972 72.0435 257.315 76.0156 262.21C83.9871 271.999 93.963 280.023 104.644 286.775C110.007 290.142 115.535 293.235 121.218 296.053C124.046 297.48 126.92 298.816 129.812 300.124L138.552 303.948C150.221 309.109 161.652 314.836 172.717 321.213C183.782 327.59 194.463 334.626 204.787 342.128C215.129 349.603 225.068 357.599 235.309 365.074C245.541 372.54 256.313 379.338 268.156 383.656C279.954 388.075 292.574 389.951 305.177 390.271C317.798 390.527 330.501 389.539 342.975 387.526C355.45 385.495 367.76 382.33 379.502 377.682C391.244 373.062 402.437 367.023 412.614 359.576C422.801 352.147 432.017 343.382 439.961 333.583C447.942 323.802 454.678 313.034 460.27 301.707C471.454 279.026 478.226 254.25 481.228 229.108C481.988 222.832 482.372 216.491 482.885 210.142C483.37 203.801 483.8 197.461 484.102 191.12C484.706 178.44 484.862 165.722 483.956 153.069C483.031 140.434 481.109 127.799 477.037 115.795C476.011 112.803 474.831 109.866 473.522 106.984C472.195 104.112 470.676 101.33 469.01 98.6495C467.344 95.9596 465.432 93.4344 463.381 91.0282C461.331 88.6219 459.052 86.4078 456.6 84.4224C454.156 82.4188 451.539 80.6255 448.756 79.1068C445.992 77.5697 443.1 76.2522 440.107 75.2183C434.149 73.0591 427.834 71.9795 421.51 71.4946C415.177 71.0189 408.798 71.3116 402.492 72.0161C396.159 72.7389 389.899 73.91 383.712 75.383ZM383.648 75.1086C389.835 73.5989 396.104 72.3912 402.437 71.641C408.761 70.9091 415.168 70.5705 421.538 71.0189C427.898 71.4672 434.259 72.5193 440.3 74.6694C443.329 75.6941 446.258 77.0116 449.067 78.5487C451.886 80.0674 454.55 81.8698 457.039 83.8826C462.054 87.8808 466.292 92.8031 469.77 98.1737C471.49 100.873 473.055 103.672 474.437 106.564C475.801 109.464 477.027 112.419 478.098 115.438C482.354 127.524 484.413 140.251 485.493 152.959C486.555 165.686 486.536 178.476 486.07 191.212C485.832 197.58 485.475 203.948 485.063 210.306C484.633 216.647 484.285 223.015 483.553 229.382C482.134 242.091 479.718 254.689 476.295 267.022C472.854 279.346 468.433 291.423 462.75 302.924C457.076 314.415 450.221 325.367 442.103 335.312C434.012 345.285 424.622 354.214 414.243 361.781C403.865 369.365 392.47 375.514 380.518 380.207C368.574 384.919 356.081 388.167 343.424 390.171C330.766 392.165 317.963 393.117 305.131 392.815C292.327 392.44 279.414 390.482 267.333 385.916C255.206 381.442 244.251 374.461 233.982 366.913C223.686 359.347 213.811 351.332 203.533 343.866C193.282 336.373 182.693 329.356 171.711 322.988C160.728 316.629 149.379 310.893 137.784 305.733L129.043 301.881C126.133 300.554 123.241 299.2 120.394 297.754C114.674 294.9 109.092 291.753 103.683 288.34C92.9013 281.478 82.7882 273.317 74.6793 263.308C70.6432 258.303 67.1654 252.832 64.4838 246.967C61.8114 241.103 59.9809 234.854 59.0932 228.468C57.2719 215.668 59.3769 202.584 63.7059 190.553C68.0532 178.476 74.4688 167.269 81.8821 156.875C89.3228 146.482 97.752 136.838 106.803 127.854C115.855 118.86 125.511 110.498 135.596 102.684C145.682 94.8891 156.198 87.643 167.116 81.0555C172.571 77.7618 178.136 74.6328 183.801 71.7234C189.475 68.8048 195.268 66.1515 201.126 63.6354C212.831 58.6217 224.857 54.2301 237.295 51.3572C249.687 48.4661 262.647 47.2492 275.277 49.3261C281.573 50.3691 287.715 52.2538 293.581 54.7424C299.457 57.231 305.058 60.2777 310.641 63.3427C316.214 66.4077 321.806 69.4726 327.655 71.9704C333.494 74.4773 339.607 76.3711 345.877 77.3959C352.146 78.4572 358.543 78.6127 364.877 78.1644C371.182 77.7069 377.47 76.5907 383.648 75.1086Z" fill="url(#paint10_linear_1825_51496)"/>
<g style="mix-blend-mode:multiply" opacity="0.5">
<path d="M383.712 75.383C377.516 76.8652 371.219 77.9814 364.858 78.4389C358.507 78.8872 352.082 78.7316 345.794 77.6703C339.498 76.6365 333.366 74.7426 327.508 72.2266C321.642 69.7288 316.05 66.6547 310.476 63.5897C304.902 60.5247 299.301 57.4872 293.426 55.0443C287.568 52.5832 281.445 50.7351 275.176 49.7195C262.601 47.6975 249.715 48.9601 237.378 51.897C225.004 54.8065 213.033 59.253 201.373 64.3125C195.543 66.856 189.777 69.5275 184.139 72.4644C178.502 75.4013 172.974 78.5487 167.556 81.8607C156.71 88.4847 146.259 95.7675 136.246 103.59C126.243 111.422 116.66 119.812 107.7 128.805C98.7404 137.799 90.3662 147.396 83.017 157.735C75.6952 168.064 69.3711 179.181 65.1245 191.093C60.8962 202.96 58.8827 215.778 60.6948 228.248C61.5826 234.469 63.3764 240.554 66.0031 246.263C68.6297 251.972 72.0435 257.315 76.0156 262.21C83.9871 271.999 93.963 280.023 104.644 286.775C110.007 290.142 115.535 293.235 121.218 296.053C124.046 297.48 126.92 298.816 129.812 300.124L138.552 303.948C150.221 309.109 161.652 314.836 172.717 321.213C183.782 327.59 194.463 334.626 204.787 342.128C215.129 349.603 225.068 357.599 235.309 365.074C245.541 372.54 256.313 379.338 268.156 383.656C279.954 388.075 292.574 389.951 305.177 390.271C317.798 390.527 330.501 389.539 342.975 387.526C355.45 385.495 367.76 382.33 379.502 377.682C391.244 373.062 402.437 367.023 412.614 359.576C422.801 352.147 432.017 343.382 439.961 333.583C447.942 323.802 454.678 313.034 460.27 301.707C471.454 279.026 478.226 254.25 481.228 229.108C481.988 222.832 482.372 216.491 482.885 210.142C483.37 203.801 483.8 197.461 484.102 191.12C484.706 178.44 484.862 165.722 483.956 153.069C483.031 140.434 481.109 127.799 477.037 115.795C476.011 112.803 474.831 109.866 473.522 106.984C472.195 104.112 470.676 101.33 469.01 98.6495C467.344 95.9596 465.432 93.4344 463.381 91.0282C461.331 88.6219 459.052 86.4078 456.6 84.4224C454.156 82.4188 451.539 80.6255 448.756 79.1068C445.992 77.5697 443.1 76.2522 440.107 75.2183C434.149 73.0591 427.834 71.9795 421.51 71.4946C415.177 71.0189 408.798 71.3116 402.492 72.0161C396.159 72.7389 389.899 73.91 383.712 75.383ZM383.648 75.1086C389.835 73.5989 396.104 72.3912 402.437 71.641C408.761 70.9091 415.168 70.5705 421.538 71.0189C427.898 71.4672 434.259 72.5193 440.3 74.6694C443.329 75.6941 446.258 77.0116 449.067 78.5487C451.886 80.0674 454.55 81.8698 457.039 83.8826C462.054 87.8808 466.292 92.8031 469.77 98.1737C471.49 100.873 473.055 103.672 474.437 106.564C475.801 109.464 477.027 112.419 478.098 115.438C482.354 127.524 484.413 140.251 485.493 152.959C486.555 165.686 486.536 178.476 486.07 191.212C485.832 197.58 485.475 203.948 485.063 210.306C484.633 216.647 484.285 223.015 483.553 229.382C482.134 242.091 479.718 254.689 476.295 267.022C472.854 279.346 468.433 291.423 462.75 302.924C457.076 314.415 450.221 325.367 442.103 335.312C434.012 345.285 424.622 354.214 414.243 361.781C403.865 369.365 392.47 375.514 380.518 380.207C368.574 384.919 356.081 388.167 343.424 390.171C330.766 392.165 317.963 393.117 305.131 392.815C292.327 392.44 279.414 390.482 267.333 385.916C255.206 381.442 244.251 374.461 233.982 366.913C223.686 359.347 213.811 351.332 203.533 343.866C193.282 336.373 182.693 329.356 171.711 322.988C160.728 316.629 149.379 310.893 137.784 305.733L129.043 301.881C126.133 300.554 123.241 299.2 120.394 297.754C114.674 294.9 109.092 291.753 103.683 288.34C92.9013 281.478 82.7882 273.317 74.6793 263.308C70.6432 258.303 67.1654 252.832 64.4838 246.967C61.8114 241.103 59.9809 234.854 59.0932 228.468C57.2719 215.668 59.3769 202.584 63.7059 190.553C68.0532 178.476 74.4688 167.269 81.8821 156.875C89.3228 146.482 97.752 136.838 106.803 127.854C115.855 118.86 125.511 110.498 135.596 102.684C145.682 94.8891 156.198 87.643 167.116 81.0555C172.571 77.7618 178.136 74.6328 183.801 71.7234C189.475 68.8048 195.268 66.1515 201.126 63.6354C212.831 58.6217 224.857 54.2301 237.295 51.3572C249.687 48.4661 262.647 47.2492 275.277 49.3261C281.573 50.3691 287.715 52.2538 293.581 54.7424C299.457 57.231 305.058 60.2777 310.641 63.3427C316.214 66.4077 321.806 69.4726 327.655 71.9704C333.494 74.4773 339.607 76.3711 345.877 77.3959C352.146 78.4572 358.543 78.6127 364.877 78.1644C371.182 77.7069 377.47 76.5907 383.648 75.1086Z" fill="url(#paint11_linear_1825_51496)"/>
</g>
<path d="M472.103 345.306L406.726 350.701C360.166 354.539 313.815 360.618 267.833 368.916L152.531 389.718C133.936 393.073 116.162 380.642 112.943 362.027L71.8307 124.549C68.1075 103.063 83.2316 82.8712 104.908 80.3997L216.003 67.7481C254.371 64.2671 292.833 61.8272 331.337 60.4495L463.384 57.2734C474.174 57.0105 483.188 65.4554 483.63 76.2456L493.716 320.854C494.242 333.474 484.702 344.275 472.103 345.306Z" fill="#40DBFF" stroke="#028EB5" stroke-width="0.5" stroke-miterlimit="10"/>
<path d="M483.777 79.6636L483.64 76.2352C483.64 76.2036 483.63 76.1721 483.63 76.1405L483.777 79.6636Z" fill="#028EB5"/>
<path d="M123.503 79.0536C102.899 81.4409 86.3026 92.1154 92.1819 122.824L132.001 358.904C135.124 377.413 152.058 389.813 169.727 386.542L170.453 386.489L152.531 389.728C133.936 393.083 116.162 380.652 112.943 362.038L71.8307 124.549C68.1075 103.063 83.2316 82.8712 104.908 80.3997L114.374 79.653" fill="#028EB5"/>
<path d="M470.241 327.606L403.855 333.085C363.637 336.408 323.607 341.667 283.894 348.85L162.565 370.798C157.716 371.671 153.068 368.432 152.237 363.573L109.494 116.093C108.053 107.754 113.901 99.9083 122.273 98.9617L238.259 85.7317C271.651 82.7029 305.118 80.5785 338.616 79.3796L455.938 76.5821C463.994 76.3928 470.725 82.7239 471.062 90.8008L480.38 316.132C480.622 322.064 476.152 327.122 470.241 327.606Z" fill="#B6F1FF"/>
<path d="M470.252 90.8008C470.073 86.5416 468.117 82.7766 465.13 80.1895L465.992 83.8808C465.992 83.8808 458.556 101.265 458.314 95.6701C458.199 92.8306 386.007 92.8726 317.318 96.9531C249.375 100.981 187.196 109.731 185.734 109.731C184.63 109.731 183.705 109.279 182.989 108.7C181.843 107.796 181.17 106.429 180.97 104.977C180.686 102.842 180.118 98.9408 179.55 96.6797C179.235 95.4282 178.393 94.5763 177.489 94.0084C176.153 93.1776 174.554 92.8937 172.998 93.0724L121.473 98.9618C113.091 99.9188 107.253 107.754 108.694 116.094L151.437 363.573C152.279 368.432 156.917 371.682 161.765 370.798L283.094 348.85C322.808 341.667 362.837 336.409 403.056 333.085L469.442 327.606C475.353 327.122 479.822 322.053 479.57 316.132L470.252 90.8008Z" fill="#CCFAFF"/>
<path d="M129.467 115.315C132.801 115.315 135.504 112.613 135.504 109.279C135.504 105.945 132.801 103.242 129.467 103.242C126.133 103.242 123.43 105.945 123.43 109.279C123.43 112.613 126.133 115.315 129.467 115.315Z" fill="#40DBFF" stroke="#028EB5" stroke-width="0.5" stroke-miterlimit="10"/>
<path d="M146.39 112.392C149.294 112.392 151.648 110.037 151.648 107.133C151.648 104.229 149.294 101.875 146.39 101.875C143.485 101.875 141.131 104.229 141.131 107.133C141.131 110.037 143.485 112.392 146.39 112.392Z" fill="#40DBFF" stroke="#028EB5" stroke-width="0.5" stroke-miterlimit="10"/>
<path d="M161.324 109.847C163.938 109.847 166.056 107.728 166.056 105.114C166.056 102.5 163.938 100.381 161.324 100.381C158.71 100.381 156.591 102.5 156.591 105.114C156.591 107.728 158.71 109.847 161.324 109.847Z" fill="#40DBFF" stroke="#028EB5" stroke-width="0.5" stroke-miterlimit="10"/>
<path d="M458.767 328.552C464.478 328.079 468.738 322.895 468.496 316.974L458.956 91.6526C458.609 83.5652 452.099 76.6768 444.306 76.8556L455.938 76.5821C463.994 76.3928 470.725 82.7239 471.062 90.8008L480.38 316.132C480.622 322.053 476.152 327.112 470.252 327.606L458.767 328.552Z" fill="#02819E"/>
<path d="M231.317 274.276L227.52 250.308L179.581 257.891L177.089 242.116L207.221 175.05L239.079 170.013L248.323 228.465L261.007 226.456L263.868 244.555L251.184 246.564L254.97 270.532L231.317 274.276ZM224.659 232.209L221.062 209.482C220.063 203.141 219.369 196.757 218.601 189.9L217.981 189.995C215.498 197.367 213.563 204.171 211.039 211.228L200.175 235.774L200.069 236.11L224.659 232.209Z" fill="#028EB5"/>
<path d="M321.461 251.602C337.501 244.44 342.801 226.141 340.277 205.223C337.301 180.593 324.343 162.262 300.374 165.154L302.141 180.53C310.923 179.604 316.939 188.806 319.253 208.02" fill="#028EB5"/>
<path d="M391.56 244.093L389.173 224.269L349.533 229.054L347.955 216.013L374.753 161.799L401.1 158.623L406.926 206.958L417.412 205.696L419.221 220.661L408.735 221.923L411.123 241.747L391.56 244.093ZM387.364 209.314L385.092 190.52C384.461 185.283 384.082 180.004 383.662 174.346L383.146 174.409C380.885 180.393 379.087 185.925 376.794 191.646L367.118 211.491L367.023 211.764L387.364 209.314Z" fill="#028EB5"/>
<path d="M312.396 240.275C310.871 241.4 309.125 242.105 307.137 242.347L306.99 242.368C297.861 243.472 290.362 233.324 287.88 211.522C285.272 189.889 290.152 178.395 299.281 177.29C300.627 177.133 301.921 177.185 303.151 177.448L300.574 159.917C299.575 159.969 298.555 160.043 297.514 160.169C271.168 163.345 261.134 186.661 264.489 214.478C268.013 242.431 282.842 262.592 308.894 259.447L309.041 259.426C311.155 259.174 313.143 258.774 315.046 258.28L312.396 240.275Z" fill="#028EB5"/>
<path d="M304.957 273.137L293.95 284.143L303.99 294.182L314.997 283.176L304.957 273.137Z" fill="#40DBFF" stroke="#028EB5" stroke-width="0.5" stroke-miterlimit="10"/>
<path d="M299.554 301.335C298.808 300.547 298.639 299.379 299.134 298.412C300.312 296.098 302.941 291.66 307.653 287.032C312.428 282.342 317.213 279.545 319.674 278.283C320.663 277.778 321.851 277.957 322.651 278.724L414.646 361.428C415.172 361.943 415.456 362.648 415.425 363.384C415.299 366.56 414.247 375.499 406.559 383.05C398.87 390.612 389.804 391.632 386.575 391.737C385.829 391.758 385.114 391.474 384.598 390.927L299.554 301.335Z" fill="#40DBFF" stroke="#028EB5" stroke-width="0.5" stroke-miterlimit="10"/>
<path d="M307.074 292.428L303.845 291.25C301.426 294.268 299.922 296.897 299.113 298.485C298.639 299.411 298.808 300.536 299.523 301.293L384.63 390.948C385.113 391.464 385.787 391.748 386.491 391.727C389.173 391.642 396.199 390.917 403.004 386.026C403.014 386.016 403.014 385.995 403.004 385.984L312.396 295.877C310.913 294.342 309.083 293.164 307.074 292.428Z" fill="#02819E"/>
<path d="M239.426 309.338C187.449 309.338 145.158 267.051 145.158 215.088C145.158 163.124 187.449 120.837 239.426 120.837C291.403 120.837 333.693 163.124 333.693 215.088C333.693 267.051 291.403 309.338 239.426 309.338ZM239.426 149.221C203.109 149.221 173.555 178.763 173.555 215.077C173.555 251.391 203.099 280.933 239.426 280.933C275.753 280.933 305.296 251.391 305.296 215.077C305.296 178.763 275.742 149.221 239.426 149.221Z" fill="#028EB5"/>
<path d="M239.426 308.287C188.027 308.287 146.21 266.472 146.21 215.087C146.21 163.703 188.027 121.888 239.426 121.888C290.824 121.888 332.642 163.703 332.642 215.087C332.642 266.472 290.824 308.287 239.426 308.287ZM239.426 148.17C202.531 148.17 172.504 178.184 172.504 215.077C172.504 251.97 202.52 281.984 239.426 281.984C276.331 281.984 306.348 251.97 306.348 215.077C306.348 178.184 276.321 148.17 239.426 148.17Z" fill="#40DBFF"/>
<path opacity="0.15" d="M239.425 281.984C276.38 281.984 306.337 252.029 306.337 215.077C306.337 178.125 276.38 148.17 239.425 148.17C202.471 148.17 172.514 178.125 172.514 215.077C172.514 252.029 202.471 281.984 239.425 281.984Z" fill="white"/>
<g opacity="0.2">
<g opacity="0.2">
<path opacity="0.2" d="M245.789 302.082H239.478C191.855 302.082 153.099 263.338 153.099 215.718C153.099 199.197 157.779 183.127 166.645 169.266L170.042 163.945L180.675 170.738L177.278 176.06C169.716 187.891 165.72 201.605 165.72 215.718C165.72 256.387 198.807 289.462 239.478 289.462H245.789V302.082Z" fill="#CCFAFF"/>
</g>
</g>
<defs>
<linearGradient id="paint0_linear_1825_51496" x1="416.601" y1="31.6749" x2="403.765" y2="49.6443" gradientUnits="userSpaceOnUse">
<stop offset="8.79085e-07" stop-color="#E6FAFA"/>
<stop offset="0.9943" stop-color="#E4FAFA"/>
</linearGradient>
<linearGradient id="paint1_linear_1825_51496" x1="416.599" y1="31.6754" x2="403.763" y2="49.6448" gradientUnits="userSpaceOnUse">
<stop offset="8.79085e-07" stop-color="#E6FAFA"/>
<stop offset="0.9943" stop-color="#E4FAFA"/>
</linearGradient>
<linearGradient id="paint2_linear_1825_51496" x1="197.043" y1="386.833" x2="176.728" y2="415.272" gradientUnits="userSpaceOnUse">
<stop offset="8.79085e-07" stop-color="#E6FAFA"/>
<stop offset="0.9943" stop-color="#E4FAFA"/>
</linearGradient>
<linearGradient id="paint3_linear_1825_51496" x1="197.042" y1="386.833" x2="176.727" y2="415.272" gradientUnits="userSpaceOnUse">
<stop offset="8.79085e-07" stop-color="#E6FAFA"/>
<stop offset="0.9943" stop-color="#E4FAFA"/>
</linearGradient>
<linearGradient id="paint4_linear_1825_51496" x1="508.878" y1="358.873" x2="496.573" y2="376.099" gradientUnits="userSpaceOnUse">
<stop offset="8.79085e-07" stop-color="#E6FAFA"/>
<stop offset="0.9943" stop-color="#E4FAFA"/>
</linearGradient>
<linearGradient id="paint5_linear_1825_51496" x1="508.878" y1="358.873" x2="496.573" y2="376.099" gradientUnits="userSpaceOnUse">
<stop offset="8.79085e-07" stop-color="#E6FAFA"/>
<stop offset="0.9943" stop-color="#E4FAFA"/>
</linearGradient>
<linearGradient id="paint6_linear_1825_51496" x1="501.882" y1="303.345" x2="73.0943" y2="97.1615" gradientUnits="userSpaceOnUse">
<stop offset="0.00571309" stop-color="#DFFFFF"/>
<stop offset="1" stop-color="#DEFFFF"/>
</linearGradient>
<linearGradient id="paint7_linear_1825_51496" x1="501.881" y1="303.348" x2="73.0943" y2="97.1654" gradientUnits="userSpaceOnUse">
<stop offset="0.00571309" stop-color="#DAFFFF"/>
<stop offset="1" stop-color="#DEFFFF"/>
</linearGradient>
<linearGradient id="paint8_linear_1825_51496" x1="519.037" y1="306.637" x2="47.2233" y2="86.7474" gradientUnits="userSpaceOnUse">
<stop offset="8.79085e-07" stop-color="#E6FAFA"/>
<stop offset="0.9943" stop-color="#E4FAFA"/>
</linearGradient>
<linearGradient id="paint9_linear_1825_51496" x1="519.037" y1="306.637" x2="47.2233" y2="86.7474" gradientUnits="userSpaceOnUse">
<stop offset="8.79085e-07" stop-color="#E6FAFA"/>
<stop offset="0.9943" stop-color="#E4FAFA"/>
</linearGradient>
<linearGradient id="paint10_linear_1825_51496" x1="473.172" y1="278.451" x2="89.9066" y2="123.67" gradientUnits="userSpaceOnUse">
<stop offset="8.09824e-07" stop-color="#DBFAFA"/>
<stop offset="0.9898" stop-color="#D1FAFA"/>
</linearGradient>
<linearGradient id="paint11_linear_1825_51496" x1="473.172" y1="278.451" x2="89.9066" y2="123.67" gradientUnits="userSpaceOnUse">
<stop offset="8.09824e-07" stop-color="#DBFAFA"/>
<stop offset="0.9898" stop-color="#D1FAFA"/>
</linearGradient>
</defs>
</svg>
