<svg width="80" height="75" viewBox="0 0 80 75" fill="currentColor" xmlns="http://www.w3.org/2000/svg">
<path id="svg" d="M10.75 11.334V0.583984H17.9167V11.334H28.6667V18.5007H17.9167V29.2507H10.75V18.5007H0V11.334H10.75ZM21.5 32.834V22.084H32.25V11.334H57.3333L63.8908 18.5007H75.25C79.1917 18.5007 82.4167 21.7257 82.4167 25.6673V68.6673C82.4167 72.609 79.1917 75.834 75.25 75.834H17.9167C13.975 75.834 10.75 72.609 10.75 68.6673V32.834H21.5ZM46.5833 65.084C56.4733 65.084 64.5 57.0573 64.5 47.1673C64.5 37.2773 56.4733 29.2507 46.5833 29.2507C36.6933 29.2507 28.6667 37.2773 28.6667 47.1673C28.6667 57.0573 36.6933 65.084 46.5833 65.084ZM35.1167 47.1673C35.1167 53.5098 40.2408 58.634 46.5833 58.634C52.9258 58.634 58.05 53.5098 58.05 47.1673C58.05 40.8248 52.9258 35.7006 46.5833 35.7006C40.2408 35.7006 35.1167 40.8248 35.1167 47.1673Z"/>
</svg>
