<svg width="272" height="240" viewBox="0 0 272 240" fill="none" xmlns="http://www.w3.org/2000/svg">
<path d="M106.984 29.5763C110.633 29.5763 113.591 26.6239 113.591 22.982C113.591 19.3401 110.633 16.3877 106.984 16.3877C103.335 16.3877 100.376 19.3401 100.376 22.982C100.376 26.6239 103.335 29.5763 106.984 29.5763Z" fill="url(#paint0_linear_2071_87506)"/>
<path d="M231.882 77.6459C234.093 77.6459 235.885 75.857 235.885 73.6503C235.885 71.4436 234.093 69.6548 231.882 69.6548C229.671 69.6548 227.878 71.4436 227.878 73.6503C227.878 75.857 229.671 77.6459 231.882 77.6459Z" fill="url(#paint1_linear_2071_87506)"/>
<path d="M162.636 208.459C-33.5537 278.369 61.5207 194.8 19.8789 125.822C-17.1122 64.549 10.0683 73.742 75.0681 47.6072C140.068 21.4723 201.36 -27.3767 218.268 62.9146C229.968 125.394 266.293 134.264 260.88 161.435C252.498 203.556 202.754 194.164 162.636 208.459Z" fill="url(#paint2_linear_2071_87506)"/>
<path d="M53.389 239.999C43.7735 239.999 36.8903 238.165 32.3016 234.569C22.3433 226.753 23.8475 211.208 25.5898 193.207C27.5176 173.305 29.6978 150.748 18.3496 130.481C2.16506 101.586 -2.4856 87.1617 1.17971 77.2703C5.25916 66.2671 19.8014 60.9271 43.8973 52.0856C52.0229 49.102 61.2337 45.7241 71.5157 41.5908C84.9678 36.1795 97.9345 29.8275 110.468 23.6846C142.566 7.94953 170.284 -5.63812 190.524 4.49085C203.953 11.2087 213.04 28.1552 218.309 56.2902C225.097 92.5397 241.348 112.038 254.41 127.706C264.892 140.282 273.17 150.211 270.499 163.618C267.658 177.9 258.756 188.133 243.295 194.913C229.562 200.932 211.95 203.754 194.923 206.481C180.247 208.833 165.072 211.261 152.205 215.726L152.048 215.28L152.205 215.726C105.013 232.108 73.334 239.999 53.389 239.999ZM174.72 1.94911C156.96 1.94911 135.192 12.6197 110.887 24.5303C98.3343 30.6827 85.3582 37.0442 71.8727 42.465C61.5765 46.6078 52.3608 49.9905 44.2257 52.9788C20.3869 61.7252 5.99698 67.0083 2.06986 77.6028C-1.48597 87.1949 3.15041 101.405 19.1778 130.02C30.6736 150.544 28.4744 173.258 26.5323 193.297C24.8186 211.023 23.3334 226.331 32.8823 233.823C39.4989 239.011 51.2755 240.303 68.8881 237.766C88.338 234.968 115.485 227.466 151.881 214.833C164.824 210.344 180.042 207.906 194.761 205.55C211.731 202.832 229.281 200.02 242.905 194.053C258.271 187.316 266.744 177.586 269.562 163.443C272.142 150.477 264.397 141.184 253.677 128.324C241.239 113.401 224.207 92.9626 217.376 56.4755C212.164 28.6493 203.243 11.9308 190.1 5.35077C185.393 2.98481 180.252 1.94911 174.72 1.94911Z" fill="url(#paint3_linear_2071_87506)"/>
<path d="M67.5694 223.035C60.8576 223.035 55.8689 221.747 52.3464 219.22C43.7544 213.058 44.4446 200.169 45.2395 185.241C46.1106 168.888 47.1007 150.36 37.1235 134.221C22.7621 110.994 18.4256 99.2494 21.1151 90.9021C24.1187 81.5855 35.9144 76.6731 55.4548 68.53C62.0143 65.7982 69.4496 62.7006 77.7323 58.9474C88.5664 54.0396 98.9721 48.3718 109.035 42.8892C134.887 28.8075 157.212 16.6451 174.325 24.3036C185.678 29.3871 193.794 43.0413 199.14 66.0405C205.975 95.4582 219.97 110.851 231.219 123.218C240.32 133.228 247.513 141.134 245.77 152.384C243.928 164.313 236.931 173.103 224.383 179.265C213.292 184.709 198.921 187.65 185.026 190.491C173.083 192.933 160.73 195.46 150.363 199.57C110.258 215.448 83.8538 223.03 67.5694 223.035ZM162.644 23.3582C147.859 23.3582 129.88 33.1546 109.72 44.134C99.6337 49.626 89.209 55.3081 78.3226 60.2396C70.0209 64.0023 62.5712 67.1047 56.0022 69.8412C36.8379 77.8275 25.2755 82.645 22.4717 91.3344C19.9298 99.2304 24.2282 110.647 38.3373 133.47C48.5526 149.989 47.5482 168.755 46.6676 185.317C45.8917 199.827 45.2252 212.355 53.1842 218.061C64.6514 226.284 94.4595 220.17 149.839 198.24C160.326 194.087 172.74 191.546 184.745 189.089C213.377 183.232 240.42 177.697 244.366 152.16C245.999 141.585 239.358 134.283 230.167 124.173C219.409 112.343 204.676 96.1423 197.755 66.3588C192.519 43.8204 184.664 30.4846 173.744 25.6006C170.284 24.0518 166.576 23.3582 162.644 23.3582Z" fill="url(#paint4_linear_2071_87506)"/>
<path d="M145.806 176.655L121.596 179.798L125.255 207.871L149.465 204.728L145.806 176.655Z" fill="#028EB5"/>
<path d="M145.81 176.653L125.744 179.258L129.403 207.331L149.469 204.725L145.81 176.653Z" fill="#40DBFF"/>
<path d="M145.81 176.653L125.744 179.258L129.403 207.331L149.469 204.725L145.81 176.653Z" stroke="#028EB5" stroke-width="0.5" stroke-miterlimit="10"/>
<path d="M140.204 213.718C156.969 212.357 170.391 209.192 170.184 206.65C169.976 204.108 156.218 203.151 139.454 204.513C122.689 205.874 109.267 209.039 109.474 211.581C109.681 214.123 123.439 215.08 140.204 213.718Z" fill="#40DBFF" stroke="#028EB5" stroke-width="0.5" stroke-miterlimit="10"/>
<path d="M138.625 207.543C149.622 206.65 158.484 205.269 158.418 204.458C158.352 203.647 149.383 203.714 138.386 204.607C127.388 205.5 118.527 206.881 118.593 207.692C118.659 208.503 127.628 208.436 138.625 207.543Z" fill="#028EB5"/>
<path d="M153.586 203.793C153.6 203.997 147.569 204.515 140.476 205.094C133.384 205.669 128.476 205.874 128.633 205.688C128.942 205.308 132.651 204.866 139.738 204.287C146.826 203.707 153.571 203.588 153.586 203.793Z" fill="#40DBFF"/>
<path d="M217.392 173.654L185.171 176.852C162.222 179.127 139.392 182.51 116.767 186.976L60.0312 198.183C50.8822 199.989 42.0045 194.012 40.2623 184.871L17.999 68.217C15.9855 57.6604 23.2828 47.5885 33.9598 46.1917L88.6825 39.0368C107.59 37.0034 126.554 35.4831 145.547 34.4854L210.695 31.8297C216.021 31.6111 220.539 35.6969 220.848 41.0084L227.855 161.425C228.221 167.64 223.599 173.037 217.392 173.654Z" fill="#40DBFF"/>
<path d="M217.392 173.654L185.171 176.852C162.222 179.127 139.392 182.51 116.767 186.976L60.0312 198.183C50.8822 199.989 42.0045 194.012 40.2623 184.871L17.999 68.217C15.9855 57.6604 23.2828 47.5885 33.9598 46.1917L88.6825 39.0368C107.59 37.0034 126.554 35.4831 145.547 34.4854L210.695 31.8297C216.021 31.6111 220.539 35.6969 220.848 41.0084L227.855 161.425C228.221 167.64 223.599 173.037 217.392 173.654Z" stroke="#028EB5" stroke-width="0.5" stroke-miterlimit="10"/>
<path d="M216.326 164.949L183.604 168.199C163.783 170.166 144.067 173.092 124.526 176.96L64.8244 188.78C62.4348 189.255 60.1214 187.692 59.6644 185.307L36.5206 63.7405C35.7399 59.6404 38.5627 55.7351 42.6897 55.1935L99.821 47.7108C116.277 45.9387 132.776 44.618 149.303 43.7533L207.181 41.4016C211.156 41.2401 214.531 44.3044 214.764 48.2857L221.233 159.215C221.405 162.127 219.239 164.66 216.326 164.949Z" fill="#CCFAFF"/>
<path d="M216.326 164.949L183.604 168.199C163.783 170.166 144.067 173.092 124.526 176.96L64.8244 188.78C62.4348 189.255 60.1214 187.692 59.6644 185.307L36.5206 63.7405C35.7399 59.6404 38.5627 55.7351 42.6897 55.1935L99.821 47.7108C116.277 45.9387 132.776 44.618 149.303 43.7533L207.181 41.4016C211.156 41.2401 214.531 44.3044 214.764 48.2857L221.233 159.215C221.405 162.127 219.239 164.66 216.326 164.949Z" stroke="#68A1AF" stroke-width="0.25" stroke-miterlimit="10"/>
<path opacity="0.4" d="M95.4652 87.1919L61.3397 91.2777C60.6638 91.3584 60.0354 90.8691 59.8926 90.1565L54.3994 62.3493C54.2376 61.5274 54.7755 60.753 55.5561 60.6817L92.7281 57.4416C93.4469 57.3798 94.0848 57.9499 94.1562 58.7196L96.6077 85.6811C96.6743 86.4412 96.1697 87.1064 95.4652 87.1919Z" fill="#028EB5"/>
<path d="M95.4219 86.569L61.7153 90.5978C61.0488 90.6786 60.43 90.1988 60.2872 89.5004L54.8845 62.2586C54.7274 61.4557 55.2605 60.6908 56.0269 60.6243L92.7372 57.4221C93.4464 57.3604 94.0795 57.921 94.1462 58.6764L96.5453 85.0915C96.6167 85.8327 96.1169 86.4883 95.4219 86.569Z" fill="white" stroke="#028EB5" stroke-width="0.25" stroke-miterlimit="10"/>
<path opacity="0.4" d="M100.454 129.488L69.2131 133.279C68.5943 133.355 68.0136 132.861 67.8803 132.148L62.6061 104.317C62.449 103.496 62.9393 102.726 63.6533 102.664L97.6931 99.747C98.35 99.69 98.9403 100.27 99.0117 101.039L101.487 127.996C101.558 128.747 101.101 129.412 100.454 129.488Z" fill="#028EB5"/>
<path d="M100.42 128.872L69.7744 132.587C69.1699 132.658 68.5986 132.178 68.4654 131.48L63.2958 104.214C63.1435 103.412 63.6243 102.651 64.3193 102.594L97.7117 99.7295C98.3591 99.6725 98.9351 100.238 99.0065 100.993L101.434 127.404C101.501 128.145 101.053 128.796 100.42 128.872Z" fill="white" stroke="#028EB5" stroke-width="0.25" stroke-miterlimit="10"/>
<path opacity="0.4" d="M106.042 171.938L77.419 175.464C76.8525 175.535 76.3146 175.036 76.1861 174.314L71.0975 146.317C70.9452 145.49 71.3879 144.72 72.04 144.663L103.238 142.041C103.843 141.989 104.39 142.578 104.461 143.347L106.98 170.447C107.046 171.202 106.632 171.867 106.042 171.938Z" fill="#028EB5"/>
<path d="M106 171.159L78.1099 174.594C77.5577 174.661 77.0341 174.176 76.9055 173.473L71.9455 146.188C71.7979 145.385 72.2311 144.63 72.8642 144.578L103.267 142.022C103.857 141.974 104.391 142.544 104.457 143.295L106.909 169.701C106.975 170.442 106.576 171.088 106 171.159Z" fill="white" stroke="#028EB5" stroke-width="0.25" stroke-miterlimit="10"/>
<path d="M220.948 42.6898L220.849 41.0032C220.849 40.989 220.844 40.9747 220.844 40.9604L220.948 42.6898Z" fill="#028EB5"/>
<path d="M43.1279 45.3745C32.9792 46.719 24.8727 52.1208 28.0334 67.1955L49.6445 183.17C51.3391 192.264 59.8027 198.236 68.4947 196.473L68.8517 196.44L60.0312 198.183C50.8822 199.989 42.0045 194.012 40.2623 184.871L17.999 68.217C15.9855 57.6604 23.2828 47.5884 33.9598 46.1917L38.6248 45.7451" fill="#028EB5"/>
<path d="M213.512 165.225C215.54 164.788 216.877 162.641 216.768 159.738L211.075 48.8891C210.927 44.9269 207.238 41.1451 204.468 41.511L207.343 41.4302C210.228 41.3494 212.965 42.9315 214.136 45.5635C214.497 46.3759 214.726 47.2881 214.759 48.281L221.233 158.887C221.323 161.429 220.29 163.61 217.853 164.569C217.292 164.793 216.697 164.907 216.097 164.968L213.512 165.225Z" fill="#02819E"/>
<g opacity="0.5">
<path opacity="0.4" d="M97.0986 113.607L69.1518 116.072C68.9471 116.091 68.771 115.939 68.752 115.74L68.5758 113.73C68.5568 113.526 68.7091 113.35 68.909 113.331L96.8559 110.865C97.0606 110.846 97.2367 110.998 97.2557 111.198L97.4318 113.208C97.4509 113.407 97.3033 113.588 97.0986 113.607Z" fill="#028EB5"/>
<path opacity="0.4" d="M97.0994 118.453L69.8809 120.852C69.6762 120.871 69.5001 120.719 69.4811 120.519L69.3097 118.576C69.2907 118.372 69.443 118.196 69.6429 118.177L96.8614 115.778C97.0661 115.759 97.2423 115.911 97.2613 116.111L97.4327 118.054C97.4517 118.253 97.3041 118.434 97.0994 118.453Z" fill="#028EB5"/>
<path opacity="0.4" d="M86.2403 124.837L70.7746 126.201C70.5699 126.22 70.3938 126.068 70.3748 125.868L70.1891 123.783C70.1701 123.578 70.3224 123.403 70.5223 123.384L85.988 122.02C86.1927 122.001 86.3688 122.153 86.3879 122.353L86.5735 124.438C86.5926 124.643 86.4403 124.818 86.2403 124.837Z" fill="#028EB5"/>
<path opacity="0.4" d="M70.275 111.156C71.9365 111.156 73.2834 109.811 73.2834 108.153C73.2834 106.495 71.9365 105.15 70.275 105.15C68.6135 105.15 67.2666 106.495 67.2666 108.153C67.2666 109.811 68.6135 111.156 70.275 111.156Z" fill="#028EB5"/>
</g>
<g opacity="0.5">
<path opacity="0.4" d="M103 156.869L77.6284 159.107C77.4237 159.126 77.2476 158.974 77.2285 158.775L77.0714 157.012C77.0524 156.808 77.2047 156.632 77.4046 156.613L102.776 154.375C102.981 154.356 103.157 154.508 103.176 154.708L103.333 156.47C103.352 156.675 103.2 156.85 103 156.869Z" fill="#028EB5"/>
<path opacity="0.4" d="M102.999 161.282L78.2891 163.463C78.0845 163.482 77.9083 163.33 77.8893 163.13L77.737 161.43C77.7179 161.225 77.8702 161.049 78.0702 161.03L102.78 158.85C102.985 158.831 103.161 158.983 103.18 159.182L103.332 160.883C103.351 161.083 103.199 161.263 102.999 161.282Z" fill="#028EB5"/>
<path opacity="0.4" d="M93.1123 167.093L79.0985 168.328C78.8938 168.347 78.7176 168.195 78.6986 167.996L78.5368 166.162C78.5177 165.958 78.67 165.782 78.87 165.763L92.8838 164.527C93.0885 164.508 93.2647 164.661 93.2837 164.86L93.4455 166.694C93.4646 166.898 93.317 167.079 93.1123 167.093Z" fill="#028EB5"/>
<path opacity="0.4" d="M78.6184 154.636C80.1301 154.636 81.3555 153.413 81.3555 151.904C81.3555 150.395 80.1301 149.172 78.6184 149.172C77.1068 149.172 75.8813 150.395 75.8813 151.904C75.8813 153.413 77.1068 154.636 78.6184 154.636Z" fill="#028EB5"/>
</g>
<path d="M51.6438 90.8439C51.2725 90.7632 50.9012 90.7632 50.5442 90.8154C50.3442 89.9317 50.0729 89.0671 49.7349 88.2357C50.5918 87.8413 51.263 87.0574 51.4772 86.0597C51.8389 84.3874 50.7965 82.7436 49.1447 82.392C48.1641 82.183 47.1883 82.4775 46.4838 83.1047C45.9839 82.5678 45.4413 82.0642 44.8701 81.5986C45.0652 81.2946 45.2128 80.9525 45.2937 80.5772C45.6555 78.9048 44.613 77.261 42.9613 76.9095C41.4904 76.5959 40.0385 77.4083 39.4816 78.7718C38.7104 78.5438 37.9298 78.3727 37.1539 78.2635C37.2062 76.8002 36.2209 75.4699 34.7548 75.1611C33.103 74.8096 31.4703 75.8785 31.1037 77.5556C31.0276 77.9119 31.018 78.2682 31.0609 78.615C29.9803 78.8906 28.9236 79.2707 27.9144 79.7553C27.4336 78.9096 26.5721 78.3395 25.582 78.3395C24.073 78.3395 22.8496 79.6602 22.8496 81.2898C22.8496 81.9122 23.0305 82.487 23.3352 82.9621C22.5497 83.727 21.8262 84.5679 21.1836 85.4849C20.9313 85.3424 20.6504 85.2378 20.3553 85.1761C18.7035 84.8245 17.0708 85.8935 16.7043 87.5705C16.3806 89.0671 17.1803 90.5399 18.5417 91.0815C18.2799 92.0126 18.0847 92.9438 17.961 93.875C16.4853 93.8037 15.1287 94.8204 14.8002 96.3265C14.4384 97.9988 15.4809 99.6426 17.1327 99.9942C17.4754 100.065 17.8134 100.075 18.1418 100.032C18.3084 100.878 18.5322 101.7 18.813 102.498C17.9324 102.888 17.2422 103.676 17.0184 104.698C16.6567 106.37 17.6991 108.014 19.3509 108.365C20.2696 108.56 21.1836 108.313 21.8786 107.771C22.4355 108.403 23.0496 108.983 23.7112 109.515C23.5398 109.8 23.4066 110.118 23.3352 110.465C22.9734 112.138 24.0159 113.781 25.6676 114.133C27.148 114.447 28.6142 113.615 29.1616 112.233C29.9375 112.432 30.7277 112.57 31.5179 112.651C31.5321 114.057 32.4984 115.311 33.917 115.615C35.5687 115.967 37.2015 114.898 37.568 113.221C37.6489 112.841 37.6584 112.47 37.6061 112.109C38.5391 111.853 39.453 111.515 40.3384 111.111C40.7573 111.81 41.4475 112.337 42.2996 112.518C43.9514 112.869 45.5841 111.8 45.9506 110.123C46.1458 109.225 45.9316 108.337 45.4413 107.653C46.1506 106.978 46.8075 106.242 47.4025 105.453C47.6167 105.558 47.8499 105.643 48.0927 105.695C49.7445 106.047 51.3772 104.978 51.7437 103.301C52.0436 101.918 51.382 100.56 50.211 99.9277C50.5061 98.9395 50.7203 97.9466 50.8441 96.9631C52.3054 97.0201 53.6525 96.0082 53.9762 94.5116C54.338 92.8346 53.2955 91.1955 51.6438 90.8439ZM44.9224 98.8302C42.6804 104.916 36.5589 108.503 30.6896 106.65C24.8203 104.797 21.6739 98.2886 23.6684 92.1172C25.6581 85.9457 32.032 82.4443 37.9012 84.2971C43.7705 86.15 47.3263 92.3167 44.9224 98.8302Z" fill="#006E87"/>
<path d="M52.5063 91.0236C52.1398 90.9428 51.7733 90.9428 51.421 90.9951C51.2211 90.1162 50.9545 89.261 50.6261 88.4343C51.4686 88.04 52.1303 87.2656 52.3397 86.2774C52.6967 84.6146 51.6733 82.985 50.0453 82.6382C49.079 82.4292 48.1222 82.7237 47.4272 83.3461C46.9322 82.814 46.4038 82.3152 45.8373 81.8496C46.0278 81.5455 46.1753 81.2082 46.2562 80.8329C46.6133 79.17 45.5898 77.5405 43.9618 77.1937C42.5148 76.8849 41.0867 77.6925 40.5345 79.0418C39.7729 78.8137 39.0113 78.6475 38.2449 78.5382C38.2925 77.0844 37.3262 75.7684 35.8839 75.4548C34.2607 75.1033 32.6517 76.1675 32.29 77.8303C32.2138 78.1866 32.2043 78.5382 32.2471 78.8802C31.1809 79.151 30.1431 79.5311 29.1483 80.0157C28.677 79.1748 27.8249 78.6094 26.8539 78.6094C25.3687 78.6094 24.1644 79.9207 24.1644 81.5408C24.1644 82.1584 24.3405 82.7285 24.6404 83.2036C23.8693 83.9637 23.16 84.7999 22.5221 85.7073C22.2699 85.5695 21.9985 85.4603 21.7034 85.3985C20.0802 85.0469 18.4713 86.1111 18.1095 87.774C17.7906 89.261 18.5807 90.7195 19.9136 91.2612C19.6565 92.1828 19.4661 93.1093 19.3424 94.0357C17.8905 93.9644 16.5529 94.9716 16.2292 96.4682C15.8722 98.131 16.8956 99.7606 18.5236 100.107C18.8616 100.179 19.1948 100.188 19.5185 100.145C19.6803 100.982 19.9041 101.803 20.1802 102.592C19.3138 102.977 18.6331 103.766 18.4141 104.773C18.0571 106.436 19.0806 108.065 20.7085 108.412C21.613 108.607 22.5126 108.36 23.1933 107.818C23.7407 108.445 24.3453 109.025 24.9974 109.547C24.8261 109.833 24.6975 110.146 24.6261 110.488C24.2691 112.151 25.2925 113.781 26.9205 114.127C28.3771 114.441 29.8195 113.614 30.3621 112.241C31.1285 112.441 31.9044 112.579 32.6803 112.655C32.6946 114.051 33.6466 115.296 35.0413 115.595C36.6645 115.947 38.2735 114.883 38.6352 113.22C38.7162 112.845 38.7209 112.474 38.6733 112.113C39.592 111.856 40.4917 111.524 41.3628 111.12C41.7722 111.814 42.4529 112.336 43.2954 112.517C44.9186 112.868 46.5276 111.804 46.8893 110.141C47.0797 109.248 46.8703 108.369 46.3895 107.69C47.0893 107.02 47.7319 106.288 48.3174 105.504C48.5316 105.609 48.7553 105.694 48.9981 105.747C50.6213 106.098 52.2302 105.034 52.592 103.371C52.8871 101.998 52.235 100.649 51.083 100.027C51.3782 99.0479 51.5828 98.0645 51.7066 97.081C53.1489 97.138 54.4723 96.1308 54.7912 94.6438C55.1577 93 54.1295 91.3704 52.5063 91.0236ZM45.8945 98.9529C43.6858 104.996 37.6642 108.555 31.8854 106.716C26.1065 104.877 23.0124 98.416 24.9736 92.2873C26.9348 86.1587 33.2039 82.6857 38.9827 84.5243C44.7616 86.3629 48.2555 92.4869 45.8945 98.9529Z" fill="#E1FEFF"/>
<path d="M52.5063 91.0236C52.1398 90.9428 51.7733 90.9428 51.421 90.9951C51.2211 90.1162 50.9545 89.261 50.6261 88.4343C51.4686 88.04 52.1303 87.2656 52.3397 86.2774C52.6967 84.6146 51.6733 82.985 50.0453 82.6382C49.079 82.4292 48.1222 82.7237 47.4272 83.3461C46.9322 82.814 46.4038 82.3152 45.8373 81.8496C46.0278 81.5455 46.1753 81.2082 46.2562 80.8329C46.6133 79.17 45.5898 77.5405 43.9618 77.1937C42.5148 76.8849 41.0867 77.6925 40.5345 79.0418C39.7729 78.8137 39.0113 78.6475 38.2449 78.5382C38.2925 77.0844 37.3262 75.7684 35.8839 75.4548C34.2607 75.1033 32.6517 76.1675 32.29 77.8303C32.2138 78.1866 32.2043 78.5382 32.2471 78.8802C31.1809 79.151 30.1431 79.5311 29.1483 80.0157C28.677 79.1748 27.8249 78.6094 26.8539 78.6094C25.3687 78.6094 24.1644 79.9207 24.1644 81.5408C24.1644 82.1584 24.3405 82.7285 24.6404 83.2036C23.8693 83.9637 23.16 84.7999 22.5221 85.7073C22.2699 85.5695 21.9985 85.4603 21.7034 85.3985C20.0802 85.0469 18.4713 86.1111 18.1095 87.774C17.7906 89.261 18.5807 90.7195 19.9136 91.2612C19.6565 92.1828 19.4661 93.1093 19.3424 94.0357C17.8905 93.9644 16.5529 94.9716 16.2292 96.4682C15.8722 98.131 16.8956 99.7606 18.5236 100.107C18.8616 100.179 19.1948 100.188 19.5185 100.145C19.6803 100.982 19.9041 101.803 20.1802 102.592C19.3138 102.977 18.6331 103.766 18.4141 104.773C18.0571 106.436 19.0806 108.065 20.7085 108.412C21.613 108.607 22.5126 108.36 23.1933 107.818C23.7407 108.445 24.3453 109.025 24.9974 109.547C24.8261 109.833 24.6975 110.146 24.6261 110.488C24.2691 112.151 25.2925 113.781 26.9205 114.127C28.3771 114.441 29.8195 113.614 30.3621 112.241C31.1285 112.441 31.9044 112.579 32.6803 112.655C32.6946 114.051 33.6466 115.296 35.0413 115.595C36.6645 115.947 38.2735 114.883 38.6352 113.22C38.7162 112.845 38.7209 112.474 38.6733 112.113C39.592 111.856 40.4917 111.524 41.3628 111.12C41.7722 111.814 42.4529 112.336 43.2954 112.517C44.9186 112.868 46.5276 111.804 46.8893 110.141C47.0797 109.248 46.8703 108.369 46.3895 107.69C47.0893 107.02 47.7319 106.288 48.3174 105.504C48.5316 105.609 48.7553 105.694 48.9981 105.747C50.6213 106.098 52.2302 105.034 52.592 103.371C52.8871 101.998 52.235 100.649 51.083 100.027C51.3782 99.0479 51.5828 98.0645 51.7066 97.081C53.1489 97.138 54.4723 96.1308 54.7912 94.6438C55.1577 93 54.1295 91.3704 52.5063 91.0236ZM45.8945 98.9529C43.6858 104.996 37.6642 108.555 31.8854 106.716C26.1065 104.877 23.0124 98.416 24.9736 92.2873C26.9348 86.1587 33.2039 82.6857 38.9827 84.5243C44.7616 86.3629 48.2555 92.4869 45.8945 98.9529Z" stroke="#68A1AF" stroke-width="0.5" stroke-miterlimit="10"/>
<path d="M78.7522 133.157C78.2286 133.043 77.705 133.038 77.2004 133.119C76.9148 131.87 76.534 130.658 76.0627 129.485C77.2671 128.929 78.2143 127.827 78.519 126.42C79.0331 124.064 77.5622 121.75 75.2345 121.251C73.8493 120.957 72.4784 121.375 71.4835 122.254C70.7742 121.498 70.0174 120.786 69.2081 120.135C69.4842 119.703 69.6937 119.223 69.8079 118.695C70.322 116.339 68.8511 114.025 66.5234 113.526C64.4527 113.085 62.4059 114.234 61.6157 116.149C60.5256 115.826 59.4308 115.588 58.336 115.436C58.4074 113.374 57.0221 111.502 54.9562 111.061C52.6285 110.567 50.3246 112.073 49.8153 114.434C49.7058 114.937 49.6915 115.441 49.7534 115.926C48.2302 116.31 46.7402 116.852 45.3169 117.536C44.641 116.344 43.4224 115.541 42.0324 115.541C39.9047 115.541 38.1815 117.403 38.1815 119.698C38.1815 120.577 38.4338 121.389 38.8622 122.059C37.7531 123.137 36.7392 124.325 35.83 125.617C35.473 125.418 35.0826 125.271 34.659 125.18C32.3313 124.686 30.0273 126.192 29.518 128.554C29.0563 130.663 30.194 132.734 32.1028 133.504C31.7315 134.815 31.4602 136.131 31.284 137.443C29.2086 137.343 27.2903 138.773 26.8285 140.896C26.3144 143.253 27.7853 145.567 30.113 146.065C30.5938 146.17 31.0746 146.179 31.5363 146.122C31.7696 147.31 32.0885 148.474 32.4836 149.595C31.2459 150.142 30.2701 151.258 29.9559 152.693C29.4419 155.049 30.9127 157.363 33.2405 157.862C34.5352 158.138 35.8252 157.791 36.801 157.021C37.5865 157.909 38.4481 158.731 39.381 159.477C39.1383 159.881 38.9526 160.328 38.8479 160.812C38.3338 163.169 39.8047 165.482 42.1324 165.981C44.2221 166.428 46.288 165.254 47.0592 163.302C48.154 163.587 49.2631 163.777 50.377 163.891C50.396 165.877 51.7622 167.644 53.7614 168.067C56.0892 168.561 58.3931 167.055 58.9024 164.694C59.0167 164.162 59.0262 163.634 58.9548 163.126C60.2686 162.765 61.5586 162.29 62.8057 161.715C63.396 162.698 64.3671 163.444 65.5714 163.701C67.8991 164.195 70.203 162.689 70.7123 160.328C70.9884 159.064 70.6885 157.81 69.9936 156.845C70.9932 155.895 71.9167 154.855 72.7544 153.748C73.0591 153.895 73.3828 154.014 73.7303 154.09C76.058 154.584 78.3619 153.078 78.8712 150.717C79.2949 148.769 78.3619 146.854 76.7149 145.966C77.1338 144.574 77.4337 143.177 77.6098 141.785C79.6709 141.866 81.5655 140.44 82.0272 138.326C82.5508 135.965 81.0799 133.651 78.7522 133.157ZM69.2843 144.412C66.1236 152.992 57.4982 158.043 49.225 155.43C40.9519 152.816 36.525 143.647 39.3287 134.948C42.1372 126.249 51.1148 121.318 59.3879 123.931C67.6611 126.544 72.6688 135.233 69.2843 144.412Z" fill="#006E87"/>
<path d="M79.9668 133.409C79.4479 133.3 78.9338 133.295 78.4388 133.371C78.1579 132.131 77.7819 130.929 77.3201 129.76C78.5054 129.209 79.4384 128.116 79.7383 126.72C80.2429 124.377 78.7958 122.083 76.5062 121.589C75.1448 121.294 73.7976 121.712 72.8171 122.582C72.1221 121.831 71.3747 121.128 70.575 120.477C70.8463 120.049 71.051 119.569 71.1653 119.047C71.6699 116.705 70.2228 114.41 67.9331 113.916C65.8958 113.479 63.8823 114.619 63.1064 116.519C62.0353 116.196 60.9548 115.963 59.879 115.811C59.9504 113.764 58.5842 111.906 56.5516 111.469C54.262 110.975 51.9962 112.476 51.4916 114.814C51.3821 115.313 51.3678 115.811 51.4297 116.291C49.9303 116.676 48.4641 117.208 47.0647 117.888C46.3982 116.7 45.2034 115.906 43.8325 115.906C41.7381 115.906 40.0387 117.755 40.0387 120.035C40.0387 120.904 40.2862 121.712 40.7099 122.377C39.6198 123.446 38.6202 124.624 37.7252 125.907C37.373 125.712 36.9874 125.56 36.5733 125.47C34.2837 124.976 32.0178 126.477 31.5133 128.815C31.061 130.91 32.1749 132.967 34.0599 133.727C33.6982 135.029 33.4268 136.335 33.2555 137.637C31.2134 137.537 29.3236 138.958 28.8714 141.067C28.3668 143.41 29.8139 145.704 32.1035 146.198C32.5795 146.298 33.0508 146.312 33.5078 146.255C33.7362 147.438 34.0504 148.588 34.4407 149.705C33.2221 150.246 32.2606 151.353 31.9559 152.778C31.4514 155.121 32.8985 157.415 35.1881 157.909C36.4638 158.185 37.73 157.838 38.6916 157.078C39.4627 157.962 40.3148 158.774 41.2335 159.515C40.9955 159.914 40.8146 160.361 40.7099 160.841C40.2053 163.183 41.6524 165.478 43.942 165.972C45.9984 166.414 48.031 165.25 48.7926 163.316C49.8731 163.596 50.9632 163.791 52.058 163.9C52.0771 165.872 53.4195 167.625 55.3854 168.048C57.675 168.542 59.9409 167.041 60.4454 164.703C60.5597 164.176 60.5692 163.649 60.4978 163.145C61.7925 162.784 63.0588 162.313 64.2869 161.748C64.8676 162.727 65.8244 163.463 67.0097 163.72C69.2993 164.214 71.5651 162.713 72.0697 160.375C72.341 159.121 72.0459 157.876 71.3652 156.921C72.3458 155.976 73.2597 154.945 74.0833 153.843C74.3831 153.99 74.7021 154.109 75.0448 154.18C77.3344 154.674 79.6003 153.173 80.1048 150.835C80.5237 148.902 79.605 147.001 77.9818 146.118C78.3959 144.735 78.6863 143.348 78.8624 141.97C80.8903 142.051 82.7562 140.635 83.2085 138.535C83.7083 136.198 82.2612 133.903 79.9668 133.409ZM70.6512 144.583C67.538 153.097 59.0507 158.114 50.9109 155.524C42.771 152.93 38.4107 143.828 41.1716 135.19C43.9325 126.553 52.7721 121.66 60.9119 124.249C69.0518 126.848 73.9785 135.471 70.6512 144.583Z" fill="#E1FEFF"/>
<path d="M79.9668 133.409C79.4479 133.3 78.9338 133.295 78.4388 133.371C78.1579 132.131 77.7819 130.929 77.3201 129.76C78.5054 129.209 79.4384 128.116 79.7383 126.72C80.2429 124.377 78.7958 122.083 76.5062 121.589C75.1448 121.294 73.7976 121.712 72.8171 122.582C72.1221 121.831 71.3747 121.128 70.575 120.477C70.8463 120.049 71.051 119.569 71.1653 119.047C71.6699 116.705 70.2228 114.41 67.9331 113.916C65.8958 113.479 63.8823 114.619 63.1064 116.519C62.0353 116.196 60.9548 115.963 59.879 115.811C59.9504 113.764 58.5842 111.906 56.5516 111.469C54.262 110.975 51.9962 112.476 51.4916 114.814C51.3821 115.313 51.3678 115.811 51.4297 116.291C49.9303 116.676 48.4641 117.208 47.0647 117.888C46.3982 116.7 45.2034 115.906 43.8325 115.906C41.7381 115.906 40.0387 117.755 40.0387 120.035C40.0387 120.904 40.2862 121.712 40.7099 122.377C39.6198 123.446 38.6202 124.624 37.7252 125.907C37.373 125.712 36.9874 125.56 36.5733 125.47C34.2837 124.976 32.0178 126.477 31.5133 128.815C31.061 130.91 32.1749 132.967 34.0599 133.727C33.6982 135.029 33.4268 136.335 33.2555 137.637C31.2134 137.537 29.3236 138.958 28.8714 141.067C28.3668 143.41 29.8139 145.704 32.1035 146.198C32.5795 146.298 33.0508 146.312 33.5078 146.255C33.7362 147.438 34.0504 148.588 34.4407 149.705C33.2221 150.246 32.2606 151.353 31.9559 152.778C31.4514 155.121 32.8985 157.415 35.1881 157.909C36.4638 158.185 37.73 157.838 38.6916 157.078C39.4627 157.962 40.3148 158.774 41.2335 159.515C40.9955 159.914 40.8146 160.361 40.7099 160.841C40.2053 163.183 41.6524 165.478 43.942 165.972C45.9984 166.414 48.031 165.25 48.7926 163.316C49.8731 163.596 50.9632 163.791 52.058 163.9C52.0771 165.872 53.4195 167.625 55.3854 168.048C57.675 168.542 59.9409 167.041 60.4454 164.703C60.5597 164.176 60.5692 163.649 60.4978 163.145C61.7925 162.784 63.0588 162.313 64.2869 161.748C64.8676 162.727 65.8244 163.463 67.0097 163.72C69.2993 164.214 71.5651 162.713 72.0697 160.375C72.341 159.121 72.0459 157.876 71.3652 156.921C72.3458 155.976 73.2597 154.945 74.0833 153.843C74.3831 153.99 74.7021 154.109 75.0448 154.18C77.3344 154.674 79.6003 153.173 80.1048 150.835C80.5237 148.902 79.605 147.001 77.9818 146.118C78.3959 144.735 78.6863 143.348 78.8624 141.97C80.8903 142.051 82.7562 140.635 83.2085 138.535C83.7083 136.198 82.2612 133.903 79.9668 133.409ZM70.6512 144.583C67.538 153.097 59.0507 158.114 50.9109 155.524C42.771 152.93 38.4107 143.828 41.1716 135.19C43.9325 126.553 52.7721 121.66 60.9119 124.249C69.0518 126.848 73.9785 135.471 70.6512 144.583Z" stroke="#68A1AF" stroke-width="0.5" stroke-miterlimit="10"/>
<path d="M124.844 42.6887C125.991 42.6887 126.92 41.7613 126.92 40.6173C126.92 39.4733 125.991 38.5459 124.844 38.5459C123.698 38.5459 122.769 39.4733 122.769 40.6173C122.769 41.7613 123.698 42.6887 124.844 42.6887Z" fill="#007793"/>
<path d="M125.088 42.2801C126.1 42.2801 126.92 41.4442 126.92 40.413C126.92 39.3818 126.1 38.5459 125.088 38.5459C124.075 38.5459 123.255 39.3818 123.255 40.413C123.255 41.4442 124.075 42.2801 125.088 42.2801Z" fill="#028EB5"/>
<path opacity="0.4" d="M195.622 157.856L114.914 169.871C113.695 170.052 112.581 169.315 112.491 168.27L103.432 61.3364C103.385 60.7663 103.903 60.2579 104.579 60.2152L187.149 55.0652C187.972 55.0129 188.677 55.5307 188.734 56.2291L197.098 156.26C197.16 157.029 196.517 157.723 195.622 157.856Z" fill="#028EB5"/>
<path d="M198.359 156.284L115.857 168.565C114.733 168.731 113.71 168.061 113.629 167.102L104.394 58.1679C104.346 57.5882 104.875 57.0704 105.56 57.0276L189.539 51.7921C190.391 51.7399 191.119 52.272 191.181 52.9893L199.697 154.844C199.749 155.538 199.169 156.165 198.359 156.284Z" fill="white"/>
<path d="M115.51 168.65C115.015 168.65 114.548 168.498 114.182 168.208C113.82 167.923 113.601 167.533 113.568 167.11L104.333 58.1764C104.309 57.9104 104.399 57.6491 104.59 57.4305C104.823 57.1645 105.175 56.9982 105.556 56.9744L189.535 51.7389C190.425 51.6819 191.172 52.233 191.239 52.9884L199.755 154.843C199.817 155.561 199.207 156.217 198.37 156.345L198.36 156.288L198.37 156.345L115.867 168.626C115.748 168.645 115.629 168.65 115.51 168.65ZM189.658 51.8529C189.62 51.8529 189.582 51.8529 189.544 51.8577L105.566 57.0932C105.213 57.117 104.89 57.269 104.68 57.5113C104.514 57.7013 104.433 57.9341 104.452 58.1669L113.687 167.101C113.72 167.49 113.925 167.852 114.258 168.118C114.681 168.455 115.262 168.597 115.848 168.507L198.351 156.226C199.126 156.112 199.688 155.509 199.631 154.853L191.12 52.9979C191.063 52.3375 190.43 51.8529 189.658 51.8529Z" fill="#028EB5"/>
<path d="M135.116 98.9866L127.124 99.8988C125.867 100.041 124.734 99.1434 124.587 97.8891L123.549 88.8196C123.406 87.5654 124.306 86.4347 125.563 86.2874L133.555 85.3752C134.812 85.2327 135.945 86.1306 136.092 87.3849L137.13 96.4544C137.273 97.7086 136.373 98.8441 135.116 98.9866Z" fill="#CCFAFF"/>
<path d="M137.572 126.756L129.58 127.668C128.323 127.811 127.19 126.913 127.043 125.659L126.005 116.589C125.862 115.335 126.762 114.204 128.019 114.057L136.011 113.145C137.268 113.002 138.401 113.9 138.548 115.154L139.586 124.224C139.733 125.483 138.829 126.614 137.572 126.756Z" fill="#CCFAFF"/>
<path d="M140.019 154.365L132.026 155.277C130.77 155.419 129.637 154.521 129.489 153.267L128.451 144.198C128.309 142.943 129.208 141.813 130.465 141.665L138.457 140.753C139.714 140.611 140.847 141.509 140.994 142.763L142.032 151.832C142.175 153.087 141.275 154.222 140.019 154.365Z" fill="#CCFAFF"/>
<path d="M149.472 68.6578L111.848 71.9739C111.386 72.0167 110.981 71.6746 110.943 71.2185L110.106 61.7547C110.063 61.2843 110.42 60.8758 110.891 60.8473L148.615 58.6618C149.067 58.6381 149.458 58.9707 149.496 59.422L150.234 67.7504C150.272 68.2112 149.934 68.615 149.472 68.6578Z" fill="#40DBFF"/>
<path d="M183.146 88.649L142.561 92.2264C141.613 92.3119 140.78 91.6135 140.695 90.6681L140.376 87.0812C140.29 86.1357 140.99 85.3043 141.937 85.2188L182.522 81.6414C183.469 81.5558 184.302 82.2542 184.388 83.1997L184.707 86.7866C184.793 87.732 184.093 88.5635 183.146 88.649Z" fill="#CCFAFF"/>
<path d="M185.507 115.354L145.098 119.535C144.122 119.635 143.247 118.927 143.147 117.953L142.785 114.49C142.685 113.516 143.394 112.642 144.37 112.542L184.779 108.361C185.755 108.261 186.631 108.969 186.73 109.943L187.092 113.406C187.192 114.38 186.483 115.255 185.507 115.354Z" fill="#CCFAFF"/>
<path d="M187.744 141.983L147.854 147.19C146.774 147.333 145.779 146.568 145.636 145.489L145.236 142.43C145.094 141.351 145.86 140.358 146.941 140.216L186.831 135.009C187.911 134.866 188.906 135.631 189.049 136.71L189.449 139.769C189.587 140.852 188.825 141.841 187.744 141.983Z" fill="#CCFAFF"/>
<path d="M130.897 96.3887L127.203 94.2223C126.865 94.0228 126.751 93.5857 126.951 93.2484C127.151 92.9111 127.589 92.7971 127.927 92.9966L130.069 94.2508L131.573 89.4096C131.692 89.0343 132.092 88.8253 132.468 88.9393C132.844 89.0581 133.054 89.4572 132.939 89.8325L130.897 96.3887Z" fill="#40DBFF"/>
<path d="M133.354 124.129L129.66 121.962C129.322 121.763 129.208 121.326 129.408 120.988C129.608 120.651 130.046 120.537 130.383 120.737L132.526 121.991L134.03 117.15C134.149 116.774 134.549 116.561 134.925 116.679C135.301 116.798 135.51 117.197 135.396 117.573L133.354 124.129Z" fill="#40DBFF"/>
<path d="M135.7 151.328L132.007 149.161C131.669 148.962 131.554 148.525 131.754 148.187C131.954 147.85 132.392 147.736 132.73 147.936L134.872 149.19L136.376 144.349C136.495 143.973 136.895 143.764 137.271 143.878C137.647 143.997 137.857 144.396 137.743 144.771L135.7 151.328Z" fill="#40DBFF"/>
<g opacity="0.5">
<path opacity="0.4" d="M91.4619 71.8445L62.0489 74.4385C61.8442 74.4575 61.6681 74.3055 61.649 74.106L61.4586 71.9586C61.4396 71.7543 61.5919 71.5785 61.7918 71.5595L91.2048 68.9655C91.4095 68.9465 91.5856 69.0985 91.6047 69.298L91.7951 71.4455C91.8141 71.645 91.6618 71.8255 91.4619 71.8445Z" fill="#028EB5"/>
<path opacity="0.4" d="M91.4612 76.9377L62.8147 79.4652C62.61 79.4842 62.4338 79.3322 62.4148 79.1326L62.2291 77.0517C62.2101 76.8474 62.3624 76.6716 62.5624 76.6526L91.2089 74.1251C91.4136 74.1061 91.5897 74.2582 91.6088 74.4577L91.7944 76.5386C91.8135 76.7429 91.6612 76.9187 91.4612 76.9377Z" fill="#028EB5"/>
<path opacity="0.4" d="M80.0466 83.6517L63.7479 85.0913C63.5432 85.1103 63.3671 84.9582 63.348 84.7587L63.1481 82.5258C63.1291 82.3215 63.2814 82.1457 63.4813 82.1267L79.7753 80.6872C79.98 80.6681 80.1561 80.8202 80.1751 81.0197L80.3751 83.2527C80.3989 83.4569 80.2465 83.6327 80.0466 83.6517Z" fill="#028EB5"/>
<path opacity="0.4" d="M63.2477 69.2658C64.9933 69.2658 66.4084 67.8534 66.4084 66.1112C66.4084 64.3689 64.9933 62.9565 63.2477 62.9565C61.502 62.9565 60.0869 64.3689 60.0869 66.1112C60.0869 67.8534 61.502 69.2658 63.2477 69.2658Z" fill="#028EB5"/>
</g>
<path d="M67.2702 220.921C70.9928 220.921 74.0105 217.909 74.0105 214.194C74.0105 210.479 70.9928 207.467 67.2702 207.467C63.5476 207.467 60.5298 210.479 60.5298 214.194C60.5298 217.909 63.5476 220.921 67.2702 220.921Z" fill="url(#paint5_linear_2071_87506)"/>
<path d="M235.476 153.784C238.028 153.784 240.098 151.719 240.098 149.171C240.098 146.623 238.028 144.558 235.476 144.558C232.923 144.558 230.854 146.623 230.854 149.171C230.854 151.719 232.923 153.784 235.476 153.784Z" fill="url(#paint6_linear_2071_87506)"/>
<defs>
<linearGradient id="paint0_linear_2071_87506" x1="101.084" y1="14.7439" x2="111.627" y2="29.5275" gradientUnits="userSpaceOnUse">
<stop offset="8.79085e-07" stop-color="#E6FAFA"/>
<stop offset="0.9943" stop-color="#E4FAFA"/>
</linearGradient>
<linearGradient id="paint1_linear_2071_87506" x1="228.307" y1="68.6573" x2="234.693" y2="77.612" gradientUnits="userSpaceOnUse">
<stop offset="8.79085e-07" stop-color="#E6FAFA"/>
<stop offset="0.9943" stop-color="#E4FAFA"/>
</linearGradient>
<linearGradient id="paint2_linear_2071_87506" x1="199.083" y1="19.2322" x2="57.8451" y2="241.287" gradientUnits="userSpaceOnUse">
<stop offset="8.79085e-07" stop-color="#E6FAFA"/>
<stop offset="0.9943" stop-color="#E4FAFA"/>
</linearGradient>
<linearGradient id="paint3_linear_2071_87506" x1="-0.00080662" y1="120.5" x2="271.001" y2="120.5" gradientUnits="userSpaceOnUse">
<stop offset="0.00571309" stop-color="#E4FAFA"/>
<stop offset="1" stop-color="#E6FAFA"/>
</linearGradient>
<linearGradient id="paint4_linear_2071_87506" x1="20.363" y1="122.482" x2="246.033" y2="122.482" gradientUnits="userSpaceOnUse">
<stop offset="0.00571309" stop-color="#E4FAFA"/>
<stop offset="1" stop-color="#E6FAFA"/>
</linearGradient>
<linearGradient id="paint5_linear_2071_87506" x1="58.8508" y1="220.196" x2="73.9156" y2="209.41" gradientUnits="userSpaceOnUse">
<stop offset="0.00571378" stop-color="#C5FAFA"/>
<stop offset="1" stop-color="#D7FAFA"/>
</linearGradient>
<linearGradient id="paint6_linear_2071_87506" x1="229.703" y1="153.287" x2="240.033" y2="145.891" gradientUnits="userSpaceOnUse">
<stop offset="0.00571378" stop-color="#C5FAFA"/>
<stop offset="1" stop-color="#D7FAFA"/>
</linearGradient>
</defs>
</svg>
