<svg width="276" height="223" viewBox="0 0 276 223" fill="none" xmlns="http://www.w3.org/2000/svg">
<path d="M67.3444 25.6992C69.5979 25.6992 71.4247 23.8784 71.4247 21.6323C71.4247 19.3862 69.5979 17.5654 67.3444 17.5654C65.091 17.5654 63.2642 19.3862 63.2642 21.6323C63.2642 23.8784 65.091 25.6992 67.3444 25.6992Z" fill="url(#paint0_linear_2071_87505)"/>
<path d="M186.118 204.033C189.685 204.033 192.576 201.152 192.576 197.597C192.576 194.042 189.685 191.16 186.118 191.16C182.552 191.16 179.661 194.042 179.661 197.597C179.661 201.152 182.552 204.033 186.118 204.033Z" fill="url(#paint1_linear_2071_87505)"/>
<path d="M267.664 106.289C269.825 106.289 271.576 104.543 271.576 102.389C271.576 100.235 269.825 98.4888 267.664 98.4888C265.503 98.4888 263.751 100.235 263.751 102.389C263.751 104.543 265.503 106.289 267.664 106.289Z" fill="url(#paint2_linear_2071_87505)"/>
<path opacity="0.8" d="M73.439 28.3367C123.109 37.6715 109.826 -21.449 178.409 13.5948C215.494 32.5427 316.006 110.889 224.059 157.434C164.2 187.734 163.418 218.182 109.175 214.648C40.7645 210.192 10.3837 144.505 6.81055 114.479C2.81405 80.8538 6.38718 15.7372 73.439 28.3367Z" fill="url(#paint3_linear_2071_87505)"/>
<path d="M67.1399 21.9078C71.1457 22.6405 75.2027 23.1506 79.2736 23.234C83.3445 23.3175 87.4341 22.979 91.398 22.0423C95.362 21.1148 99.1677 19.5706 102.732 17.6044C106.3 15.6428 109.64 13.3057 113.018 11.0288C116.391 8.75185 119.853 6.55843 123.575 4.8751C127.287 3.17786 131.251 2.02781 135.294 1.45743C139.342 0.89632 143.45 0.873133 147.517 1.22557C151.583 1.58264 155.616 2.26431 159.59 3.19641C167.541 5.04668 175.283 7.68064 182.862 10.6856C190.464 13.6488 197.791 17.2752 204.896 21.2771C211.996 25.2837 218.863 29.7077 225.464 34.4887C232.057 39.279 238.389 44.4449 244.321 50.0375C250.244 55.6393 255.785 61.6631 260.614 68.2387C265.425 74.8097 269.561 81.9558 272.199 89.6954C273.511 93.5582 274.423 97.5695 274.804 101.641C275.19 105.708 275.018 109.84 274.241 113.856C273.469 117.876 272.101 121.776 270.245 125.416C268.388 129.066 266.058 132.46 263.424 135.586C258.148 141.851 251.714 147.035 244.893 151.506C241.474 153.736 237.943 155.795 234.337 157.715C230.726 159.63 227.037 161.355 223.45 163.27C216.253 167.064 209.251 171.228 202.514 175.782C195.768 180.326 189.31 185.283 183.057 190.486C176.785 195.666 170.742 201.129 164.293 206.151C161.069 208.651 157.729 211.03 154.197 213.107C150.671 215.185 146.968 216.988 143.106 218.38C135.392 221.218 127.19 222.484 119.029 222.859C114.94 223.054 110.845 223.035 106.765 222.855C102.68 222.697 98.6001 222.321 94.5431 221.783C86.4385 220.689 78.4222 218.792 70.7409 215.94C63.0643 213.098 55.7413 209.286 49.0417 204.579C45.6919 202.228 42.4909 199.664 39.4761 196.904C36.4659 194.136 33.6279 191.177 30.976 188.07C25.6768 181.843 21.136 174.993 17.3302 167.773C13.5245 160.548 10.4585 152.957 8.01125 145.18C5.56868 137.404 3.75886 129.432 2.57247 121.373C1.46983 113.304 0.650991 105.207 0.246223 97.0779C-0.144587 88.9534 -0.107367 80.7872 0.697516 72.6812C1.52101 64.5892 3.09355 56.5111 6.11303 48.9245C7.62509 45.1405 9.50935 41.491 11.8496 38.1475C14.1851 34.804 16.9999 31.7805 20.2194 29.2671C23.4389 26.7491 27.0586 24.7551 30.8876 23.3361C34.7166 21.9031 38.7364 21.0267 42.7887 20.5723C50.912 19.6726 59.1329 20.4099 67.1399 21.9078ZM67.1213 22.0005C59.119 20.5259 50.9073 19.8164 42.8027 20.7299C38.7596 21.1936 34.7585 22.084 30.9527 23.5169C27.147 24.9406 23.5506 26.9392 20.359 29.448C17.1627 31.9521 14.3945 34.9802 12.0868 38.3144C9.7792 41.6486 7.9275 45.2843 6.44335 49.059C3.48436 56.6177 1.963 64.668 1.19068 72.7323C0.427671 80.8104 0.423018 88.9488 0.851048 97.0501C1.29304 105.151 2.14444 113.239 3.27965 121.271C4.49396 129.288 6.33169 137.209 8.79287 144.935C11.2587 152.656 14.348 160.187 18.1444 167.342C21.9222 174.506 26.4259 181.3 31.6739 187.472C34.3025 190.556 37.108 193.482 40.0902 196.227C43.0772 198.963 46.2455 201.505 49.5627 203.828C56.1972 208.488 63.4458 212.263 71.0526 215.083C78.6595 217.911 86.6106 219.785 94.6548 220.879C98.6792 221.422 102.727 221.802 106.789 221.964C110.85 222.15 114.916 222.173 118.973 221.987C127.078 221.63 135.192 220.392 142.808 217.601C146.619 216.233 150.28 214.456 153.774 212.411C157.273 210.362 160.585 208.011 163.8 205.53C170.221 200.549 176.278 195.096 182.568 189.916C188.845 184.713 195.33 179.747 202.104 175.197C208.869 170.639 215.899 166.47 223.124 162.677C226.73 160.762 230.429 159.032 234.016 157.135C237.608 155.229 241.125 153.189 244.53 150.972C251.323 146.534 257.716 141.396 262.95 135.201C265.56 132.108 267.872 128.755 269.71 125.157C271.548 121.558 272.906 117.714 273.674 113.749C274.446 109.789 274.623 105.713 274.246 101.692C273.874 97.6668 272.981 93.6973 271.682 89.867C269.077 82.1923 264.983 75.0787 260.2 68.5355C255.399 61.9831 249.885 55.9732 243.991 50.376C238.091 44.7834 231.787 39.6129 225.218 34.8133C218.644 30.0184 211.8 25.5898 204.724 21.5646C197.643 17.5534 190.338 13.9131 182.755 10.9314C175.194 7.90787 167.466 5.25535 159.534 3.38653C155.57 2.45444 151.546 1.76813 147.489 1.41106C143.436 1.05399 139.337 1.07254 135.304 1.62901C131.275 2.19012 127.329 3.33552 123.626 5.01885C119.913 6.69291 116.461 8.87242 113.083 11.1493C109.706 13.4169 106.36 15.7588 102.778 17.7203C99.2049 19.6865 95.3899 21.2307 91.4073 22.1582C87.4294 23.0949 83.3306 23.4242 79.255 23.3407C75.1887 23.2526 71.1317 22.7379 67.1213 22.0005Z" fill="url(#paint4_linear_2071_87505)"/>
<g style="mix-blend-mode:multiply" opacity="0.5">
<path d="M67.1399 21.9078C71.1457 22.6405 75.2027 23.1506 79.2736 23.234C83.3445 23.3175 87.4341 22.979 91.398 22.0423C95.362 21.1148 99.1677 19.5706 102.732 17.6044C106.3 15.6428 109.64 13.3057 113.018 11.0288C116.391 8.75185 119.853 6.55843 123.575 4.8751C127.287 3.17786 131.251 2.02781 135.294 1.45743C139.342 0.89632 143.45 0.873133 147.517 1.22557C151.583 1.58264 155.616 2.26431 159.59 3.19641C167.541 5.04668 175.283 7.68064 182.862 10.6856C190.464 13.6488 197.791 17.2752 204.896 21.2771C211.996 25.2837 218.863 29.7077 225.464 34.4887C232.057 39.279 238.389 44.4449 244.321 50.0375C250.244 55.6393 255.785 61.6631 260.614 68.2387C265.425 74.8097 269.561 81.9558 272.199 89.6954C273.511 93.5582 274.423 97.5695 274.804 101.641C275.19 105.708 275.018 109.84 274.241 113.856C273.469 117.876 272.101 121.776 270.245 125.416C268.388 129.066 266.058 132.46 263.424 135.586C258.148 141.851 251.714 147.035 244.893 151.506C241.474 153.736 237.943 155.795 234.337 157.715C230.726 159.63 227.037 161.355 223.45 163.27C216.253 167.064 209.251 171.228 202.514 175.782C195.768 180.326 189.31 185.283 183.057 190.486C176.785 195.666 170.742 201.129 164.293 206.151C161.069 208.651 157.729 211.03 154.197 213.107C150.671 215.185 146.968 216.988 143.106 218.38C135.392 221.218 127.19 222.484 119.029 222.859C114.94 223.054 110.845 223.035 106.765 222.855C102.68 222.697 98.6001 222.321 94.5431 221.783C86.4385 220.689 78.4222 218.792 70.7409 215.94C63.0643 213.098 55.7413 209.286 49.0417 204.579C45.6919 202.228 42.4909 199.664 39.4761 196.904C36.4659 194.136 33.6279 191.177 30.976 188.07C25.6768 181.843 21.136 174.993 17.3302 167.773C13.5245 160.548 10.4585 152.957 8.01125 145.18C5.56868 137.404 3.75886 129.432 2.57247 121.373C1.46983 113.304 0.650991 105.207 0.246223 97.0779C-0.144587 88.9534 -0.107367 80.7872 0.697516 72.6812C1.52101 64.5892 3.09355 56.5111 6.11303 48.9245C7.62509 45.1405 9.50935 41.491 11.8496 38.1475C14.1851 34.804 16.9999 31.7805 20.2194 29.2671C23.4389 26.7491 27.0586 24.7551 30.8876 23.3361C34.7166 21.9031 38.7364 21.0267 42.7887 20.5723C50.912 19.6726 59.1329 20.4099 67.1399 21.9078ZM67.1213 22.0005C59.119 20.5259 50.9073 19.8164 42.8027 20.7299C38.7596 21.1936 34.7585 22.084 30.9527 23.5169C27.147 24.9406 23.5506 26.9392 20.359 29.448C17.1627 31.9521 14.3945 34.9802 12.0868 38.3144C9.7792 41.6486 7.9275 45.2843 6.44335 49.059C3.48436 56.6177 1.963 64.668 1.19068 72.7323C0.427671 80.8104 0.423018 88.9488 0.851048 97.0501C1.29304 105.151 2.14444 113.239 3.27965 121.271C4.49396 129.288 6.33169 137.209 8.79287 144.935C11.2587 152.656 14.348 160.187 18.1444 167.342C21.9222 174.506 26.4259 181.3 31.6739 187.472C34.3025 190.556 37.108 193.482 40.0902 196.227C43.0772 198.963 46.2455 201.505 49.5627 203.828C56.1972 208.488 63.4458 212.263 71.0526 215.083C78.6595 217.911 86.6106 219.785 94.6548 220.879C98.6792 221.422 102.727 221.802 106.789 221.964C110.85 222.15 114.916 222.173 118.973 221.987C127.078 221.63 135.192 220.392 142.808 217.601C146.619 216.233 150.28 214.456 153.774 212.411C157.273 210.362 160.585 208.011 163.8 205.53C170.221 200.549 176.278 195.096 182.568 189.916C188.845 184.713 195.33 179.747 202.104 175.197C208.869 170.639 215.899 166.47 223.124 162.677C226.73 160.762 230.429 159.032 234.016 157.135C237.608 155.229 241.125 153.189 244.53 150.972C251.323 146.534 257.716 141.396 262.95 135.201C265.56 132.108 267.872 128.755 269.71 125.157C271.548 121.558 272.906 117.714 273.674 113.749C274.446 109.789 274.623 105.713 274.246 101.692C273.874 97.6668 272.981 93.6973 271.682 89.867C269.077 82.1923 264.983 75.0787 260.2 68.5355C255.399 61.9831 249.885 55.9732 243.991 50.376C238.091 44.7834 231.787 39.6129 225.218 34.8133C218.644 30.0184 211.8 25.5898 204.724 21.5646C197.643 17.5534 190.338 13.9131 182.755 10.9314C175.194 7.90787 167.466 5.25535 159.534 3.38653C155.57 2.45444 151.546 1.76813 147.489 1.41106C143.436 1.05399 139.337 1.07254 135.304 1.62901C131.275 2.19012 127.329 3.33552 123.626 5.01885C119.913 6.69291 116.461 8.87242 113.083 11.1493C109.706 13.4169 106.36 15.7588 102.778 17.7203C99.2049 19.6865 95.3899 21.2307 91.4073 22.1582C87.4294 23.0949 83.3306 23.4242 79.255 23.3407C75.1887 23.2526 71.1317 22.7379 67.1213 22.0005Z" fill="url(#paint5_linear_2071_87505)"/>
</g>
<path d="M80.4504 38.5625C83.5954 39.3091 86.7871 39.8748 90.0112 40.1067C93.2308 40.3339 96.4829 40.2551 99.6698 39.7171C102.857 39.1978 105.965 38.2378 108.933 36.9672C111.906 35.7013 114.749 34.1478 117.582 32.5943C120.42 31.0454 123.267 29.4966 126.254 28.2353C129.236 26.9739 132.358 26.0186 135.559 25.49C141.98 24.4373 148.568 25.0541 154.867 26.5195C161.19 27.9756 167.303 30.1968 173.254 32.7427C176.227 34.0179 179.176 35.3627 182.061 36.842C184.945 38.3213 187.77 39.9026 190.542 41.572C196.093 44.9109 201.439 48.5836 206.566 52.5345C211.688 56.4901 216.601 60.7332 221.202 65.2917C225.804 69.8455 230.089 74.7378 233.871 80.0011C237.635 85.269 240.901 90.9497 243.111 97.0709C245.307 103.169 246.377 109.796 245.456 116.288C245.005 119.525 244.074 122.692 242.716 125.664C241.357 128.637 239.584 131.41 237.533 133.946C233.411 139.02 228.274 143.161 222.789 146.634C220.035 148.364 217.201 149.959 214.293 151.406C212.847 152.138 211.372 152.825 209.897 153.497L205.454 155.449C199.559 158.07 193.79 160.972 188.207 164.195C182.624 167.423 177.241 170.98 172.03 174.778C166.805 178.562 161.785 182.624 156.551 186.459C151.331 190.285 145.757 193.823 139.598 196.091C133.456 198.405 126.892 199.397 120.383 199.587C113.86 199.74 107.351 199.258 100.917 198.247C94.4869 197.227 88.1363 195.585 82.0601 193.197C75.9886 190.818 70.1916 187.702 64.9157 183.857C59.6351 180.022 54.8616 175.496 50.7534 170.442C46.622 165.401 43.142 159.85 40.2574 154.026C37.3682 148.197 35.121 142.076 33.3717 135.829C31.6363 129.578 30.4034 123.193 29.6823 116.751C29.3101 113.524 29.1333 110.296 28.9146 107.083C28.7052 103.86 28.5191 100.637 28.4028 97.4048C28.1656 90.9497 28.1563 84.4668 28.6959 78.0164C29.2449 71.5752 30.2917 65.1247 32.4552 58.9989C32.9995 57.4686 33.6229 55.9708 34.3162 54.5008C35.014 53.0354 35.8143 51.6164 36.6889 50.2484C38.4569 47.5263 40.611 45.0314 43.1606 43.005C44.426 41.9848 45.7799 41.0666 47.2129 40.3014C48.6366 39.5224 50.13 38.8546 51.67 38.3352C54.736 37.2455 57.9741 36.7122 61.2076 36.485C64.4458 36.2624 67.6978 36.4293 70.9174 36.8003C74.1183 37.1898 77.3053 37.8019 80.4504 38.5625ZM80.4178 38.7016C77.2727 37.955 74.0904 37.3614 70.8755 36.9997C67.6653 36.6473 64.4271 36.4942 61.2076 36.7354C57.9927 36.9811 54.7872 37.5283 51.7537 38.6227C50.2324 39.1421 48.7622 39.8145 47.3571 40.5936C45.9428 41.3587 44.6121 42.2723 43.3699 43.2878C42.1231 44.2941 40.9646 45.4163 39.9224 46.6359C38.8803 47.8509 37.9079 49.1354 37.0611 50.4988C36.2144 51.8575 35.4421 53.2672 34.7675 54.7233C34.1021 56.1841 33.4973 57.6726 32.9809 59.189C30.9105 65.2731 29.9335 71.6772 29.4636 78.0813C28.9984 84.4946 29.0821 90.9404 29.3892 97.3677C29.5427 100.581 29.766 103.795 30.0079 107.009C30.2685 110.227 30.4592 113.44 30.85 116.622C32.3761 129.36 35.8189 141.923 41.5043 153.418C44.347 159.159 47.7712 164.617 51.8282 169.575C55.8665 174.541 60.5516 178.984 65.7298 182.749C70.9034 186.524 76.5934 189.584 82.5626 191.926C88.5317 194.282 94.7894 195.886 101.131 196.916C107.472 197.936 113.925 198.437 120.346 198.307C126.757 198.14 133.168 197.19 139.165 194.954C145.185 192.761 150.661 189.32 155.863 185.536C161.069 181.747 166.121 177.694 171.379 173.906C176.622 170.103 182.052 166.537 187.681 163.305C193.306 160.077 199.117 157.17 205.049 154.554L209.492 152.616C210.958 151.953 212.423 151.276 213.861 150.553C216.745 149.124 219.56 147.557 222.286 145.85C227.716 142.428 232.792 138.361 236.839 133.399C238.854 130.918 240.594 128.215 241.929 125.316C243.265 122.423 244.176 119.339 244.628 116.186C245.549 109.86 244.525 103.368 242.376 97.3538C240.217 91.316 237.002 85.6818 233.28 80.4463C229.544 75.2062 225.287 70.3463 220.733 65.7832C216.178 61.2248 211.307 56.9724 206.221 53.0029C201.132 49.038 195.818 45.3468 190.305 41.9894C187.546 40.3107 184.736 38.7155 181.875 37.2269C179.014 35.7384 176.078 34.3843 173.114 33.0951C167.187 30.5307 161.106 28.2816 154.811 26.8023C148.54 25.3184 141.989 24.6785 135.596 25.6987C132.409 26.2134 129.297 27.1501 126.319 28.3976C123.337 29.6357 120.485 31.1753 117.652 32.7288C114.818 34.2823 111.976 35.8404 108.993 37.1064C106.016 38.3816 102.899 39.3415 99.6977 39.8655C96.4968 40.4035 93.2354 40.4869 90.0066 40.2551C86.7684 40.0139 83.5675 39.4482 80.4178 38.7016Z" fill="url(#paint6_linear_2071_87505)"/>
<g style="mix-blend-mode:multiply" opacity="0.5">
<path d="M80.4504 38.5629C83.5954 39.3095 86.7871 39.8753 90.0112 40.1072C93.2308 40.3344 96.4829 40.2555 99.6698 39.7176C102.857 39.1982 105.965 38.2383 108.933 36.9677C111.906 35.7017 114.749 34.1483 117.582 32.5948C120.42 31.0459 123.267 29.4971 126.254 28.2357C129.236 26.9744 132.358 26.0191 135.559 25.4905C141.98 24.4378 148.568 25.0546 154.867 26.52C161.19 27.9761 167.303 30.1973 173.254 32.7432C176.227 34.0184 179.176 35.3632 182.061 36.8425C184.945 38.3218 187.77 39.9031 190.542 41.5725C196.093 44.9114 201.439 48.5841 206.566 52.535C211.688 56.4906 216.601 60.7337 221.202 65.2922C225.804 69.846 230.089 74.7383 233.871 80.0016C237.635 85.2695 240.901 90.9502 243.111 97.0714C245.307 103.169 246.377 109.796 245.456 116.288C245.005 119.525 244.074 122.692 242.716 125.665C241.357 128.637 239.584 131.41 237.533 133.947C233.411 139.02 228.274 143.161 222.789 146.635C220.035 148.364 217.201 149.959 214.293 151.406C212.847 152.139 211.372 152.825 209.897 153.498L205.454 155.45C199.559 158.07 193.79 160.973 188.207 164.196C182.624 167.423 177.241 170.98 172.03 174.778C166.805 178.562 161.785 182.624 156.551 186.459C151.331 190.285 145.757 193.823 139.598 196.091C133.456 198.405 126.892 199.397 120.383 199.587C113.86 199.741 107.351 199.258 100.917 198.247C94.4869 197.227 88.1363 195.586 82.0601 193.197C75.9886 190.818 70.1916 187.702 64.9157 183.858C59.6351 180.023 54.8616 175.497 50.7534 170.442C46.622 165.402 43.142 159.851 40.2574 154.026C37.3682 148.197 35.121 142.076 33.3717 135.83C31.6363 129.579 30.4034 123.193 29.6823 116.752C29.3101 113.524 29.1333 110.297 28.9146 107.083C28.7052 103.86 28.5191 100.637 28.4028 97.4053C28.1656 90.9502 28.1563 84.4673 28.6959 78.0168C29.2449 71.5757 30.2917 65.1252 32.4552 58.9994C32.9995 57.4691 33.6229 55.9713 34.3162 54.5012C35.014 53.0359 35.8143 51.6169 36.6889 50.2489C38.4569 47.5268 40.611 45.0319 43.1606 43.0054C44.426 41.9852 45.7799 41.0671 47.2129 40.3019C48.6366 39.5229 50.13 38.8551 51.67 38.3357C54.736 37.246 57.9741 36.7127 61.2076 36.4854C64.4458 36.2629 67.6978 36.4298 70.9174 36.8008C74.1183 37.1903 77.3053 37.8024 80.4504 38.5629ZM80.4178 38.7021C77.2727 37.9555 74.0904 37.3619 70.8755 37.0002C67.6653 36.6478 64.4271 36.4947 61.2076 36.7359C57.9927 36.9816 54.7872 37.5288 51.7537 38.6232C50.2324 39.1426 48.7622 39.815 47.3571 40.5941C45.9428 41.3592 44.6121 42.2728 43.3699 43.2883C42.1231 44.2946 40.9646 45.4168 39.9224 46.6364C38.8803 47.8514 37.9079 49.1359 37.0611 50.4993C36.2144 51.858 35.4421 53.2677 34.7675 54.7238C34.1021 56.1846 33.4973 57.6731 32.9809 59.1895C30.9105 65.2736 29.9335 71.6777 29.4636 78.0818C28.9984 84.4951 29.0821 90.9409 29.3892 97.3682C29.5427 100.582 29.766 103.795 30.0079 107.009C30.2685 110.227 30.4592 113.441 30.85 116.622C32.3761 129.361 35.8189 141.923 41.5043 153.419C44.347 159.16 47.7712 164.618 51.8282 169.575C55.8665 174.542 60.5516 178.984 65.7298 182.75C70.9034 186.524 76.5934 189.585 82.5626 191.927C88.5317 194.282 94.7894 195.887 101.131 196.916C107.472 197.937 113.925 198.437 120.346 198.308C126.757 198.141 133.168 197.19 139.165 194.955C145.185 192.761 150.661 189.321 155.863 185.537C161.069 181.748 166.121 177.695 171.379 173.906C176.622 170.104 182.052 166.538 187.681 163.305C193.306 160.078 199.117 157.17 205.049 154.555L209.492 152.617C210.958 151.953 212.423 151.276 213.861 150.553C216.745 149.125 219.56 147.557 222.286 145.851C227.716 142.429 232.792 138.362 236.839 133.4C238.854 130.919 240.594 128.215 241.929 125.317C243.265 122.423 244.176 119.34 244.628 116.186C245.549 109.861 244.525 103.369 242.376 97.3542C240.217 91.3165 237.002 85.6822 233.28 80.4468C229.544 75.2067 225.287 70.3468 220.733 65.7837C216.178 61.2253 211.307 56.9729 206.221 53.0034C201.132 49.0385 195.818 45.3473 190.305 41.9899C187.546 40.3112 184.736 38.716 181.875 37.2274C179.014 35.7388 176.078 34.3848 173.114 33.0956C167.187 30.5312 161.106 28.2821 154.811 26.8028C148.54 25.3189 141.989 24.679 135.596 25.6992C132.409 26.2139 129.297 27.1506 126.319 28.3981C123.337 29.6362 120.485 31.1758 117.652 32.7293C114.818 34.2827 111.976 35.8409 108.993 37.1068C106.016 38.3821 102.899 39.342 99.6977 39.866C96.4968 40.4039 93.2354 40.4874 90.0066 40.2555C86.7684 40.0144 83.5675 39.4487 80.4178 38.7021Z" fill="url(#paint7_linear_2071_87505)"/>
</g>
<path d="M210.806 160.63L182.509 167.038C162.354 171.602 142.432 177.134 122.813 183.607L73.608 199.843C65.6709 202.463 57.1149 198.136 54.5467 190.211L21.7605 89.086C18.7923 79.9367 24.1612 70.1799 33.4988 67.7592L81.3684 55.3406C97.9545 51.4407 114.648 47.9905 131.425 44.9995L189.06 35.4235C193.773 34.6398 198.244 37.7654 199.109 42.449L218.752 148.61C219.766 154.091 216.258 159.392 210.806 160.63Z" fill="#40DBFF"/>
<path d="M210.806 160.63L182.509 167.038C162.354 171.602 142.432 177.134 122.813 183.607L73.608 199.843C65.6709 202.463 57.1149 198.136 54.5467 190.211L21.7605 89.086C18.7923 79.9367 24.1612 70.1799 33.4988 67.7592L81.3684 55.3406C97.9545 51.4407 114.648 47.9905 131.425 44.9995L189.06 35.4235C193.773 34.6398 198.244 37.7654 199.109 42.449L218.752 148.61C219.766 154.091 216.258 159.392 210.806 160.63Z" stroke="#028EB5" stroke-width="0.5" stroke-miterlimit="10"/>
<path d="M208.887 153.014L180.153 159.525C162.748 163.466 145.539 168.247 128.599 173.849L76.826 190.961C74.7556 191.647 72.5224 190.515 71.8524 188.447L37.731 83.056C36.5818 79.5039 38.6522 75.7198 42.2625 74.7831L92.235 61.8127C106.672 58.4182 121.197 55.4179 135.796 52.8164L187.002 44.3163C190.519 43.732 193.86 46.0784 194.511 49.5888L212.618 147.384C213.088 149.949 211.446 152.434 208.887 153.014Z" fill="#CCFAFF"/>
<path d="M208.887 153.014L180.153 159.525C162.748 163.466 145.539 168.247 128.599 173.849L76.826 190.961C74.7556 191.647 72.5224 190.515 71.8524 188.447L37.731 83.056C36.5818 79.5039 38.6522 75.7198 42.2625 74.7831L92.235 61.8127C106.672 58.4182 121.197 55.4179 135.796 52.8164L187.002 44.3163C190.519 43.732 193.86 46.0784 194.511 49.5888L212.618 147.384C213.088 149.949 211.446 152.434 208.887 153.014Z" stroke="#68A1AF" stroke-width="0.25" stroke-miterlimit="10"/>
<path opacity="0.08" d="M130.341 103.373L71.8219 115.671C68.5791 116.353 65.5131 115.277 64.7176 113.176L54.6123 86.4653C53.6772 83.989 56.2547 81.1417 60.093 80.409L124.688 68.0924C128.229 67.42 131.411 68.8251 131.774 71.2272L135.798 97.9518C136.147 100.266 133.737 102.654 130.341 103.373Z" fill="#028EB5"/>
<path opacity="0.08" d="M137.337 146.62L85.922 157.425C83.0747 158.023 80.3111 156.771 79.5295 154.522L69.5685 125.929C68.6426 123.276 70.82 120.364 74.1977 119.733L131 109.137C134.113 108.558 136.988 110.167 137.402 112.713L141.975 141.097C142.371 143.555 140.324 145.994 137.337 146.62Z" fill="#028EB5"/>
<path opacity="0.08" d="M183.913 135.143L156.407 140.926C154.881 141.246 153.257 139.864 152.638 137.731L144.794 110.547C144.069 108.024 145.032 105.515 146.841 105.209L177.343 100.057C179.013 99.7745 180.735 101.49 181.172 103.874L186.025 130.427C186.439 132.727 185.508 134.809 183.913 135.143Z" fill="#028EB5"/>
<path opacity="0.08" d="M177.121 93.8717L145.735 99.3158C143.995 99.6173 142.255 98.2493 141.701 96.1532L134.681 69.4426C134.029 66.9663 135.285 64.5131 137.346 64.2256L172.059 59.4261C173.962 59.1617 175.785 60.859 176.116 63.2008L179.805 89.2669C180.131 91.5206 178.94 93.5517 177.121 93.8717Z" fill="#028EB5"/>
<path d="M199.384 43.9324L199.11 42.4438C199.105 42.4299 199.105 42.4207 199.101 42.4067L199.384 43.9324Z" fill="#028EB5"/>
<path d="M41.5616 66.0186C32.6893 68.3372 26.0827 74.0318 30.5677 87.0671L62.7026 187.663C65.2196 195.551 73.4126 199.915 80.945 197.388L81.2567 197.318L73.608 199.841C65.6708 202.461 57.1149 198.134 54.5467 190.209L21.7605 89.0843C18.7923 79.935 24.1612 70.1782 33.4988 67.7575L37.5977 66.844" fill="#028EB5"/>
<path d="M203.892 154.085C206.363 153.524 207.935 151.052 207.456 148.483L189.256 50.711C188.604 47.2006 185.352 44.8356 181.951 45.3967L186.999 44.3163C190.516 43.732 193.857 46.0784 194.508 49.5888L212.616 147.384C213.09 149.953 211.448 152.439 208.894 153.018L203.892 154.085Z" fill="#02819E"/>
<path opacity="0.5" d="M170.653 82.486L95.9343 99.361C91.5981 100.339 87.3318 97.4505 86.6153 93.0543L77.208 35.0514C76.5845 31.1978 79.2225 27.5854 83.0748 27.015L154.821 16.3771C158.013 15.9041 161.032 17.9816 161.735 21.1395L174.152 76.9491C174.71 79.4486 173.143 81.9249 170.653 82.486Z" fill="#028EB5"/>
<path d="M169.844 81.6927L96.1854 98.2988C91.9098 99.2633 87.7086 96.4346 87.006 92.1219L77.7801 35.2412C77.166 31.4618 79.7714 27.9143 83.5678 27.3532L154.295 16.8637C157.44 16.3953 160.418 18.4357 161.106 21.5288L173.301 76.2578C173.85 78.7109 172.3 81.1409 169.844 81.6927Z" fill="white"/>
<g opacity="0.15">
<g opacity="0.15">
<path opacity="0.15" d="M162.765 64.7841L95.8916 81.3716L95.9195 81.4841L162.793 64.8967L162.765 64.7841Z" fill="#028EB5"/>
</g>
<g opacity="0.15">
<path opacity="0.15" d="M161.778 58.9833L94.9048 75.5708L94.9327 75.6833L161.806 59.0959L161.778 58.9833Z" fill="#028EB5"/>
</g>
<g opacity="0.15">
<path opacity="0.15" d="M160.602 53.9702L93.729 70.5576L93.7569 70.6702L160.63 54.0827L160.602 53.9702Z" fill="#028EB5"/>
</g>
<g opacity="0.15">
<path opacity="0.15" d="M159.275 48.3051L92.4019 64.8926L92.4298 65.0051L159.303 48.4177L159.275 48.3051Z" fill="#028EB5"/>
</g>
<g opacity="0.15">
<path opacity="0.15" d="M157.906 42.4365L91.0327 59.0239L91.0606 59.1365L157.934 42.549L157.906 42.4365Z" fill="#028EB5"/>
</g>
<g opacity="0.15">
<path opacity="0.15" d="M156.782 37.4252L89.9092 54.0127L89.9371 54.1252L156.81 37.5378L156.782 37.4252Z" fill="#028EB5"/>
</g>
<g opacity="0.15">
<path opacity="0.15" d="M155.716 32.1288L88.8423 48.7163L88.8702 48.8289L155.743 32.2414L155.716 32.1288Z" fill="#028EB5"/>
</g>
</g>
<g opacity="0.3">
<path opacity="0.4" d="M99.0045 87.9313C98.4787 87.9313 97.9623 87.7829 97.5017 87.4954C96.8504 87.0827 96.4037 86.4428 96.2455 85.6869L86.8242 40.2509L87.7361 40.0654L97.1574 85.5014C97.2644 86.0069 97.5622 86.4381 97.9995 86.7117C98.4369 86.99 98.9533 87.0734 99.4558 86.9482L164.921 71.0748L165.14 71.9745L99.6744 87.8478C99.4558 87.9035 99.2278 87.9313 99.0045 87.9313Z" fill="#028EB5"/>
</g>
<path d="M106.405 71.6407L105.8 71.2929L114.463 56.1939L128.993 65.589L136.842 47.9952L146.952 38.6836L147.426 39.1937L137.423 48.4079L129.3 66.6139L114.701 57.177L106.405 71.6407Z" fill="#028EB5"/>
<path d="M147.165 41.0063C148.147 41.0063 148.943 40.2132 148.943 39.2348C148.943 38.2565 148.147 37.4634 147.165 37.4634C146.184 37.4634 145.388 38.2565 145.388 39.2348C145.388 40.2132 146.184 41.0063 147.165 41.0063Z" fill="#028EB5"/>
<path d="M137.586 50.2718C138.673 50.2718 139.554 49.3935 139.554 48.3102C139.554 47.2269 138.673 46.3486 137.586 46.3486C136.499 46.3486 135.618 47.2269 135.618 48.3102C135.618 49.3935 136.499 50.2718 137.586 50.2718Z" fill="#028EB5"/>
<path d="M129.208 68.0965C130.313 68.0965 131.209 67.2037 131.209 66.1024C131.209 65.0012 130.313 64.1084 129.208 64.1084C128.103 64.1084 127.208 65.0012 127.208 66.1024C127.208 67.2037 128.103 68.0965 129.208 68.0965Z" fill="#028EB5"/>
<path d="M114.854 59.9023C116.229 59.9023 117.343 58.7915 117.343 57.4214C117.343 56.0512 116.229 54.9404 114.854 54.9404C113.48 54.9404 112.365 56.0512 112.365 57.4214C112.365 58.7915 113.48 59.9023 114.854 59.9023Z" fill="#028EB5"/>
<path d="M106.104 74.2459C107.645 74.2459 108.895 73.0002 108.895 71.4635C108.895 69.9269 107.645 68.6812 106.104 68.6812C104.562 68.6812 103.312 69.9269 103.312 71.4635C103.312 73.0002 104.562 74.2459 106.104 74.2459Z" fill="#028EB5"/>
<g opacity="0.4">
<g opacity="0.4">
<path opacity="0.6" d="M182.935 133.384C176.803 127.258 173.565 118.814 174.049 110.212C174.505 102.069 178.143 94.5935 184.289 89.154C190.435 83.7191 198.349 80.9738 206.588 81.4236L205.588 99.2354C202.169 99.0499 198.875 100.186 196.32 102.449C193.766 104.707 192.254 107.814 192.063 111.2C191.859 114.826 193.171 118.248 195.757 120.831L182.935 133.384Z" fill="#005B70"/>
</g>
<g opacity="0.4">
<path opacity="0.6" d="M232.21 115.832L219.792 114.227C219.853 113.81 219.899 113.379 219.923 112.952C220.169 108.802 218.685 104.809 215.745 101.711C212.804 98.6135 208.761 96.7818 204.365 96.5499L205.063 84.748C212.804 85.1561 219.918 88.379 225.092 93.8278C230.261 99.2766 232.875 106.302 232.443 113.606C232.391 114.352 232.317 115.099 232.21 115.832Z" fill="#005B70"/>
</g>
<g opacity="0.4">
<path opacity="0.6" d="M204.546 138.481C204.053 138.481 203.56 138.467 203.062 138.434C196.386 138.026 190.114 134.938 185.415 129.735L192.561 121.991C195.506 125.251 199.438 127.189 203.62 127.444C212.348 127.973 220.099 120.98 221.286 111.515L231.242 113.013C229.423 127.579 217.843 138.481 204.546 138.481Z" fill="#005B70"/>
</g>
</g>
<path d="M183.239 132.588C177.293 126.601 174.153 118.347 174.623 109.939C175.065 101.982 178.591 94.6735 184.551 89.3592C190.511 84.0449 198.188 81.3646 206.176 81.8051L205.204 99.2181C201.886 99.0372 198.695 100.15 196.22 102.357C193.745 104.565 192.279 107.602 192.093 110.913C191.898 114.456 193.168 117.804 195.675 120.332L183.239 132.588Z" fill="white"/>
<path d="M231.285 115.277L219.728 113.7C219.784 113.287 219.826 112.865 219.849 112.443C220.077 108.362 218.696 104.435 215.96 101.388C213.224 98.3413 209.465 96.5374 205.366 96.3102L206.013 84.7031C213.22 85.1019 219.84 88.2738 224.651 93.6345C229.461 98.9952 231.895 105.905 231.49 113.088C231.453 113.821 231.383 114.553 231.285 115.277Z" fill="#02819E"/>
<path d="M204.502 137.559C204.027 137.559 203.548 137.545 203.069 137.517C196.611 137.16 190.549 134.442 186.003 129.861L192.912 123.044C195.76 125.915 199.561 127.616 203.608 127.844C212.048 128.307 219.543 122.154 220.692 113.825L230.323 115.142C228.56 127.96 217.361 137.559 204.502 137.559Z" fill="#40DBFF"/>
<path opacity="0.5" d="M173.25 180.383L94.6041 199.187C90.04 200.277 85.4946 197.29 84.685 192.662L73.9843 131.617C73.2724 127.564 76.0081 123.715 80.0697 123.061L155.668 110.875C159.032 110.332 162.247 112.484 163.028 115.804L176.879 174.498C177.493 177.123 175.874 179.752 173.25 180.383Z" fill="#028EB5"/>
<path d="M172.296 179.687L94.6409 198.25C90.1326 199.325 85.6476 196.376 84.8474 191.808L74.2815 131.552C73.579 127.55 76.2821 123.752 80.2879 123.107L154.933 111.074C158.255 110.54 161.428 112.664 162.2 115.938L175.874 173.871C176.483 176.468 174.883 179.065 172.296 179.687Z" fill="white"/>
<g opacity="0.3">
<path opacity="0.4" d="M96.4191 186.106C95.8422 186.106 95.2792 185.935 94.7954 185.601C94.1301 185.146 93.6927 184.455 93.5578 183.653L85.6021 135.458L86.5186 135.31L94.4744 183.505C94.5628 184.052 94.8652 184.525 95.3165 184.836C95.7585 185.142 96.2935 185.248 96.8192 185.137L165.388 170.952L165.579 171.861L97.01 186.046C96.8146 186.088 96.6145 186.106 96.4191 186.106Z" fill="#028EB5"/>
</g>
<path d="M156.562 167.093L151.179 168.202C150.063 168.433 148.974 167.715 148.742 166.606L140.804 128.34C140.572 127.227 141.293 126.141 142.405 125.91L147.788 124.801C148.904 124.569 149.993 125.288 150.226 126.397L158.163 164.663C158.395 165.776 157.679 166.861 156.562 167.093Z" fill="white"/>
<path d="M156.567 167.103L153.436 167.752L151.868 168.077C151.352 168.179 150.817 168.35 150.282 168.207C149.756 168.086 149.286 167.752 149.002 167.298C148.7 166.839 148.672 166.282 148.546 165.772L147.895 162.651L145.271 150.168L142.666 137.684L141.363 131.442L140.712 128.317C140.604 127.774 140.725 127.19 141.037 126.726C141.344 126.263 141.842 125.929 142.386 125.817L145.518 125.168L147.085 124.844C147.351 124.793 147.602 124.732 147.872 124.686C148.146 124.644 148.43 124.653 148.704 124.718C149.249 124.844 149.737 125.191 150.035 125.664C150.184 125.896 150.282 126.17 150.338 126.434L150.5 127.213L151.152 130.334L153.752 142.822L156.288 155.32L157.558 161.571L158.191 164.696C158.293 165.225 158.172 165.791 157.87 166.231C157.572 166.681 157.093 167.001 156.567 167.103ZM156.563 167.08C157.084 166.973 157.554 166.653 157.842 166.213C158.135 165.777 158.251 165.22 158.149 164.706L157.493 161.585L156.172 155.348L153.529 142.869L150.947 130.381L150.3 127.26C150.175 126.74 150.147 126.193 149.863 125.776C149.593 125.349 149.151 125.029 148.658 124.913C148.16 124.774 147.648 124.936 147.123 125.038L145.555 125.358L142.424 126.003C141.921 126.105 141.47 126.406 141.186 126.828C140.898 127.25 140.786 127.784 140.884 128.284L141.526 131.405L142.814 137.652L145.387 150.145L147.946 162.642L148.593 165.763C148.718 166.278 148.746 166.829 149.039 167.275C149.319 167.72 149.779 168.049 150.296 168.17C150.817 168.313 151.347 168.146 151.864 168.044L153.431 167.724L156.563 167.08Z" fill="#00B7E2"/>
<path d="M156.563 167.094L151.18 168.203C150.063 168.434 148.974 167.716 148.742 166.607L143.861 143.068L153.283 141.125L158.163 164.664C158.396 165.777 157.679 166.862 156.563 167.094Z" fill="#028EB5"/>
<path d="M140.357 170.433L134.974 171.541C133.857 171.773 132.769 171.055 132.536 169.946L127.665 146.454C127.432 145.341 128.153 144.256 129.265 144.024L134.648 142.916C135.765 142.684 136.853 143.402 137.086 144.511L141.957 168.003C142.19 169.116 141.473 170.201 140.357 170.433Z" fill="white"/>
<path d="M140.356 170.442L135.946 171.355C135.578 171.43 135.215 171.513 134.839 171.578C134.462 171.638 134.076 171.578 133.727 171.43C133.378 171.281 133.071 171.036 132.852 170.725C132.624 170.419 132.517 170.043 132.452 169.677L130.596 160.889L128.753 152.097L127.832 147.701L127.604 146.602C127.511 146.235 127.502 145.827 127.609 145.452C127.813 144.696 128.469 144.084 129.242 143.931L133.652 143.017C134.024 142.943 134.378 142.859 134.764 142.795C135.155 142.734 135.56 142.795 135.918 142.948C136.281 143.101 136.597 143.36 136.825 143.68C137.058 143.996 137.174 144.399 137.239 144.761L139.072 153.553L140.845 162.359L141.734 166.76L141.957 167.859C142.045 168.225 142.055 168.619 141.943 168.981C141.738 169.714 141.105 170.298 140.356 170.442ZM140.352 170.419C141.087 170.266 141.706 169.686 141.896 168.967C141.999 168.61 141.989 168.23 141.896 167.868L141.664 166.769L140.729 162.378L138.854 153.595L137.039 144.798C136.974 144.422 136.876 144.093 136.662 143.796C136.458 143.504 136.169 143.272 135.844 143.133C135.518 142.994 135.15 142.938 134.797 142.989C134.438 143.05 134.066 143.138 133.699 143.207L129.284 144.112C128.576 144.251 127.976 144.807 127.785 145.503C127.683 145.851 127.692 146.212 127.776 146.569L128.004 147.668L128.907 152.069L130.712 160.866L132.503 169.668C132.564 170.039 132.671 170.396 132.889 170.702C133.103 171.003 133.401 171.244 133.745 171.393C134.085 171.536 134.466 171.597 134.834 171.541C135.201 171.481 135.569 171.393 135.937 171.323L140.352 170.419Z" fill="#00B7E2"/>
<path d="M140.357 170.432L134.974 171.541C133.857 171.773 132.769 171.054 132.536 169.946L129.582 155.709L139.003 153.766L141.957 168.003C142.19 169.115 141.473 170.201 140.357 170.432Z" fill="#028EB5"/>
<path d="M124.287 172.959L118.904 174.067C117.787 174.299 116.699 173.58 116.466 172.472L110.906 145.659C110.674 144.546 111.395 143.461 112.507 143.229L117.89 142.121C119.006 141.889 120.095 142.608 120.328 143.716L125.887 170.529C126.12 171.642 125.404 172.732 124.287 172.959Z" fill="white"/>
<path d="M124.293 172.974L119.464 173.971C119.064 174.05 118.659 174.17 118.24 174.115C117.831 174.064 117.431 173.892 117.119 173.619C116.803 173.35 116.575 172.983 116.472 172.58C116.379 172.181 116.3 171.778 116.216 171.379L114.188 161.761L112.173 152.139L111.168 147.33L110.917 146.129C110.833 145.739 110.722 145.308 110.81 144.881C110.945 144.033 111.643 143.305 112.494 143.142L117.324 142.141C117.719 142.067 118.138 141.937 118.575 141.997C119.003 142.048 119.417 142.229 119.738 142.512C120.064 142.79 120.306 143.175 120.408 143.592C120.506 144 120.58 144.394 120.664 144.798L122.669 154.42L124.614 164.056L125.587 168.875L125.829 170.08C125.912 170.474 126.015 170.892 125.926 171.305C125.791 172.125 125.112 172.821 124.293 172.974ZM124.289 172.951C125.098 172.793 125.754 172.102 125.88 171.295C125.959 170.892 125.856 170.493 125.768 170.09L125.512 168.888L124.489 164.08L122.441 154.467L120.455 144.84C120.371 144.441 120.292 144.033 120.204 143.643C120.111 143.268 119.892 142.92 119.599 142.665C119.306 142.405 118.933 142.243 118.543 142.196C118.157 142.141 117.766 142.257 117.356 142.335L112.527 143.323C111.75 143.472 111.108 144.13 110.982 144.909C110.903 145.299 111.001 145.684 111.085 146.092L111.331 147.297L112.322 152.111L114.3 161.738L116.263 171.369C116.347 171.768 116.421 172.176 116.514 172.57C116.612 172.965 116.835 173.326 117.142 173.591C117.445 173.86 117.835 174.031 118.24 174.078C118.65 174.138 119.05 174.013 119.45 173.938L124.289 172.951Z" fill="#00B7E2"/>
<path d="M124.288 172.961L118.905 174.069C117.789 174.301 116.7 173.582 116.468 172.474L112.764 154.607L122.185 152.664L125.889 170.531C126.121 171.644 125.405 172.734 124.288 172.961Z" fill="#028EB5"/>
<path d="M107.967 176.321L102.584 177.43C101.467 177.662 100.379 176.943 100.146 175.835L97.0475 160.884C96.8149 159.771 97.5361 158.686 98.648 158.454L104.031 157.346C105.148 157.114 106.236 157.833 106.469 158.941L109.567 173.892C109.8 175.004 109.084 176.094 107.967 176.321Z" fill="white"/>
<path d="M107.972 176.335L104.631 177.031L102.961 177.379C102.686 177.434 102.403 177.508 102.114 177.499C101.826 177.494 101.542 177.425 101.281 177.304C100.76 177.063 100.342 176.6 100.169 176.048C100.03 175.491 99.9275 174.939 99.8065 174.383L99.0993 171.058L97.6989 164.403L97.0011 161.074C96.8475 160.517 96.9127 159.878 97.2244 159.372C97.5268 158.862 98.0479 158.486 98.6294 158.37L101.97 157.67L103.64 157.322C103.915 157.267 104.203 157.188 104.506 157.202C104.803 157.206 105.101 157.276 105.376 157.406C105.92 157.656 106.353 158.143 106.529 158.718C106.669 159.289 106.767 159.831 106.888 160.392L107.581 163.722L108.907 170.39L109.572 173.724C109.716 174.276 109.647 174.898 109.34 175.385C109.042 175.867 108.535 176.229 107.972 176.335ZM107.967 176.312C108.521 176.196 109.014 175.839 109.298 175.352C109.591 174.87 109.651 174.276 109.498 173.734L108.781 170.409L107.348 163.759L106.66 160.429C106.543 159.882 106.436 159.307 106.306 158.778C106.148 158.264 105.762 157.832 105.273 157.605C105.031 157.489 104.766 157.424 104.496 157.42C104.231 157.406 103.961 157.475 103.677 157.531L102.007 157.87L98.662 158.547C98.127 158.653 97.6478 158.992 97.3686 159.46C97.0802 159.929 97.015 160.499 97.1593 161.037L97.8432 164.366L99.2063 171.03L99.881 174.364C99.9973 174.916 100.095 175.482 100.225 176.024C100.388 176.558 100.788 177.017 101.295 177.253C101.551 177.374 101.826 177.439 102.11 177.448C102.393 177.462 102.668 177.388 102.947 177.332L104.617 176.989L107.967 176.312Z" fill="#00B7E2"/>
<path d="M107.966 176.323L102.583 177.431C101.467 177.663 100.378 176.944 100.146 175.836L97.9868 165.43L107.408 163.487L109.567 173.893C109.8 175.006 109.083 176.096 107.966 176.323Z" fill="#028EB5"/>
<defs>
<linearGradient id="paint0_linear_2071_87505" x1="63.6991" y1="16.5487" x2="70.1988" y2="25.6746" gradientUnits="userSpaceOnUse">
<stop offset="8.79085e-07" stop-color="#E6FAFA"/>
<stop offset="0.9943" stop-color="#E4FAFA"/>
</linearGradient>
<linearGradient id="paint1_linear_2071_87505" x1="180.355" y1="189.555" x2="190.641" y2="203.998" gradientUnits="userSpaceOnUse">
<stop offset="8.79085e-07" stop-color="#E6FAFA"/>
<stop offset="0.9943" stop-color="#E4FAFA"/>
</linearGradient>
<linearGradient id="paint2_linear_2071_87505" x1="264.17" y1="97.5192" x2="270.401" y2="106.267" gradientUnits="userSpaceOnUse">
<stop offset="8.79085e-07" stop-color="#E6FAFA"/>
<stop offset="0.9943" stop-color="#E4FAFA"/>
</linearGradient>
<linearGradient id="paint3_linear_2071_87505" x1="20.3166" y1="154.226" x2="238.048" y2="49.2203" gradientUnits="userSpaceOnUse">
<stop offset="0.00571309" stop-color="#E4FAFA"/>
<stop offset="1" stop-color="#E6FAFA"/>
</linearGradient>
<linearGradient id="paint4_linear_2071_87505" x1="-0.00035963" y1="111.998" x2="274.998" y2="111.998" gradientUnits="userSpaceOnUse">
<stop offset="8.79085e-07" stop-color="#E6FAFA"/>
<stop offset="0.9943" stop-color="#E4FAFA"/>
</linearGradient>
<linearGradient id="paint5_linear_2071_87505" x1="-0.00035963" y1="111.998" x2="274.998" y2="111.998" gradientUnits="userSpaceOnUse">
<stop offset="8.79085e-07" stop-color="#E6FAFA"/>
<stop offset="0.9943" stop-color="#E4FAFA"/>
</linearGradient>
<linearGradient id="paint6_linear_2071_87505" x1="28.2409" y1="112.296" x2="245.789" y2="112.296" gradientUnits="userSpaceOnUse">
<stop offset="8.79085e-07" stop-color="#E6FAFA"/>
<stop offset="0.9943" stop-color="#E4FAFA"/>
</linearGradient>
<linearGradient id="paint7_linear_2071_87505" x1="28.2409" y1="112.296" x2="245.789" y2="112.296" gradientUnits="userSpaceOnUse">
<stop offset="8.79085e-07" stop-color="#E6FAFA"/>
<stop offset="0.9943" stop-color="#E4FAFA"/>
</linearGradient>
</defs>
</svg>
