<svg width="242" height="241" viewBox="0 0 242 241" fill="none" xmlns="http://www.w3.org/2000/svg">
<g opacity="0.8">
<g opacity="0.8">
<path opacity="0.8" d="M64.0702 240.999C61.3367 240.999 58.6962 240.675 56.157 239.983C46.5455 237.36 38.9872 229.804 33.0555 216.88C7.08104 160.312 -1.79539 130.963 0.295917 108.581C2.44215 85.6079 16.1096 70.7733 38.7506 46.1981L40.4532 44.3512C69.1231 13.2147 89.9601 -0.865037 106.031 0.041565C121.118 0.893349 130.992 14.3996 142.424 30.0395C153.629 45.3674 166.329 62.7404 186.887 72.2787C223.859 89.4325 241.366 104.284 241.983 119.017C242.744 137.242 218.261 154.83 175.721 179.055C161.855 186.953 148.136 196.47 134.875 205.676C108.786 223.778 83.9693 240.999 64.0702 240.999ZM40.7616 44.6379L41.0743 44.9247L39.3717 46.7716C16.8489 71.2161 3.25332 85.9747 1.13666 108.661C-0.937742 130.875 7.92179 160.109 33.8244 216.525C39.6463 229.209 47.0271 236.614 56.3809 239.165C58.8483 239.84 61.4212 240.156 64.0829 240.156C83.7031 240.156 108.41 223.011 134.389 204.984C147.667 195.77 161.398 186.241 175.298 178.326C217.559 154.261 241.882 136.846 241.138 119.055C240.538 104.676 223.187 90.0565 186.532 73.0462C165.775 63.4151 153.008 45.9493 141.744 30.5371C130.439 15.0701 120.671 1.7114 105.985 0.880698C90.1883 -0.0174696 69.5625 13.9864 41.0743 44.9247L40.7616 44.6379Z" fill="url(#paint0_linear_2071_87504)"/>
<g style="mix-blend-mode:multiply">
<path d="M64.0702 240.999C61.3367 240.999 58.6962 240.675 56.157 239.983C46.5455 237.36 38.9872 229.804 33.0555 216.88C7.08104 160.312 -1.79539 130.963 0.295917 108.581C2.44215 85.6079 16.1096 70.7733 38.7506 46.1981L40.4532 44.3512C69.1231 13.2147 89.9601 -0.865037 106.031 0.041565C121.118 0.893349 130.992 14.3996 142.424 30.0395C153.629 45.3674 166.329 62.7404 186.887 72.2787C223.859 89.4325 241.366 104.284 241.983 119.017C242.744 137.242 218.261 154.83 175.721 179.055C161.855 186.953 148.136 196.47 134.875 205.676C108.786 223.778 83.9693 240.999 64.0702 240.999ZM40.7616 44.6379L41.0743 44.9247L39.3717 46.7716C16.8489 71.2161 3.25332 85.9747 1.13666 108.661C-0.937742 130.875 7.92179 160.109 33.8244 216.525C39.6463 229.209 47.0271 236.614 56.3809 239.165C58.8483 239.84 61.4212 240.156 64.0829 240.156C83.7031 240.156 108.41 223.011 134.389 204.984C147.667 195.77 161.398 186.241 175.298 178.326C217.559 154.261 241.882 136.846 241.138 119.055C240.538 104.676 223.187 90.0565 186.532 73.0462C165.775 63.4151 153.008 45.9493 141.744 30.5371C130.439 15.0701 120.671 1.7114 105.985 0.880698C90.1883 -0.0174696 69.5625 13.9864 41.0743 44.9247L40.7616 44.6379Z" fill="url(#paint1_linear_2071_87504)"/>
</g>
</g>
</g>
<path opacity="0.8" d="M37.7871 51.4829C124.338 -42.5085 127.029 47.4179 184.85 74.2491C265.879 111.846 236.529 136.94 169.966 174.84C115.317 205.959 66.5457 257.817 35.8901 206.647C-8.57656 132.415 -4.78686 97.7196 37.7871 51.4829Z" fill="url(#paint2_linear_2071_87504)"/>
<path d="M55.7219 195.328C55.6416 195.328 55.5656 195.282 55.5318 195.206C55.4811 195.101 55.5276 194.974 55.6332 194.928L112.838 168.522C112.943 168.472 113.07 168.518 113.117 168.624C113.167 168.729 113.121 168.856 113.015 168.902L55.8106 195.307C55.7811 195.32 55.7515 195.328 55.7219 195.328Z" fill="#028EB5"/>
<path d="M57.195 56.1726C61.6269 52.0823 66.1517 48.0891 70.8159 44.2645C71.9735 43.2946 73.1692 42.3796 74.3437 41.4308C75.5266 40.4947 76.7392 39.5965 77.9348 38.6773C80.3726 36.8978 82.8145 35.1226 85.3537 33.4865C86.6085 32.6431 87.9097 31.8757 89.1983 31.0829C90.5122 30.3365 91.8135 29.5649 93.1697 28.8944C95.8567 27.5071 98.6366 26.2716 101.535 25.3566C104.429 24.4457 107.454 23.8596 110.521 23.847C110.711 23.847 110.906 23.8343 111.096 23.8427L111.67 23.8765L112.819 23.9482L113.96 24.1084C114.15 24.1379 114.34 24.1548 114.531 24.197L115.092 24.3235C116.601 24.6186 118.054 25.1584 119.453 25.7867L120.488 26.2969C120.826 26.4782 121.151 26.6806 121.485 26.8704L121.983 27.1613L122.461 27.4818C122.777 27.7011 123.099 27.9077 123.407 28.1312C124.632 29.0504 125.802 30.0414 126.884 31.1166C129.068 33.2545 130.948 35.6581 132.719 38.1164C136.234 43.0585 139.267 48.283 142.44 53.398C145.609 58.5129 148.845 63.5814 152.529 68.3168C156.205 73.048 160.332 77.4377 165.026 81.1526C167.371 83.008 169.834 84.7115 172.436 86.1916C175.047 87.6928 177.68 89.1855 180.261 90.7584C182.851 92.3144 185.407 93.9294 187.925 95.6034C190.443 97.2733 192.919 99.0106 195.327 100.845C197.731 102.679 200.076 104.598 202.289 106.664C204.499 108.73 206.611 110.923 208.428 113.356C209.345 114.566 210.173 115.844 210.925 117.164C211.647 118.5 212.268 119.9 212.725 121.355C213.65 124.26 213.756 127.44 212.978 130.392C212.226 133.364 210.638 136.034 208.787 138.425C206.899 140.799 204.727 142.932 202.425 144.889C197.811 148.806 192.728 152.116 187.545 155.211C177.135 161.343 166.298 166.694 155.419 171.914C144.565 177.147 134.218 183.367 123.813 189.464C118.608 192.517 113.386 195.549 108.067 198.42C102.747 201.292 97.3185 203.987 91.6952 206.259C86.0761 208.52 80.2289 210.379 74.1578 211.172C71.1286 211.564 68.0402 211.648 64.9814 211.345C61.9268 211.033 58.8891 210.341 56.0416 209.156C53.1898 207.98 50.5197 206.386 48.12 204.467C45.716 202.553 43.574 200.335 41.6602 197.957C39.7505 195.574 38.0437 193.04 36.527 190.4C35.0271 187.756 33.6541 185.041 32.4373 182.266C29.9827 176.721 28.073 170.948 26.362 165.171C24.6002 159.407 22.9567 153.601 21.402 147.773C19.8768 141.937 18.4657 136.063 17.3334 130.126C16.2096 124.193 15.3984 118.171 15.3604 112.104C15.3224 106.057 16.3237 99.8919 18.9896 94.4059C20.3289 91.6776 22.023 89.1391 23.9158 86.7778L25.3691 85.0362L26.9027 83.3664C27.4055 82.8014 27.9505 82.2785 28.4786 81.7387C29.0152 81.2074 29.5348 80.6593 30.0925 80.149C34.4695 75.9871 39.0619 72.0739 43.6332 68.1397C48.2045 64.2055 52.7462 60.246 57.195 56.1726ZM57.2837 56.2696C52.856 60.364 48.327 64.3531 43.7768 68.3042C39.2351 72.2679 34.6342 76.1768 30.3375 80.3978C29.7883 80.9123 29.2771 81.4689 28.7532 82.0044C28.2336 82.5484 27.697 83.0754 27.2027 83.6447L25.6986 85.323L24.2791 87.0687C22.4328 89.4343 20.7978 91.9559 19.5135 94.6546C16.9659 100.082 16.0702 106.133 16.1927 112.095C16.3068 118.083 17.2151 124.037 18.3685 129.924C19.543 135.814 20.9964 141.65 22.5638 147.457L23.7763 151.804C24.1777 153.255 24.596 154.701 25.0184 156.143L26.2775 160.478L27.5829 164.8C29.3025 170.569 31.1952 176.257 33.6245 181.735C34.8286 184.476 36.1848 187.145 37.6635 189.738C39.1548 192.323 40.8279 194.802 42.691 197.117C44.5584 199.432 46.6328 201.57 48.9523 203.413C51.2675 205.256 53.8109 206.799 56.5359 207.933C62.0029 210.211 68.0993 210.67 73.993 209.928C79.912 209.177 85.6748 207.373 91.2431 205.159C96.8199 202.937 102.215 200.259 107.534 197.442C112.858 194.625 118.092 191.636 123.318 188.629C133.771 182.616 144.181 176.464 155.119 171.294C160.577 168.73 166.019 166.129 171.41 163.421C176.797 160.71 182.128 157.897 187.316 154.832C192.496 151.762 197.57 148.477 202.167 144.594C204.469 142.662 206.611 140.537 208.466 138.18C210.283 135.81 211.829 133.179 212.547 130.286C213.291 127.406 213.181 124.332 212.264 121.498C211.812 120.082 211.2 118.715 210.486 117.408C209.738 116.114 208.927 114.857 208.006 113.676C206.189 111.298 204.076 109.148 201.863 107.124C199.645 105.1 197.3 103.215 194.892 101.418C192.483 99.6178 190.003 97.9142 187.477 96.2781C184.955 94.6378 182.394 93.0523 179.8 91.5258C177.215 89.9825 174.583 88.5277 171.951 87.0476C169.293 85.5675 166.754 83.8724 164.371 81.9833C159.589 78.222 155.385 73.7733 151.654 69.0041C147.911 64.2308 144.628 59.1369 141.502 53.9799C138.355 48.8354 135.359 43.6024 131.912 38.6984C130.175 36.2611 128.333 33.8913 126.242 31.7745C125.198 30.7118 124.079 29.7335 122.904 28.8269C122.608 28.6035 122.3 28.401 121.996 28.186L121.54 27.8697L121.066 27.583C120.75 27.3932 120.437 27.1951 120.112 27.0137L119.123 26.5119C117.784 25.8879 116.394 25.3481 114.945 25.0487L114.404 24.918C114.222 24.8758 114.036 24.859 113.855 24.8295L112.756 24.6608L111.645 24.5765L111.092 24.5343C110.906 24.5259 110.72 24.5343 110.534 24.5343C107.56 24.509 104.585 25.0403 101.717 25.9047C98.8479 26.7734 96.0764 27.9583 93.3894 29.3034C92.0332 29.957 90.7277 30.7076 89.4095 31.4329C88.1167 32.2046 86.8112 32.9551 85.5522 33.7774C80.4571 36.9906 75.6449 40.6423 70.9638 44.4331C66.27 48.2282 61.7325 52.2004 57.2837 56.2696Z" fill="url(#paint3_linear_2071_87504)"/>
<g style="mix-blend-mode:multiply">
<path d="M57.1969 56.1706C61.6288 52.0804 66.1536 48.0871 70.8179 44.2625C71.9755 43.2927 73.1711 42.3776 74.3456 41.4289C75.5286 40.4927 76.7411 39.5946 77.9368 38.6753C80.3745 36.8959 82.8165 35.1206 85.3556 33.4845C86.6104 32.6412 87.9117 31.8737 89.2002 31.081C90.5142 30.3346 91.8154 29.5629 93.1716 28.8925C95.8586 27.5051 98.6386 26.2696 101.537 25.3546C104.431 24.4438 107.456 23.8577 110.523 23.845C110.713 23.845 110.908 23.8324 111.098 23.8408L111.672 23.8745L112.821 23.9462L113.962 24.1064C114.152 24.136 114.342 24.1528 114.533 24.195L115.094 24.3215C116.603 24.6167 118.056 25.1564 119.454 25.7847L120.49 26.2949C120.828 26.4763 121.153 26.6787 121.487 26.8684L121.985 27.1594L122.463 27.4798C122.779 27.6991 123.101 27.9057 123.409 28.1292C124.634 29.0485 125.804 30.0394 126.886 31.1147C129.07 33.2526 130.95 35.6561 132.721 38.1145C136.236 43.0565 139.269 48.2811 142.442 53.396C145.611 58.5109 148.847 63.5794 152.531 68.3149C156.207 73.0461 160.334 77.4357 165.028 81.1507C167.373 83.006 169.836 84.7096 172.438 86.1897C175.049 87.6908 177.681 89.1836 180.263 90.7564C182.853 92.3124 185.409 93.9274 187.927 95.6015C190.445 97.2713 192.921 99.0086 195.329 100.843C197.733 102.677 200.077 104.596 202.291 106.662C204.501 108.728 206.613 110.921 208.43 113.354C209.347 114.564 210.175 115.842 210.927 117.162C211.649 118.498 212.27 119.898 212.727 121.353C213.652 124.259 213.758 127.438 212.98 130.39C212.228 133.362 210.64 136.032 208.789 138.423C206.901 140.797 204.729 142.93 202.426 144.887C197.813 148.804 192.73 152.114 187.547 155.209C177.136 161.341 166.3 166.692 155.421 171.912C144.567 177.145 134.22 183.365 123.815 189.462C118.609 192.515 113.388 195.547 108.068 198.419C102.749 201.29 97.3204 203.985 91.6971 206.257C86.0781 208.518 80.2309 210.377 74.1597 211.17C71.1305 211.562 68.0421 211.646 64.9833 211.343C61.9288 211.031 58.8911 210.339 56.0435 209.154C53.1918 207.978 50.5217 206.384 48.1219 204.465C45.718 202.551 43.576 200.333 41.6621 197.955C39.7525 195.572 38.0456 193.038 36.5289 190.398C35.0291 187.754 33.656 185.039 32.4393 182.264C29.9846 176.719 28.075 170.946 26.3639 165.169C24.6021 159.405 22.9587 153.599 21.4039 147.771C19.8787 141.935 18.4676 136.061 17.3354 130.124C16.2116 124.191 15.4004 118.17 15.3624 112.102C15.3243 106.055 16.3256 99.8899 18.9915 94.4039C20.3308 91.6757 22.025 89.1372 23.9177 86.7758L25.3711 85.0343L26.9047 83.3644C27.4074 82.7994 27.9525 82.2765 28.4806 81.7368C29.0171 81.2055 29.5368 80.6573 30.0945 80.1471C34.4714 75.9851 39.0638 72.072 43.6351 68.1378C48.2064 64.2035 52.7482 60.244 57.1969 56.1706ZM57.2857 56.2676C52.858 60.3621 48.329 64.3511 43.7788 68.3022C39.2371 72.266 34.6362 76.1749 30.3395 80.3959C29.7903 80.9103 29.2791 81.4669 28.7552 82.0024C28.2355 82.5464 27.699 83.0735 27.2046 83.6428L25.7006 85.321L24.281 87.0668C22.4348 89.4324 20.7998 91.954 19.5154 94.6527C16.9678 100.08 16.0721 106.131 16.1947 112.093C16.3087 118.081 17.2171 124.035 18.3705 129.922C19.545 135.812 20.9983 141.648 22.5658 147.455L23.7783 151.802C24.1796 153.253 24.5979 154.699 25.0204 156.141L26.2794 160.476L27.5849 164.798C29.3044 170.567 31.1971 176.255 33.6264 181.733C34.8305 184.474 36.1867 187.143 37.6654 189.736C39.1568 192.321 40.8298 194.801 42.693 197.116C44.5604 199.431 46.6348 201.568 48.9542 203.411C51.2695 205.254 53.8128 206.797 56.5379 207.931C62.0048 210.209 68.1013 210.668 73.995 209.926C79.914 209.175 85.6767 207.371 91.2451 205.157C96.8219 202.935 102.217 200.257 107.536 197.44C112.859 194.623 118.094 191.634 123.32 188.627C133.773 182.614 144.183 176.462 155.121 171.292C160.579 168.728 166.021 166.127 171.412 163.419C176.798 160.708 182.13 157.896 187.318 154.83C192.498 151.76 197.572 148.475 202.169 144.592C204.471 142.66 206.613 140.535 208.468 138.178C210.285 135.808 211.831 133.177 212.549 130.284C213.293 127.404 213.183 124.33 212.266 121.497C211.814 120.08 211.202 118.713 210.488 117.406C209.74 116.112 208.929 114.855 208.008 113.674C206.191 111.296 204.078 109.146 201.865 107.122C199.647 105.098 197.302 103.213 194.894 101.416C192.485 99.6158 190.005 97.9122 187.479 96.2761C184.957 94.6358 182.396 93.0503 179.802 91.5239C177.217 89.9805 174.585 88.5257 171.953 87.0457C169.295 85.5656 166.756 83.8705 164.373 81.9814C159.591 78.22 155.387 73.7713 151.656 69.0022C147.913 64.2288 144.63 59.135 141.504 53.9779C138.356 48.8335 135.361 43.6005 131.914 38.6964C130.177 36.2591 128.335 33.8893 126.244 31.7725C125.2 30.7099 124.081 29.7316 122.906 28.825C122.61 28.6015 122.302 28.3991 121.998 28.184L121.542 27.8678L121.068 27.581C120.751 27.3913 120.439 27.1931 120.114 27.0118L119.125 26.51C117.786 25.8859 116.396 25.3462 114.947 25.0468L114.406 24.9161C114.224 24.8739 114.038 24.857 113.857 24.8275L112.758 24.6588L111.647 24.5745L111.093 24.5323C110.908 24.5239 110.722 24.5323 110.536 24.5323C107.561 24.507 104.587 25.0383 101.719 25.9028C98.8498 26.7714 96.0783 27.9563 93.3913 29.3015C92.0351 29.9551 90.7296 30.7057 89.4115 31.4309C88.1187 32.2026 86.8132 32.9532 85.5542 33.7755C80.459 36.9886 75.6469 40.6403 70.9657 44.4312C66.2719 48.2263 61.7344 52.1984 57.2857 56.2676Z" fill="url(#paint4_linear_2071_87504)"/>
</g>
<path d="M30.2745 54.072C33.4968 54.072 36.109 51.4648 36.109 48.2486C36.109 45.0325 33.4968 42.4253 30.2745 42.4253C27.0522 42.4253 24.4399 45.0325 24.4399 48.2486C24.4399 51.4648 27.0522 54.072 30.2745 54.072Z" fill="url(#paint5_linear_2071_87504)"/>
<path d="M141.71 145.039C138.727 137.719 114.256 84.4448 114.256 84.4448L92.7392 37.3774C92.7392 37.3774 91.1549 31.8872 85.164 30.6812C82.8361 30.2131 80.4195 30.5842 78.2733 31.6004L16.5227 60.9322C11.5247 68.5181 17.2198 77.1835 17.2198 77.1835C17.2198 77.1835 60.3641 171.162 64.1031 179.094C67.0394 185.318 70.0813 186.418 71.8008 186.684C72.1008 186.638 73.3893 186.553 73.6851 186.444C79.997 184.167 139.863 156.176 139.863 156.176C139.863 156.176 144.697 152.36 141.71 145.039Z" fill="#028EB5"/>
<path d="M141.71 144.618C138.727 137.297 114.256 84.0229 114.256 84.0229L92.7392 36.9555C92.7392 36.9555 91.1549 31.4653 85.164 30.2593C82.8361 29.7913 80.4195 30.1623 78.2733 31.1786L16.5227 60.5103C11.5247 68.0962 17.2198 76.7616 17.2198 76.7616C17.2198 76.7616 60.3641 170.74 64.1031 178.672C67.0394 184.896 71.3445 186.182 73.0598 186.448C73.3598 186.401 73.6555 186.334 73.9513 186.229C80.2632 183.951 139.859 155.758 139.859 155.758C139.859 155.758 144.697 151.938 141.71 144.618Z" fill="#40DBFF"/>
<path d="M133.008 150.871L75.8708 177.344C73.1457 178.609 69.9053 177.424 68.6463 174.7L21.1757 72.3C20.073 69.7911 21.1631 66.8646 23.643 65.6882L80.7885 38.5618C83.7797 37.1408 87.3582 38.4269 88.7566 41.425L136.02 142.644C137.465 145.743 136.117 149.429 133.008 150.871Z" fill="#02819E"/>
<path d="M128.845 152.87L75.5395 177.495C72.9961 178.672 69.9035 177.415 68.6403 174.696L21.0641 72.355C19.953 69.8503 20.9078 66.9871 23.2188 65.8908L76.5112 40.6198C79.2996 39.2957 82.7175 40.6577 84.116 43.6558L131.468 144.833C132.922 147.928 131.747 151.529 128.845 152.87Z" fill="#BBF5FF" stroke="#68A1AF" stroke-width="0.25" stroke-miterlimit="10"/>
<path d="M59.0333 45.3142L43.583 52.7947C43.1351 53.0098 42.5986 52.8242 42.3831 52.3772C42.1676 51.9303 42.3535 51.3947 42.8014 51.1755L58.2517 43.695C58.6995 43.4799 59.2361 43.6654 59.4558 44.1124C59.667 44.5636 59.4811 45.0991 59.0333 45.3142Z" fill="#028EB5"/>
<path opacity="0.35" d="M71.3189 102.999L53.5661 111.513L45.8135 94.806L62.9495 86.2671L71.3189 102.999Z" fill="white"/>
<path opacity="0.35" d="M82.081 126.697L64.3239 135.202L56.3516 118.061L73.4876 109.518L82.081 126.697Z" fill="white"/>
<path opacity="0.35" d="M92.9218 149.906L75.1647 158.415L67.1924 141.27L84.3284 132.731L92.9218 149.906Z" fill="white"/>
<path opacity="0.35" d="M121.004 136.543L103.243 145.053L95.2705 127.908L112.407 119.369L121.004 136.543Z" fill="white"/>
<path opacity="0.5" d="M110.395 113.358L92.5198 121.923L84.2476 104.12L101.802 96.1836L110.395 113.358Z" fill="#40DBFF"/>
<path opacity="0.35" d="M99.2666 89.8168L81.6574 98.3094L73.1021 81.2062L90.2381 72.6631L99.2666 89.8168Z" fill="white"/>
<path d="M16.5237 60.5103C16.5237 60.5103 8.58939 64.5288 8.60207 72.0515C8.61474 78.0941 12.81 84.162 12.81 84.162L57.4119 178.727C57.4119 178.727 60.9523 189.286 73.4875 186.363C73.4875 186.363 67.8388 186.604 64.0998 178.672C60.3608 170.74 17.2166 76.7616 17.2166 76.7616C17.2166 76.7616 11.4243 68.1173 16.5237 60.5103Z" fill="#028EB5"/>
<path d="M202.431 142.172L159.173 104.976C159.173 104.976 145.991 97.6814 144.525 99.7897C143.055 101.898 143.558 108.329 143.558 108.329C143.558 108.329 132.176 111.04 130.22 113.891C128.264 116.741 129.379 121.886 129.379 121.886L96.4294 110.365C95.1281 116.994 94.7225 124.947 98.7404 128.902L115.255 145.141L115.234 145.2C113.692 146.663 113.139 157.884 114.486 161.831L118.618 173.954C119.556 176.497 121.432 178.588 123.861 179.803L151.412 193.575C155.037 195.388 159.388 194.937 162.561 192.415L162.81 192.217L162.984 192.082L162.967 192.065L177.842 177.53L177.864 177.538L192.076 163.315L200.386 154.894C203.728 151.525 202.478 146.617 202.431 142.172Z" fill="#028EB5"/>
<path d="M200.299 134.826L160.459 95.5931C156.855 92.0468 151.054 92.0848 147.501 95.6817L146.694 96.4955C143.052 100.181 142.858 105.971 146.086 109.879C142.19 106.599 136.36 106.805 132.722 110.487L132.173 111.043C128.43 114.83 128.455 120.915 132.215 124.676H132.211L113.064 105.819C109.236 102.049 103.072 102.091 99.2952 105.912L98.6446 106.569C94.6817 110.579 94.724 117.035 98.7418 120.991L118.632 140.552L119.042 140.084L118.641 140.561L118.632 140.552L116.904 142.433C114.057 145.532 113.127 149.939 114.488 153.923L118.62 166.047C119.558 168.589 121.434 170.681 123.863 171.895L151.413 185.667C155.038 187.48 159.39 187.029 162.563 184.508L162.985 184.17L177.865 169.631L177.869 169.635L178.102 169.403L192.082 155.416L200.392 146.995C203.725 143.609 203.687 138.161 200.299 134.826Z" fill="white"/>
<path d="M156.061 187.182C154.405 187.182 152.745 186.807 151.215 186.044L123.665 172.272C121.13 171.007 119.195 168.848 118.215 166.191L114.079 154.06C112.672 149.927 113.631 145.365 116.584 142.147L118.038 140.566L98.4384 121.291C94.26 117.18 94.2178 110.441 98.337 106.271L98.9877 105.613C100.893 103.686 103.436 102.615 106.149 102.594C108.861 102.573 111.421 103.615 113.352 105.516L129.685 121.603C128.236 117.985 128.963 113.68 131.866 110.745L132.415 110.188C135.638 106.929 140.628 106.267 144.553 108.341C142.483 104.399 143.133 99.4863 146.386 96.1973L147.193 95.3834C148.993 93.566 151.393 92.554 153.953 92.5371C153.974 92.5371 153.995 92.5371 154.021 92.5371C156.556 92.5371 158.943 93.5154 160.751 95.2949L200.591 134.528C202.311 136.218 203.266 138.479 203.283 140.891C203.299 143.303 202.374 145.575 200.676 147.287L192.365 155.708L177.849 170.235L177.84 170.227L163.586 184.159L163.62 184.192L162.813 184.838C160.869 186.385 158.474 187.182 156.061 187.182ZM118.646 141.16L117.214 142.721C114.468 145.71 113.576 149.952 114.886 153.79L119.018 165.913C119.922 168.354 121.709 170.349 124.05 171.521L151.6 185.293C155.064 187.026 159.264 186.588 162.297 184.18L162.686 183.872L177.794 169.105L191.774 155.118L200.08 146.701C201.618 145.145 202.459 143.083 202.442 140.899C202.429 138.715 201.559 136.665 200.004 135.131L160.164 95.8979C158.503 94.2618 156.294 93.3847 153.966 93.3847C151.629 93.4015 149.441 94.3208 147.802 95.9822L146.995 96.796C143.526 100.304 143.277 105.816 146.412 109.615L145.812 110.205C142.073 107.055 136.454 107.313 133.019 110.787L132.47 111.344C128.908 114.949 128.925 120.798 132.508 124.382L132.892 124.766L132.144 125.204L131.908 124.981L112.761 106.123C110.99 104.378 108.646 103.437 106.157 103.446C103.669 103.463 101.337 104.445 99.5918 106.212L98.9412 106.87C95.1473 110.707 95.1895 116.91 99.0341 120.697L118.604 139.942L118.718 139.811L119.36 140.359L118.667 141.182L118.654 141.169L118.65 141.173L118.646 141.16Z" fill="#028EB5"/>
<path d="M104.818 123.299C104.713 123.299 104.603 123.256 104.523 123.176L102.486 121.173C100.623 119.339 99.4486 117.032 99.1698 114.675C98.8867 112.284 99.5669 110.125 101.075 108.599L101.557 108.114C102.997 106.655 105.055 105.985 107.349 106.221C109.609 106.453 111.832 107.545 113.606 109.295L116.12 111.77C116.2 111.85 116.247 111.955 116.247 112.069C116.247 112.183 116.2 112.289 116.12 112.369L105.114 123.176C105.034 123.256 104.928 123.299 104.818 123.299ZM106.466 107.013C104.759 107.013 103.251 107.6 102.161 108.704L101.679 109.189C100.353 110.53 99.7612 112.445 100.011 114.578C100.264 116.746 101.354 118.875 103.082 120.575L104.818 122.282L115.22 112.065L113.01 109.889C111.371 108.274 109.326 107.266 107.26 107.051C106.994 107.03 106.728 107.013 106.466 107.013Z" fill="#028EB5"/>
<path d="M115.6 157.205L115.329 156.408L120.623 154.62L119.487 151.757C118.498 149.261 116.677 147.313 114.497 146.419L114.818 145.639C117.209 146.621 119.195 148.738 120.272 151.449L121.569 154.726C121.612 154.831 121.608 154.953 121.561 155.059C121.515 155.164 121.422 155.244 121.312 155.282L115.6 157.205Z" fill="#028EB5"/>
<path d="M139.686 166.902C139.454 166.902 139.264 166.713 139.264 166.481V165.039C139.264 162.732 138.364 160.56 136.729 158.929L120.881 143.078C120.717 142.913 120.717 142.648 120.881 142.483C121.046 142.319 121.312 142.319 121.477 142.483L137.325 158.334C139.116 160.126 140.104 162.509 140.104 165.043V166.485C140.109 166.713 139.919 166.902 139.686 166.902Z" fill="#028EB5"/>
<path d="M139.294 132.49C139.184 132.49 139.07 132.448 138.99 132.36L133.388 126.532C133.227 126.363 133.232 126.098 133.401 125.937C133.569 125.777 133.836 125.781 133.996 125.95L139.598 131.778C139.759 131.946 139.755 132.212 139.586 132.372C139.501 132.452 139.396 132.49 139.294 132.49Z" fill="#028EB5"/>
<path d="M153.849 118.068C153.739 118.068 153.625 118.026 153.545 117.938L147.943 112.11C147.782 111.941 147.787 111.676 147.956 111.516C148.125 111.355 148.391 111.36 148.551 111.528L154.154 117.356C154.314 117.524 154.31 117.79 154.141 117.95C154.061 118.03 153.955 118.068 153.849 118.068Z" fill="#028EB5"/>
<path d="M171.614 63.4323C173.66 63.4323 175.319 61.7766 175.319 59.7342C175.319 57.6918 173.66 56.0361 171.614 56.0361C169.568 56.0361 167.909 57.6918 167.909 59.7342C167.909 61.7766 169.568 63.4323 171.614 63.4323Z" fill="url(#paint6_linear_2071_87504)"/>
<path d="M8.60141 194.481C11.8401 194.481 14.4655 191.861 14.4655 188.628C14.4655 185.396 11.8401 182.775 8.60141 182.775C5.36276 182.775 2.7373 185.396 2.7373 188.628C2.7373 191.861 5.36276 194.481 8.60141 194.481Z" fill="url(#paint7_linear_2071_87504)"/>
<path d="M132.095 218.837C134.057 218.837 135.648 217.249 135.648 215.291C135.648 213.332 134.057 211.745 132.095 211.745C130.132 211.745 128.542 213.332 128.542 215.291C128.542 217.249 130.132 218.837 132.095 218.837Z" fill="url(#paint8_linear_2071_87504)"/>
<defs>
<linearGradient id="paint0_linear_2071_87504" x1="0.000176619" y1="120.498" x2="241.998" y2="120.498" gradientUnits="userSpaceOnUse">
<stop offset="0.00571309" stop-color="#E4FAFA"/>
<stop offset="1" stop-color="#E6FAFA"/>
</linearGradient>
<linearGradient id="paint1_linear_2071_87504" x1="0.000176619" y1="120.498" x2="241.998" y2="120.498" gradientUnits="userSpaceOnUse">
<stop offset="0.00571309" stop-color="#E4FAFA"/>
<stop offset="1" stop-color="#E6FAFA"/>
</linearGradient>
<linearGradient id="paint2_linear_2071_87504" x1="19.0896" y1="-2.7918" x2="167.191" y2="204.868" gradientUnits="userSpaceOnUse">
<stop offset="8.79085e-07" stop-color="#E6FAFA"/>
<stop offset="0.9943" stop-color="#E4FAFA"/>
</linearGradient>
<linearGradient id="paint3_linear_2071_87504" x1="15.355" y1="117.686" x2="213.49" y2="117.686" gradientUnits="userSpaceOnUse">
<stop offset="0.00571309" stop-color="#E4FAFA"/>
<stop offset="1" stop-color="#E6FAFA"/>
</linearGradient>
<linearGradient id="paint4_linear_2071_87504" x1="15.357" y1="117.684" x2="213.492" y2="117.684" gradientUnits="userSpaceOnUse">
<stop offset="0.00571309" stop-color="#E4FAFA"/>
<stop offset="1" stop-color="#E6FAFA"/>
</linearGradient>
<linearGradient id="paint5_linear_2071_87504" x1="25.066" y1="40.9737" x2="34.373" y2="54.0234" gradientUnits="userSpaceOnUse">
<stop offset="8.79085e-07" stop-color="#E6FAFA"/>
<stop offset="0.9943" stop-color="#E4FAFA"/>
</linearGradient>
<linearGradient id="paint6_linear_2071_87504" x1="168.307" y1="55.1137" x2="174.22" y2="63.4045" gradientUnits="userSpaceOnUse">
<stop offset="8.79085e-07" stop-color="#E6FAFA"/>
<stop offset="0.9943" stop-color="#E4FAFA"/>
</linearGradient>
<linearGradient id="paint7_linear_2071_87504" x1="3.3658" y1="181.314" x2="12.7238" y2="194.436" gradientUnits="userSpaceOnUse">
<stop offset="8.79085e-07" stop-color="#E6FAFA"/>
<stop offset="0.9943" stop-color="#E4FAFA"/>
</linearGradient>
<linearGradient id="paint8_linear_2071_87504" x1="128.923" y1="210.861" x2="134.591" y2="218.809" gradientUnits="userSpaceOnUse">
<stop offset="8.79085e-07" stop-color="#E6FAFA"/>
<stop offset="0.9943" stop-color="#E4FAFA"/>
</linearGradient>
</defs>
</svg>
